<svg version="1.1" id="Layer_1" xmlns="http://www.w3.org/2000/svg" xmlns:xlink="http://www.w3.org/1999/xlink" x="0px" y="0px"
	 width="100%" viewBox="0 0 736 736" enable-background="new 0 0 736 736" xml:space="preserve">
<path fill="#000000" opacity="1.000000" stroke="none" 
	d="
M528.359131,523.110718 
	C525.419983,527.573792 526.033936,532.315491 525.967834,536.934631 
	C525.898743,541.763367 525.960876,546.598267 525.725769,551.418762 
	C525.540588,555.216797 523.492188,557.647522 519.549622,558.026123 
	C515.743835,558.391602 511.895874,559.053772 508.114594,558.817078 
	C487.314911,557.515137 466.499939,558.674255 445.698273,558.202637 
	C437.155518,558.008972 436.840607,557.714294 436.849701,549.084717 
	C436.907440,494.296692 436.943146,439.508698 436.977844,384.720673 
	C436.989410,366.430023 437.330231,348.130615 436.877899,329.851135 
	C436.402374,310.633392 437.756042,291.423370 436.712646,272.212860 
	C436.505585,268.400543 439.635376,265.907227 444.644867,265.851471 
	C453.971954,265.747620 463.301239,265.854279 472.629608,265.848022 
	C475.752289,265.845917 478.959259,266.337982 480.692596,262.497223 
	C481.551392,260.594330 484.066742,260.881256 485.045197,262.028900 
	C489.434570,267.177277 495.437317,265.210266 500.718048,265.707520 
	C506.989899,266.298065 513.369934,265.964478 519.691467,265.724945 
	C524.083008,265.558563 526.009033,266.990570 525.960815,271.697235 
	C525.793701,288.015411 525.945251,304.336853 525.975281,320.657074 
	C525.975586,320.823639 525.919983,321.010223 525.976196,321.153931 
	C529.403137,329.912872 526.348328,338.661102 525.962097,347.415649 
	C525.807861,350.911591 525.705872,354.383881 528.377686,357.293213 
	C529.588623,358.611786 529.623352,360.556274 528.474670,361.947144 
	C525.886597,365.080841 526.074768,368.743408 526.062317,372.399597 
	C526.018372,385.359406 525.967468,398.319305 525.966614,411.279144 
	C525.965027,435.609741 526.000061,459.940369 526.009766,484.270966 
	C526.010864,487.107483 525.905151,489.947510 527.320374,492.560883 
	C527.555603,492.995148 527.964233,493.645142 527.808411,493.936005 
	C524.195190,500.681732 527.972778,507.895233 526.450073,514.700867 
	C525.733704,517.902710 527.553040,520.114014 528.359131,523.110718 
M511.850281,514.568298 
	C509.277496,511.087036 506.704712,507.605774 504.131927,504.124542 
	C505.251434,510.920868 509.309479,515.561035 513.790833,519.894043 
	C514.158325,519.644104 514.525818,519.394165 514.893250,519.144226 
	C514.026672,517.799377 513.160034,516.454468 511.850281,514.568298 
z"/>
<path fill="#000000" opacity="1.000000" stroke="none" 
	d="
M411.402710,480.000183 
	C411.375519,503.319763 411.358673,526.139282 411.311005,548.958801 
	C411.295990,556.145447 409.405762,558.120422 402.100677,558.141785 
	C377.949249,558.212341 353.797485,558.215942 329.645966,558.174072 
	C323.205078,558.162903 322.689178,557.635132 322.689117,551.394775 
	C322.688507,488.933868 322.711548,426.472992 322.760468,364.012085 
	C322.765320,357.825867 324.501038,355.908386 330.773651,355.793488 
	C341.093353,355.604492 351.449554,356.247437 361.734833,355.623840 
	C375.845001,354.768372 389.952057,356.731476 404.055206,355.049408 
	C410.101685,354.328278 411.383301,355.983765 411.383789,362.071014 
	C411.386993,401.214050 411.394806,440.357086 411.402710,480.000183 
z"/>
<path fill="#000000" opacity="1.000000" stroke="none" 
	d="
M226.050629,558.429688 
	C221.951187,558.321655 218.281204,558.024353 214.628967,558.170349 
	C210.167343,558.348816 208.505814,556.667175 208.530838,552.032227 
	C208.696213,521.380798 208.620285,490.728088 208.620178,460.075806 
	C208.620163,454.078644 208.616211,448.081451 208.599167,442.084320 
	C208.580460,435.501099 210.073364,433.963348 216.846970,433.948273 
	C235.004089,433.907898 253.161346,433.917999 271.318542,433.911224 
	C277.648773,433.908844 283.979034,433.931030 290.309235,433.914185 
	C296.854401,433.896790 297.138580,434.142090 297.141083,440.569824 
	C297.149780,462.892303 297.193573,485.214935 297.104462,507.537079 
	C297.087372,511.817749 297.589661,515.830383 300.093292,519.414734 
	C300.980316,520.684692 301.901398,522.242554 300.780212,523.548218 
	C294.644318,530.693237 297.220490,539.165833 297.469208,547.058105 
	C297.703949,554.506714 295.539368,557.991516 287.923889,558.046753 
	C269.941345,558.177307 251.957474,558.121887 233.974213,558.170166 
	C231.478577,558.176819 228.983383,558.344116 226.050629,558.429688 
M269.399200,520.123596 
	C269.233032,520.119812 269.048279,520.069153 268.906036,520.125671 
	C268.767914,520.180542 268.554382,520.379517 268.576630,520.457031 
	C271.499695,530.641174 277.284607,539.338928 283.010010,548.058228 
	C283.270782,548.455383 284.156830,548.442017 284.751648,548.619873 
	C285.213196,548.304199 285.674744,547.988586 286.136292,547.672913 
	C282.026459,537.892090 276.244110,529.009583 269.399200,520.123596 
z"/>
<path fill="#000000" opacity="1.000000" stroke="none" 
	d="
M136.043503,598.339722 
	C133.224777,598.316650 130.881226,598.429260 128.565247,598.226624 
	C126.556755,598.050903 124.988731,596.876892 125.052643,594.725403 
	C125.113487,592.677307 126.890533,592.000854 128.619370,591.948975 
	C133.447617,591.803894 138.280914,591.811401 143.112350,591.790649 
	C151.848160,591.753052 152.703278,590.918091 152.670456,581.966125 
	C152.457169,523.814270 150.795105,465.662415 152.108002,407.512939 
	C152.634674,384.186554 152.264816,360.861237 152.854950,337.542084 
	C153.554428,309.902100 154.025986,282.253601 155.072739,254.626816 
	C155.425339,245.320175 155.518768,236.037048 155.880569,226.817383 
	C153.250504,225.406006 150.963852,226.763321 148.713455,226.555267 
	C144.754166,226.189224 143.275574,224.292007 144.652863,220.638580 
	C148.711853,209.871552 151.787109,198.822708 154.377335,187.631927 
	C154.946365,185.173508 155.700150,183.069138 158.632935,182.945801 
	C161.267944,182.835007 163.103485,184.152786 164.021301,186.587448 
	C168.072861,197.334824 172.280716,208.029938 176.011688,218.888382 
	C177.575317,223.439087 175.380371,225.838181 170.570099,224.804428 
	C165.178589,223.645782 164.377853,225.899399 164.327805,230.501602 
	C164.001724,260.487305 163.694901,290.476105 162.974075,320.454102 
	C160.899033,406.752991 160.975067,493.063324 161.236313,579.376221 
	C161.240356,580.709290 161.247971,582.042664 161.278412,583.375366 
	C161.431122,590.059937 162.982361,591.750793 169.571426,591.669373 
	C183.728348,591.494324 197.880890,591.666138 212.045563,591.106018 
	C228.521240,590.454590 245.037506,590.913574 261.531708,590.631042 
	C335.345947,589.366821 409.165314,589.417480 482.979645,590.178467 
	C511.802582,590.475647 540.626892,590.578186 569.449219,590.913757 
	C571.780212,590.940918 574.117615,590.925842 576.443176,590.784302 
	C579.493225,590.598633 581.373779,589.112732 581.679443,585.864197 
	C581.865845,583.883423 582.343323,581.931641 582.634399,579.958679 
	C583.411560,574.691467 586.232849,572.849976 590.885986,575.513062 
	C601.744934,581.727966 612.823242,587.440857 624.303772,592.415344 
	C627.476807,593.790100 627.848694,595.871216 625.112000,598.571472 
	C622.908752,600.745361 620.673828,602.346252 617.612183,603.121094 
	C609.714722,605.119812 602.218018,608.561340 594.105591,609.805481 
	C591.646301,610.182678 589.139465,610.533813 586.666138,610.466064 
	C583.317566,610.374451 581.279785,608.732605 582.013794,605.008789 
	C582.959229,600.212891 580.281799,598.235596 576.144653,597.585083 
	C574.186707,597.277283 572.157104,597.384949 570.159668,597.375488 
	C540.163879,597.232788 510.161560,597.452759 480.173798,596.892395 
	C424.852325,595.858521 369.528076,596.205505 314.212616,596.570190 
	C273.558136,596.838135 232.902420,597.259460 192.245544,597.432312 
	C184.424835,597.465576 176.604065,597.714478 168.785492,597.939453 
	C162.479782,598.120789 161.392761,599.316040 161.376404,605.809082 
	C161.371796,607.641541 161.472687,609.474060 161.496017,611.306885 
	C161.530273,613.997925 160.116867,615.251404 157.492020,615.308716 
	C154.982712,615.363464 153.209686,614.328613 152.902390,611.745056 
	C152.647888,609.605225 152.769608,607.420837 152.720657,605.256287 
	C152.591782,599.556702 151.355728,598.340149 145.527603,598.289917 
	C142.528976,598.264038 139.529648,598.319641 136.043503,598.339722 
z"/>
<path fill="#000000" opacity="1.000000" stroke="none" 
	d="
M447.335510,213.348328 
	C466.465363,191.620728 485.369476,170.166489 504.725098,148.199844 
	C502.019867,147.435959 500.375366,148.206497 498.863922,148.923019 
	C487.429382,154.343826 475.300598,158.156815 464.041962,163.982559 
	C463.314545,164.358978 462.481506,164.584198 461.670685,164.736206 
	C459.599609,165.124466 457.533966,165.140381 456.644104,162.754532 
	C455.826752,160.563187 457.318146,159.307098 458.977173,158.358322 
	C464.192657,155.375626 469.698639,153.016129 475.280182,150.809021 
	C490.466156,144.804047 505.292389,137.991150 519.855103,130.615036 
	C523.440552,128.798996 526.524414,128.843567 529.367737,131.796677 
	C530.320801,132.786606 530.994385,133.940186 530.712341,135.392502 
	C526.913330,154.953720 523.098816,174.511902 519.308105,194.074722 
	C518.936768,195.991104 518.086792,197.515320 516.275696,198.370697 
	C514.078674,199.408325 511.791840,199.937439 509.623016,198.476379 
	C507.513824,197.055496 508.310547,194.902206 508.658569,192.980637 
	C511.117676,179.402679 513.616272,165.831894 516.100769,152.258514 
	C516.276367,151.299316 516.774597,150.333557 515.874207,149.112244 
	C513.472656,149.065033 512.402588,151.235672 511.112610,152.700027 
	C488.763489,178.070709 466.407410,203.436172 444.223694,228.951324 
	C432.314819,242.648605 420.750854,256.645416 408.977356,270.461090 
	C406.820282,272.992249 404.443542,275.315643 401.446198,276.946289 
	C393.083008,281.496185 386.233490,280.489166 380.151062,273.057617 
	C373.615082,265.071930 367.530731,256.718109 361.171631,248.585709 
	C356.488037,242.595978 350.904572,237.567978 343.801910,234.684616 
	C332.757629,230.201111 322.902832,233.951141 313.614105,239.878143 
	C301.428711,247.653458 291.529755,258.043701 281.616272,268.397125 
	C266.644012,284.033783 251.594818,299.597351 236.699448,315.306854 
	C226.504303,326.059235 216.508881,337.001099 206.438965,347.871948 
	C204.160339,350.331818 202.131821,353.084076 198.026703,351.495209 
	C193.392349,349.701477 192.628632,346.870300 196.141357,343.364288 
	C202.506683,337.011108 209.001770,330.787262 215.332748,324.400482 
	C241.831757,297.667786 267.430634,270.040619 294.663361,244.041901 
	C304.677979,234.481064 316.398834,227.815765 330.349915,225.130371 
	C341.539764,222.976486 351.066620,226.111862 359.970490,232.289871 
	C368.348236,238.102814 373.761841,246.646713 379.867615,254.541504 
	C383.024414,258.623291 386.159515,262.739197 389.579773,266.595459 
	C393.703888,271.245300 397.142548,271.133057 401.234161,266.435059 
	C416.548920,248.850525 431.821381,231.229187 447.335510,213.348328 
z"/>
</svg>