<svg version="1.1" id="Layer_1" xmlns="http://www.w3.org/2000/svg" xmlns:xlink="http://www.w3.org/1999/xlink" x="0px" y="0px"
	 width="100%" viewBox="0 0 736 544" enable-background="new 0 0 736 544" xml:space="preserve">
<path fill="#000000" opacity="1.000000" stroke="none" 
	d="
M399.999939,444.292297 
	C343.178253,444.283539 286.856567,444.284851 230.534882,444.259857 
	C213.561844,444.252350 202.051620,433.227142 202.016312,416.285522 
	C201.894730,357.964508 202.014175,299.642975 201.955582,241.321732 
	C201.951462,237.225479 203.546127,234.480774 206.781479,232.109833 
	C216.588074,224.923386 226.199387,217.470673 235.994705,210.268463 
	C239.350815,207.800797 241.040421,205.021591 240.771637,200.640686 
	C240.384598,194.332413 240.654480,187.982605 240.679321,181.650650 
	C240.705795,174.907486 241.218445,174.463074 248.187424,174.496414 
	C258.351624,174.545029 268.517853,174.450470 278.679230,174.635391 
	C281.859985,174.693268 284.426697,173.879456 286.959351,171.968201 
	C312.353973,152.804199 337.870178,133.800552 363.182556,114.529060 
	C367.282471,111.407593 370.056488,111.648689 374.075317,114.710129 
	C399.385132,133.990448 424.921844,152.972656 450.312195,172.147873 
	C452.741180,173.982254 455.170837,174.812439 458.141876,174.598251 
	C468.959473,173.818329 479.781952,174.518021 490.602173,174.506088 
	C494.973297,174.501266 496.526031,176.112793 496.391083,180.405045 
	C496.166046,187.563156 496.461090,194.736908 496.273956,201.897202 
	C496.187592,205.202728 497.160187,207.471237 499.922180,209.474228 
	C509.900970,216.710770 519.625549,224.298477 529.622803,231.508652 
	C533.501465,234.305954 535.208801,237.548752 535.198059,242.403000 
	C535.070435,300.057648 535.114990,357.712616 535.079956,415.367523 
	C535.071472,429.310394 528.384155,438.856628 515.851807,443.270477 
	C513.259888,444.183350 510.644745,444.263306 507.977448,444.263855 
	C472.151611,444.271149 436.325806,444.282166 399.999939,444.292297 
M319.927002,320.543640 
	C325.187317,324.632111 330.506042,328.648438 335.681885,332.841187 
	C338.069733,334.775452 339.999298,334.841675 342.138031,332.543243 
	C344.518890,329.984650 346.978302,327.483032 349.565887,325.135651 
	C361.718262,314.111206 376.158691,314.319366 388.002197,325.644043 
	C390.530640,328.061768 393.068878,330.480927 395.433655,333.054657 
	C397.492035,335.294891 399.196899,335.528656 401.756104,333.531555 
	C429.728027,311.703888 457.761841,289.955200 485.852966,268.281158 
	C488.801361,266.006256 489.826477,263.448303 489.805206,259.768585 
	C489.666382,235.775162 489.744019,211.780502 489.737518,187.786255 
	C489.735748,181.229797 489.714874,181.212891 483.063782,181.211395 
	C438.740723,181.201416 394.417664,181.196884 350.094604,181.195358 
	C317.935394,181.194260 285.776184,181.217178 253.617050,181.180450 
	C249.979828,181.176300 247.182022,181.295456 247.218307,186.335693 
	C247.397064,211.161972 247.301270,235.990219 247.300522,260.817780 
	C247.300476,262.499756 247.286591,264.161835 248.821442,265.347168 
	C255.017151,270.131897 261.190002,274.946289 267.392059,279.722809 
	C269.249542,281.153320 271.479370,280.946045 273.640411,280.949554 
	C282.471100,280.963898 291.301910,280.949310 300.132355,281.000122 
	C301.785858,281.009644 303.485596,281.075195 305.078461,281.464752 
	C307.045166,281.945709 308.288605,283.330048 307.971527,285.497253 
	C307.692413,287.404907 306.353760,288.368256 304.467712,288.412720 
	C301.803528,288.475555 299.085144,288.103271 296.482697,288.510345 
	C291.881683,289.229950 286.881012,287.093781 281.584198,290.812592 
	C294.483337,300.808167 306.926117,310.450104 319.927002,320.543640 
M324.775818,359.270966 
	C299.380310,384.916962 273.984772,410.562958 248.589264,436.208954 
	C248.735840,436.673584 248.882431,437.138245 249.029007,437.602875 
	C328.509125,437.054993 407.993561,438.258484 488.426758,437.357239 
	C485.181885,432.319275 481.834137,429.535553 478.802429,426.483551 
	C447.229401,394.699768 415.704651,362.867279 383.985962,331.229309 
	C373.628510,320.898254 363.057617,321.181915 352.474457,331.551147 
	C343.313934,340.526520 334.333435,349.685669 324.775818,359.270966 
M299.052734,375.552002 
	C310.615112,363.956360 322.177490,352.360718 333.974640,340.529633 
	C331.825806,338.639893 330.525574,337.366058 329.096405,336.258636 
	C291.861633,307.405853 254.621918,278.559418 217.342926,249.763885 
	C215.455780,248.306198 213.679840,245.482773 210.982986,246.632263 
	C207.851501,247.966980 209.240372,251.340347 209.237076,253.802322 
	C209.165894,307.082825 209.198837,360.363495 209.180618,413.644104 
	C209.179138,417.972137 208.834839,422.169189 213.293457,425.077881 
	C214.717697,426.007019 215.449310,428.435852 215.892624,430.320862 
	C216.459930,432.733185 217.982529,434.002533 219.916870,435.076141 
	C227.908218,439.511749 236.566574,438.493896 243.006546,432.037811 
	C261.571930,413.425903 280.046417,394.723389 299.052734,375.552002 
M527.859253,382.500000 
	C527.859253,336.988129 527.859253,291.476257 527.859253,244.863739 
	C525.288452,246.530899 523.990051,247.250916 522.826904,248.146515 
	C514.117188,254.853088 505.430298,261.589294 496.743652,268.325714 
	C467.129425,291.291260 437.553040,314.305939 407.859741,337.168762 
	C404.329407,339.887024 403.903778,341.823425 407.286285,344.937836 
	C412.060944,349.334106 416.485413,354.109985 421.074951,358.708252 
	C446.019104,383.699677 470.973267,408.681122 495.904907,433.684998 
	C497.832916,435.618591 499.856903,437.145142 502.714569,437.478912 
	C517.478455,439.203308 527.789307,430.249786 527.854736,415.493835 
	C527.902039,404.829437 527.860718,394.164612 527.859253,382.500000 
M348.299988,141.607681 
	C349.586914,147.270386 354.522064,146.587296 358.308228,146.696838 
	C367.190704,146.953781 376.037018,145.391968 384.883850,148.557983 
	C389.399719,150.174072 391.422974,146.871826 390.119781,142.145569 
	C387.143982,131.353409 378.193542,126.290840 369.940491,120.509819 
	C368.821472,119.725983 367.689850,119.902359 366.719482,120.706238 
	C359.657227,126.556686 349.843903,129.921188 348.299988,141.607681 
M504.010406,228.265137 
	C501.004486,228.936218 496.178314,227.168198 496.948730,233.649673 
	C503.432739,234.336624 509.595612,234.306320 515.883484,233.561493 
	C515.657776,230.972488 514.677063,229.531342 512.635132,229.207458 
	C510.018280,228.792374 507.362946,228.619598 504.010406,228.265137 
M499.277771,250.454300 
	C503.134766,248.730804 506.206757,246.142960 508.617859,242.048553 
	C505.233795,242.039322 502.295898,241.725891 499.310883,242.323074 
	C496.710602,242.843277 496.096497,244.688217 496.441589,246.761017 
	C496.681610,248.202759 494.652832,251.337097 499.277771,250.454300 
z"/>
<path fill="#000000" opacity="1.000000" stroke="none" 
	d="
M207.961792,185.999451 
	C209.478775,182.968842 213.223358,182.465652 214.068604,178.953629 
	C214.376740,177.673355 217.311798,177.827927 217.272491,178.834000 
	C217.093246,183.421127 225.631516,182.233429 223.032730,187.297195 
	C221.893677,189.516647 218.415817,190.522873 217.010239,193.326309 
	C216.476624,194.390564 214.321976,194.175369 214.080566,193.096985 
	C213.290802,189.568878 209.388840,189.138855 207.961792,185.999451 
z"/>
<path fill="#000000" opacity="1.000000" stroke="none" 
	d="
M515.372803,142.527893 
	C513.890930,141.581543 512.438354,141.127777 511.272217,140.279922 
	C510.027008,139.374512 510.211884,136.830246 510.950592,136.960510 
	C515.930786,137.838730 514.526917,128.057022 519.878113,131.469269 
	C521.798096,132.693619 522.950928,135.613327 525.484741,137.003662 
	C526.700989,137.671021 526.039978,140.388000 524.997375,140.241440 
	C520.418213,139.597717 522.059875,148.408981 516.563843,145.533997 
	C515.924927,145.199783 515.859436,143.769272 515.372803,142.527893 
z"/>
<path fill="#000000" opacity="1.000000" stroke="none" 
	d="
M521.039612,466.769592 
	C523.002686,467.373169 524.554688,469.021088 523.413452,470.017303 
	C520.842102,472.261871 518.582458,474.845123 515.948242,476.935699 
	C514.700256,477.926208 513.079956,476.173035 512.921997,474.605316 
	C512.600281,471.412384 507.815918,472.661285 507.881683,469.202911 
	C507.944305,465.908173 512.593689,467.615234 512.836060,464.485748 
	C512.959229,462.895599 513.740845,461.605042 515.640015,461.643799 
	C517.528503,461.682343 518.148132,462.949280 518.343994,464.580200 
	C518.509155,465.955902 519.372925,466.571350 521.039612,466.769592 
z"/>
<path fill="#000000" opacity="1.000000" stroke="none" 
	d="
M535.213867,185.739899 
	C537.339539,187.190155 538.333679,188.810211 537.285156,191.011902 
	C536.527893,192.602173 535.253784,193.686905 533.380249,193.611664 
	C531.546082,193.538025 530.266296,192.507278 529.584961,190.834183 
	C528.317200,187.721161 530.378906,185.695343 535.213867,185.739899 
z"/>
<path fill="#000000" opacity="1.000000" stroke="none" 
	d="
M465.793945,135.314880 
	C465.777557,138.942291 464.068695,140.611618 460.863556,140.135910 
	C458.280792,139.752579 457.549927,137.756561 457.839233,135.353775 
	C458.039673,133.689163 459.147919,132.716812 460.631012,132.261002 
	C463.143250,131.488907 464.663605,132.796844 465.793945,135.314880 
z"/>
<path fill="#000000" opacity="1.000000" stroke="none" 
	d="
M551.528198,381.343628 
	C549.086731,379.864655 548.295044,378.071014 549.434143,375.733734 
	C550.144287,374.276550 551.394653,373.539917 553.034790,373.559204 
	C554.933594,373.581543 556.351135,374.665314 556.735413,376.324799 
	C557.638489,380.224731 555.727966,381.855743 551.528198,381.343628 
z"/>
<path fill="#000000" opacity="1.000000" stroke="none" 
	d="
M479.350891,466.039948 
	C476.281433,463.908539 475.981750,461.504791 478.327484,459.228912 
	C480.184021,457.427643 482.303467,458.050568 484.034332,459.763428 
	C485.042816,460.761414 485.396698,462.016113 484.854034,463.397919 
	C483.932465,465.744843 482.201538,466.643463 479.350891,466.039948 
z"/>
<path fill="#000000" opacity="1.000000" stroke="none" 
	d="
M268.131897,150.830963 
	C265.916290,147.878571 265.703796,145.367432 269.184113,143.831375 
	C270.764893,143.133713 272.461365,143.643311 273.653290,145.019424 
	C274.856873,146.409042 275.038330,148.019882 273.984253,149.548920 
	C272.592865,151.567352 270.709198,152.165741 268.131897,150.830963 
z"/>
<path fill="#000000" opacity="1.000000" stroke="none" 
	d="
M350.000061,225.699707 
	C359.822174,225.703400 369.144287,225.703537 378.466400,225.713852 
	C381.081970,225.716736 383.947784,225.929184 383.942719,229.295120 
	C383.938019,232.431259 381.314056,233.224121 378.592773,233.226944 
	C358.450470,233.247910 338.308167,233.248672 318.165863,233.248978 
	C315.435852,233.249023 312.853821,232.605453 313.001312,229.295624 
	C313.149200,225.977112 315.895233,225.706985 318.537323,225.707291 
	C328.858215,225.708420 339.179138,225.702972 350.000061,225.699707 
z"/>
<path fill="#000000" opacity="1.000000" stroke="none" 
	d="
M379.999939,260.368225 
	C370.843506,260.397888 362.186523,260.380798 353.530975,260.482513 
	C350.771606,260.514923 348.205627,260.080780 348.032501,256.871002 
	C347.851959,253.523499 350.579865,252.907410 353.222687,252.900375 
	C372.533569,252.848969 391.844635,252.843964 411.155609,252.863052 
	C413.633087,252.865509 416.055634,253.433746 416.151550,256.505524 
	C416.260345,259.990387 413.612305,260.367706 410.964813,260.373169 
	C400.809906,260.394226 390.654907,260.372955 379.999939,260.368225 
z"/>
<path fill="#000000" opacity="1.000000" stroke="none" 
	d="
M275.037567,219.148834 
	C272.382874,219.142929 270.217682,219.211716 268.060150,219.112808 
	C265.240845,218.983551 261.827667,219.163895 261.862061,215.126190 
	C261.896332,211.104645 265.419800,211.318756 268.158691,211.151596 
	C271.472687,210.949371 274.807404,211.080048 278.133148,211.079239 
	C288.110718,211.076797 298.088348,211.068619 308.065857,211.093567 
	C309.724121,211.097717 311.398743,211.139297 313.036072,211.372299 
	C315.390381,211.707336 317.249359,212.866104 317.127045,215.524704 
	C317.013184,217.999329 315.030243,218.799881 312.939362,218.984848 
	C310.626831,219.189453 308.288971,219.141006 305.962097,219.144058 
	C295.818207,219.157349 285.674347,219.149277 275.037567,219.148834 
z"/>
<path fill="#000000" opacity="1.000000" stroke="none" 
	d="
M309.738770,247.307922 
	C295.792664,247.300781 282.316315,247.319824 268.840271,247.264313 
	C265.949219,247.252411 262.079041,247.989197 261.952667,243.629135 
	C261.824890,239.222748 265.657166,239.742523 268.593201,239.734467 
	C282.402069,239.696548 296.211182,239.710434 310.020142,239.731964 
	C313.021149,239.736649 316.810608,239.441162 316.722382,243.644989 
	C316.644196,247.370193 313.108185,247.317017 309.738770,247.307922 
z"/>
<path fill="#000000" opacity="1.000000" stroke="none" 
	d="
M338.018219,247.300232 
	C334.863403,247.295578 332.204742,247.313599 329.546722,247.279877 
	C326.858093,247.245789 323.706268,247.447693 323.644012,243.659286 
	C323.575989,239.518509 326.954956,239.758926 329.782135,239.744125 
	C338.587799,239.698029 347.393860,239.723206 356.199768,239.722946 
	C360.021210,239.722839 363.842621,239.732468 367.664062,239.729599 
	C370.639771,239.727371 373.866486,239.989059 373.881042,243.768570 
	C373.895325,247.500717 370.597107,247.287018 367.923065,247.292938 
	C358.120300,247.314636 348.317474,247.300720 338.018219,247.300232 
z"/>
<path fill="#000000" opacity="1.000000" stroke="none" 
	d="
M396.002563,239.724457 
	C403.831238,239.726746 411.160583,239.703613 418.489532,239.744553 
	C421.268768,239.760086 424.260620,240.026047 424.100189,243.753540 
	C423.956909,247.082687 421.189667,247.316956 418.547668,247.312805 
	C406.887634,247.294418 395.227631,247.286423 383.567596,247.279114 
	C380.737305,247.277344 377.808838,247.011642 377.951721,243.303955 
	C378.080261,239.968506 380.907318,239.745499 383.509918,239.728134 
	C387.507446,239.701462 391.505310,239.723312 396.002563,239.724457 
z"/>
<path fill="#000000" opacity="1.000000" stroke="none" 
	d="
M263.900818,253.567688 
	C277.561127,252.237885 290.846069,253.039642 304.119995,252.951447 
	C306.371765,252.936462 308.003479,254.221146 307.976898,256.636047 
	C307.950592,259.026184 306.348022,260.280640 304.074677,260.289429 
	C291.280396,260.338867 278.483185,260.445526 265.692841,260.211975 
	C261.650574,260.138184 260.950714,257.568939 263.900818,253.567688 
z"/>
<path fill="#000000" opacity="1.000000" stroke="none" 
	d="
M274.037567,233.262115 
	C271.055969,233.250381 268.564667,233.311813 266.080505,233.205872 
	C263.653473,233.102402 261.840881,232.026718 261.840240,229.337738 
	C261.839630,226.836472 263.626984,225.812897 265.809662,225.800507 
	C278.084229,225.730774 290.359406,225.736099 302.634155,225.782303 
	C305.180511,225.791885 306.841705,227.242004 306.633759,229.814117 
	C306.417938,232.483414 304.201721,233.203186 301.902374,233.218338 
	C292.778900,233.278488 283.654846,233.254684 274.037567,233.262115 
z"/>
<path fill="#000000" opacity="1.000000" stroke="none" 
	d="
M421.432434,225.955872 
	C423.754791,227.003998 424.644440,228.453171 423.957794,230.543808 
	C423.282104,232.601059 421.595917,233.215576 419.624786,233.219757 
	C410.796265,233.238434 401.967468,233.268921 393.139221,233.219620 
	C390.577026,233.205322 388.317352,232.323181 388.468964,229.273026 
	C388.620270,226.228821 390.985291,225.709625 393.518219,225.720993 
	C402.678314,225.762054 411.838379,225.802734 421.432434,225.955872 
z"/>
<path fill="#000000" opacity="1.000000" stroke="none" 
	d="
M438.010254,252.817978 
	C443.317169,252.830994 448.127869,252.802811 452.937225,252.870651 
	C455.494202,252.906693 457.747223,253.811386 457.770386,256.732300 
	C457.794830,259.812347 455.392456,260.345734 452.874512,260.349274 
	C444.249390,260.361359 435.624237,260.375061 426.999176,260.355194 
	C424.480438,260.349396 422.030975,259.704193 422.128632,256.680725 
	C422.219147,253.877579 424.472626,252.901184 427.063995,252.869583 
	C430.546844,252.827103 434.030243,252.832092 438.010254,252.817978 
z"/>
<path fill="#000000" opacity="1.000000" stroke="none" 
	d="
M433.548035,239.832764 
	C441.306854,239.759995 448.624176,239.752731 455.941406,239.727783 
	C458.798431,239.718033 461.720306,240.138046 461.693024,243.671082 
	C461.664429,247.379059 458.520782,247.312592 455.788666,247.309494 
	C448.803772,247.301605 441.818848,247.274246 434.833954,247.275177 
	C432.640503,247.275467 430.774261,246.615646 430.200775,244.327652 
	C429.611389,241.976242 430.879059,240.548386 433.548035,239.832764 
z"/>
<path fill="#000000" opacity="1.000000" stroke="none" 
	d="
M320.398132,252.862061 
	C326.667511,252.862167 332.484344,252.851105 338.301056,252.873978 
	C341.155823,252.885208 344.024811,253.411682 343.897369,256.976471 
	C343.778046,260.315247 340.963043,260.415833 338.327423,260.419769 
	C332.346802,260.428711 326.366302,260.525085 320.385803,260.590271 
	C317.762909,260.618896 314.976868,260.375671 314.637573,257.189026 
	C314.251038,253.558533 317.056305,252.952362 320.398132,252.862061 
z"/>
<path fill="#000000" opacity="1.000000" stroke="none" 
	d="
M430.275391,230.658844 
	C429.852844,229.067581 430.073029,227.958847 430.926575,227.060501 
	C432.636292,225.261093 445.408691,224.935898 447.092499,226.781921 
	C449.001251,228.874588 448.783722,231.035614 446.366791,232.611954 
	C443.751862,234.317413 433.152496,233.175171 430.275391,230.658844 
z"/>
</svg>