<svg version="1.1" id="Layer_1" xmlns="http://www.w3.org/2000/svg" xmlns:xlink="http://www.w3.org/1999/xlink" x="0px" y="0px"
	 width="100%" viewBox="0 0 626 626" enable-background="new 0 0 626 626" xml:space="preserve">
<path fill="none" opacity="1.000000" stroke="#000000" stroke-linecap="round" stroke-linejoin="round" stroke-width="3.000000"
	d="
M492.000031,112.499992 
	C493.500031,119.666664 494.916473,126.852081 496.519653,133.995590 
	C498.903992,144.619659 500.044647,155.492859 502.998108,166.000534 
	C508.338043,184.998672 513.467224,204.058792 519.047852,222.985886 
	C526.940125,249.752792 535.623840,276.256775 546.473145,302.011322 
	C552.457886,316.218170 561.069641,328.909149 569.002502,341.998505 
	C577.491333,356.005249 586.193604,369.887512 594.420532,384.046173 
	C598.709900,391.428223 601.316833,399.540314 603.138550,407.970062 
	C604.277344,413.239563 599.971680,414.847870 597.943115,417.962952 
	C596.152039,420.713348 592.787842,421.179474 590.031372,422.562531 
	C581.820679,426.682312 573.542053,430.564728 564.498169,432.491302 
	C552.861084,434.970398 541.371033,438.231171 529.490479,439.403229 
	C527.837097,439.566376 526.784485,440.366425 525.499084,440.998108 
	C519.800537,443.798553 513.815918,444.895386 507.500000,444.000000 
"/>
<path fill="none" opacity="1.000000" stroke="#000000" stroke-linecap="round" stroke-linejoin="round" stroke-width="3.000000"
	d="
M434.000000,225.500000 
	C432.807983,230.222824 435.362091,234.366364 436.672424,238.444611 
	C447.556213,272.319122 455.770416,306.943817 465.765411,341.068726 
	C472.955566,365.617401 479.481506,390.384308 486.468109,415.009064 
	C488.341797,421.612976 490.597076,427.968536 493.806122,434.101440 
	C495.232880,436.828186 497.081512,440.971619 494.376221,443.885071 
	C491.519989,446.961060 487.563019,448.730835 483.000000,447.500000 
"/>
<path fill="none" opacity="1.000000" stroke="#000000" stroke-linecap="round" stroke-linejoin="round" stroke-width="2.000000"
	d="
M225.500000,266.500000 
	C232.704910,289.270508 240.252731,311.934662 246.509842,334.997345 
	C252.798447,358.176117 258.820740,381.435272 265.607178,404.468414 
	C271.250671,423.622559 277.822266,442.503601 284.010345,461.496643 
	C285.104126,464.853729 286.333313,468.166656 287.500000,471.500000 
"/>
<path fill="none" opacity="1.000000" stroke="#000000" stroke-linecap="round" stroke-linejoin="round" stroke-width="3.000000"
	d="
M322.000000,351.500000 
	C323.971222,353.014404 324.793243,354.903687 325.104279,357.487457 
	C325.863617,363.794983 329.654114,369.406982 329.622040,376.000580 
	C329.618042,376.828247 331.135712,376.974243 332.525696,376.593964 
	C342.310608,373.916931 352.149048,371.427765 362.005554,369.022736 
	C369.978210,367.077332 378.214172,365.971954 385.958038,363.374878 
	C405.674835,356.762604 425.903809,352.154602 445.976654,346.910614 
	C449.195068,346.069824 452.937469,346.306488 455.797516,343.178253 
	C449.354950,335.116119 447.411591,324.966614 444.177032,315.439880 
	C441.576843,307.781555 439.407776,299.858246 437.693634,291.957977 
	C435.434662,281.546692 431.911499,271.443817 430.137817,260.976654 
	C428.694946,252.461746 426.205475,244.283340 423.955627,236.012070 
	C423.794525,235.419891 422.999969,235.000015 422.774567,234.774597 
	C416.202881,235.874313 409.778595,236.620132 403.513641,238.059402 
	C384.642487,242.394745 365.939209,247.523285 346.971771,251.360382 
	C325.826874,255.637955 304.860992,260.506775 283.944794,265.781036 
	C271.348480,268.957306 258.483429,271.488953 245.504105,273.034454 
	C244.971939,273.097839 244.499985,273.666656 243.999985,273.999969 
"/>
<path fill="none" opacity="1.000000" stroke="#000000" stroke-linecap="round" stroke-linejoin="round" stroke-width="3.000000"
	d="
M41.500000,281.000000 
	C37.800667,281.418335 34.707565,283.326294 31.486534,284.973663 
	C28.293016,286.606995 28.874096,288.919250 30.539347,290.968018 
	C45.022068,308.786255 55.879791,329.077393 69.383018,347.585358 
	C84.730179,368.620667 100.026131,389.611877 117.372627,409.113312 
	C128.449219,421.565887 139.935013,433.560883 152.080994,444.913330 
	C157.342972,449.831512 162.490723,454.842438 168.828781,458.775879 
	C175.429642,462.872498 180.719345,469.110962 186.461319,474.540894 
	C187.823410,475.828949 189.027466,476.896545 191.000000,476.500000 
"/>
<path fill="none" opacity="1.000000" stroke="#000000" stroke-linecap="round" stroke-linejoin="round" stroke-width="4.000000"
	d="
M399.500000,170.500000 
	C401.565094,167.515625 400.519989,164.111420 400.294647,161.014938 
	C400.170288,159.306076 397.414520,158.455521 395.503693,158.564819 
	C389.950378,158.882492 384.514099,159.998398 380.026825,163.534058 
	C374.799683,167.652634 373.878876,177.210648 381.969879,182.050369 
	C388.036957,185.679504 395.155609,186.976547 400.996704,191.004761 
	C408.603363,196.250549 409.073639,206.594025 402.000000,212.500000 
	C396.569489,217.034088 384.074249,218.120636 379.000000,214.500000 
"/>
<path fill="none" opacity="1.000000" stroke="#000000" stroke-linecap="round" stroke-linejoin="round" stroke-width="3.000000"
	d="
M79.500000,233.500000 
	C73.320908,238.053162 65.821709,240.172195 59.448109,244.422180 
	C56.859718,246.148132 55.775005,247.483627 57.459118,250.522659 
	C66.964233,267.674866 74.675980,285.756042 84.904320,302.558258 
	C92.229836,314.591980 98.454468,327.290680 105.567314,339.460663 
	C111.233612,349.155701 117.519806,358.487549 123.495804,368.002625 
	C135.156998,386.569824 146.842545,405.115845 158.135254,423.918762 
	C166.788666,438.327118 176.530792,452.094269 186.120499,465.916382 
	C187.927444,468.520905 189.148163,471.358734 190.325958,474.075470 
	C192.842758,479.880737 197.476135,483.152283 202.559479,485.889526 
	C205.347794,487.391022 209.170914,487.869720 211.982071,487.701111 
	C222.160294,487.090668 232.353958,488.231018 242.504333,487.036865 
	C249.178467,486.251709 255.747498,484.840027 262.491974,484.382019 
	C269.361572,483.915558 276.146210,482.317535 283.005524,481.549377 
	C290.445007,480.716217 297.695831,479.008667 305.008392,477.541809 
	C311.802368,476.178986 318.697021,475.319183 325.493134,473.965485 
	C336.623505,471.748474 347.793182,469.794434 358.977814,467.870972 
	C370.605377,465.871307 382.361145,465.158661 393.985016,463.400879 
	C404.057129,461.877747 414.066437,459.778992 423.980652,457.418671 
	C433.240540,455.214142 442.517365,453.422119 451.992950,452.432434 
	C460.027161,451.593323 467.973755,449.900604 476.010620,449.107758 
	C480.286438,448.685974 483.666840,447.636688 485.500000,443.500000 
"/>
<path fill="none" opacity="1.000000" stroke="#000000" stroke-linecap="round" stroke-linejoin="round" stroke-width="2.000000"
	d="
M437.500000,217.000000 
	C430.817017,219.184952 423.926178,220.833450 416.990326,221.376373 
	C398.651794,222.811905 381.436951,229.300446 363.522583,232.621826 
	C349.836639,235.159225 336.327209,238.750732 322.493561,240.447449 
	C292.873535,244.080414 264.101440,251.841934 235.003128,258.014740 
	C226.815979,259.751526 218.668686,261.675812 210.497055,263.486755 
	C209.615875,263.682007 209.097031,264.097015 209.000000,265.000000 
"/>
<path fill="none" opacity="1.000000" stroke="#000000" stroke-linecap="round" stroke-linejoin="round" stroke-width="2.000000"
	d="
M310.500000,244.000015 
	C294.833344,247.500015 279.149628,250.926132 263.506714,254.529099 
	C254.802734,256.533844 246.220032,259.085663 237.485764,260.932678 
	C227.754822,262.990417 217.993240,264.761108 208.022995,265.735352 
	C198.914536,266.625366 190.013229,269.562073 180.996277,271.482513 
	C172.013275,273.395660 163.064209,275.668060 153.978439,276.831635 
	C147.431305,277.670105 140.984192,278.897247 134.546936,279.700226 
	C134.305786,281.249847 135.235672,282.503204 135.986313,282.400238 
	C141.658417,281.622070 147.580002,281.626678 152.500000,278.000000 
"/>
<path fill="none" opacity="1.000000" stroke="#000000" stroke-linecap="round" stroke-linejoin="round" stroke-width="3.000000"
	d="
M60.500000,258.000000 
	C53.891258,260.615845 47.435509,263.537689 41.247276,267.470428 
	C44.050117,272.235229 46.935612,276.782074 49.460300,281.521149 
	C52.788464,287.768463 55.874157,294.146637 58.992672,300.503601 
	C70.177917,323.304382 83.277657,344.829773 99.409134,364.574249 
	C115.606552,384.399414 130.943329,404.909912 145.584076,425.941467 
	C151.745880,434.792938 158.858902,442.980164 165.479065,451.516235 
	C166.854004,453.289062 168.799576,454.850220 168.500000,457.500000 
"/>
<path fill="none" opacity="1.000000" stroke="#000000" stroke-linecap="round" stroke-linejoin="round" stroke-width="2.000000"
	d="
M217.000000,290.000000 
	C196.500000,296.500000 176.004776,303.015167 155.494278,309.481842 
	C152.769241,310.341003 150.637558,310.443481 148.867294,307.069641 
	C145.848846,301.316956 142.000000,296.000000 138.500000,290.500000 
"/>
<path fill="none" opacity="1.000000" stroke="#000000" stroke-linecap="round" stroke-linejoin="round" stroke-width="3.000000"
	d="
M16.500000,173.500000 
	C31.845858,186.798691 48.002552,199.185806 62.013020,213.987671 
	C62.577682,214.584229 63.357647,214.970886 63.996380,215.504333 
	C74.465652,224.247925 82.595810,234.955750 90.684158,245.863449 
	C96.578835,253.812851 103.695625,260.943878 109.417610,269.058105 
	C121.066544,285.577118 132.762482,301.974792 140.834000,320.857239 
	C145.379776,331.491486 151.522812,341.681213 157.914032,351.555634 
	C163.802170,360.652832 168.064865,370.605072 172.214127,380.661652 
	C175.549057,388.744568 178.469315,396.993317 181.883148,405.049530 
	C185.324692,413.171021 189.620712,420.901917 192.825912,429.068329 
	C195.076569,434.802704 195.778748,441.105560 197.836121,447.056671 
	C201.086685,456.459106 203.504303,466.156525 207.000000,475.500000 
"/>
<path fill="none" opacity="1.000000" stroke="#000000" stroke-linecap="round" stroke-linejoin="round" stroke-width="2.000000"
	d="
M471.500000,405.500031 
	C458.500000,409.500031 445.553986,413.687805 432.484100,417.444672 
	C420.559143,420.872467 408.499878,423.832886 396.505127,427.019257 
	C396.463776,427.030243 396.500000,427.333344 396.500000,427.500000 
"/>
<path fill="none" opacity="1.000000" stroke="#000000" stroke-linecap="round" stroke-linejoin="round" stroke-width="3.000000"
	d="
M505.000000,202.000000 
	C497.396698,202.180161 490.406158,205.368362 482.998474,206.489944 
	C468.654358,208.661758 454.814362,213.613571 440.465820,215.188538 
	C431.289093,216.195801 422.379456,217.776672 413.500000,220.000000 
"/>
<path fill="none" opacity="1.000000" stroke="#000000" stroke-linecap="round" stroke-linejoin="round" stroke-width="2.000000"
	d="
M206.500000,274.500000 
	C186.316345,281.179077 165.617462,285.937164 145.003967,291.016113 
	C143.473679,291.393188 142.000000,292.000000 140.500000,292.500000 
"/>
<path fill="none" opacity="1.000000" stroke="#000000" stroke-linecap="round" stroke-linejoin="round" stroke-width="3.000000"
	d="
M481.500000,152.000000 
	C475.123535,155.560928 467.889404,156.398087 460.957855,157.790070 
	C455.495331,158.887054 449.968964,159.778961 444.481110,160.908127 
	C436.732391,162.502487 428.853302,163.463120 420.590118,164.763916 
	C419.222778,155.011124 414.327637,146.619293 411.645905,137.278427 
	C414.726562,134.886322 418.871002,135.660782 422.529663,134.602554 
	C426.398254,133.483582 430.655670,133.981308 434.487000,132.467148 
	C436.764221,131.567184 437.246033,133.674576 438.500000,134.500000 
"/>
<path fill="none" opacity="1.000000" stroke="#000000" stroke-linecap="round" stroke-linejoin="round" stroke-width="3.000000"
	d="
M135.000000,211.000000 
	C128.695251,211.694702 122.663239,213.654099 116.491653,214.960571 
	C108.530327,216.645950 100.270805,216.777618 92.350800,219.912186 
	C104.530235,236.062164 116.853645,252.403030 129.094604,268.634583 
	C133.710098,265.579590 138.929443,265.221649 143.559265,264.296661 
	C155.653152,261.880402 167.247070,257.966064 178.997971,254.493118 
	C182.030792,253.596786 185.586151,254.258469 188.000000,251.500000 
"/>
<path fill="none" opacity="1.000000" stroke="#000000" stroke-linecap="round" stroke-linejoin="round" stroke-width="3.000000"
	d="
M191.500000,249.000000 
	C186.941254,246.666611 185.668976,241.767303 183.058411,237.959946 
	C176.053833,227.744019 169.302811,217.353088 162.572098,206.953339 
	C162.145569,206.294266 160.947632,205.687607 161.769455,204.064484 
	C156.442810,205.437363 151.471405,206.718689 146.500000,208.000015 
"/>
<path fill="none" opacity="1.000000" stroke="#000000" stroke-linecap="round" stroke-linejoin="round" stroke-width="3.000000"
	d="
M440.500000,228.500000 
	C442.168213,228.831772 443.065399,229.860092 443.515900,231.495621 
	C447.997833,247.766739 453.935638,263.602142 458.027527,279.993134 
	C458.663910,282.542297 459.666656,285.000000 460.500000,287.500000 
"/>
<path fill="none" opacity="1.000000" stroke="#000000" stroke-linecap="round" stroke-linejoin="round" stroke-width="2.000000"
	d="
M456.500000,372.500000 
	C446.879395,373.927521 437.752014,377.226868 428.518402,380.059998 
	C419.609009,382.793579 410.745392,385.613220 401.500000,387.000000 
"/>
<path fill="none" opacity="1.000000" stroke="#000000" stroke-linecap="round" stroke-linejoin="round" stroke-width="2.000000"
	d="
M328.500000,377.000000 
	C313.595520,380.128021 299.095184,384.735962 284.485870,388.951050 
	C282.916321,389.403931 281.049347,389.447784 279.511719,389.337189 
	C276.696198,389.134674 276.437714,390.437714 276.500000,392.500000 
"/>
<path fill="none" opacity="1.000000" stroke="#000000" stroke-linecap="round" stroke-linejoin="round" stroke-width="6.000000"
	d="
M294.000000,175.500000 
	C292.938538,177.732468 293.762848,179.516449 294.948029,181.530579 
	C302.263062,193.962189 311.388184,205.129547 319.598145,216.931732 
	C321.543396,219.728088 322.508698,223.599487 326.450378,224.900330 
	C326.822388,225.023102 326.500000,227.250000 326.500000,228.500000 
"/>
<path fill="none" opacity="1.000000" stroke="#000000" stroke-linecap="round" stroke-linejoin="round" stroke-width="3.000000"
	d="
M195.000000,433.000000 
	C199.988358,439.581055 202.052063,447.490967 205.003174,454.998749 
	C206.717133,459.359192 207.459534,463.965576 208.608917,468.472229 
	C209.859070,473.374023 206.870468,478.234344 209.000000,483.000000 
"/>
<path fill="none" opacity="1.000000" stroke="#000000" stroke-linecap="round" stroke-linejoin="round" stroke-width="5.000000"
	d="
M366.500000,164.000000 
	C363.362335,163.865555 362.274231,165.188660 361.323975,168.448685 
	C357.544220,181.415802 357.535309,195.022827 354.073059,208.019455 
	C353.323212,210.834244 352.509033,213.524216 351.000000,216.000000 
"/>
<path fill="none" opacity="1.000000" stroke="#000000" stroke-linecap="round" stroke-linejoin="round" stroke-width="3.000000"
	d="
M114.000000,178.000000 
	C96.985840,179.282440 80.478981,183.980667 63.065228,185.063156 
	C64.795708,188.870956 67.916336,190.419312 70.501900,192.497635 
	C76.416115,197.251556 81.973183,202.372040 86.480721,208.514145 
	C88.662071,211.486526 91.017982,211.944199 94.538429,210.600693 
	C100.689613,208.253174 107.408012,207.667084 113.500000,205.000000 
"/>
<path fill="none" opacity="1.000000" stroke="#000000" stroke-linecap="round" stroke-linejoin="round" stroke-width="2.000000"
	d="
M227.500000,386.500000 
	C232.777695,388.552887 237.986084,387.597992 241.458893,383.465454 
	C245.260452,378.941742 244.988464,375.811920 242.672134,370.918518 
	C240.616791,366.576447 237.861420,366.000000 234.006973,367.026215 
	C229.984879,368.097107 226.716995,370.168152 225.500000,374.500000 
"/>
<path fill="none" opacity="1.000000" stroke="#000000" stroke-linecap="round" stroke-linejoin="round" stroke-width="4.000000"
	d="
M229.999985,188.000000 
	C233.499985,199.833344 237.071869,211.646194 240.453339,223.513290 
	C241.389664,226.799194 242.885101,230.302582 240.000000,233.500000 
"/>
<path fill="none" opacity="1.000000" stroke="#000000" stroke-linecap="round" stroke-linejoin="round" stroke-width="3.000000"
	d="
M512.000000,269.000000 
	C507.582764,271.164337 502.777374,271.867462 497.994629,272.456299 
	C491.407288,273.267365 486.162964,277.996826 479.502014,278.525208 
	C477.322632,278.698120 475.177002,279.324524 472.997864,279.467407 
	C468.322906,279.774048 464.530945,282.808929 460.000000,283.500000 
"/>
<path fill="none" opacity="1.000000" stroke="#000000" stroke-linecap="round" stroke-linejoin="round" stroke-width="2.000000"
	d="
M448.500000,427.500000 
	C434.799652,430.695251 421.482147,435.460114 407.500000,437.500000 
"/>
<path fill="none" opacity="1.000000" stroke="#000000" stroke-linecap="round" stroke-linejoin="round" stroke-width="3.000000"
	d="
M363.500000,326.500000 
	C350.466125,332.475220 338.160126,340.141510 324.000244,343.501038 
	C323.331696,343.659668 322.553497,344.146698 322.016968,343.952972 
	C314.005127,341.059906 305.331604,340.506073 297.500000,337.000000 
"/>
<path fill="none" opacity="1.000000" stroke="#000000" stroke-linecap="round" stroke-linejoin="round" stroke-width="2.000000"
	d="
M337.500000,316.500000 
	C337.324310,314.026398 337.783966,311.739105 335.658081,309.358795 
	C333.175171,306.578766 335.490051,302.990173 337.146362,300.601471 
	C339.883759,296.653625 343.817230,294.041107 348.990356,293.419708 
	C354.576752,292.748657 360.107086,291.498901 364.541229,287.533600 
	C361.458466,285.054626 358.107819,285.498474 354.486420,285.866455 
	C350.563843,286.265015 347.047882,288.340576 342.995483,288.066681 
	C340.871979,287.923126 340.140778,290.079254 338.980621,291.483978 
	C334.920868,296.399567 331.183105,301.622406 326.000000,305.500000 
"/>
<path fill="none" opacity="1.000000" stroke="#000000" stroke-linecap="round" stroke-linejoin="round" stroke-width="2.000000"
	d="
M203.000000,324.000000 
	C204.388290,320.973602 205.072006,317.835938 204.983109,313.817871 
	C195.236923,317.015900 185.948441,319.588409 177.074875,323.184753 
	C172.910873,324.872345 168.007004,324.684174 164.500000,328.000000 
"/>
<path fill="none" opacity="1.000000" stroke="#000000" stroke-linecap="round" stroke-linejoin="round" stroke-width="3.000000"
	d="
M383.000000,275.000000 
	C372.757874,275.483856 362.706818,273.140869 352.502197,272.904724 
	C349.987427,272.846527 347.500000,274.385010 345.000000,273.000000 
"/>
<path fill="none" opacity="1.000000" stroke="#000000" stroke-linecap="round" stroke-linejoin="round" stroke-width="3.000000"
	d="
M423.500000,274.500000 
	C413.840332,275.036560 404.261810,277.925781 394.034180,274.671021 
	C395.248657,285.507050 397.622070,295.380676 396.984192,305.498993 
	C396.897614,306.872589 397.644012,308.494324 396.000000,309.500000 
"/>
<path fill="none" opacity="1.000000" stroke="#000000" stroke-linecap="round" stroke-linejoin="round" stroke-width="5.000000"
	d="
M205.000000,206.000000 
	C201.298737,211.420120 204.959915,216.187164 206.579391,220.973129 
	C209.197464,228.710159 213.226822,235.941544 215.000000,244.000000 
"/>
<path fill="none" opacity="1.000000" stroke="#000000" stroke-linecap="round" stroke-linejoin="round" stroke-width="2.000000"
	d="
M326.000000,160.000015 
	C328.000000,157.666672 329.879761,155.213928 332.039490,153.039230 
	C333.656677,151.410828 335.608856,149.986465 338.062469,151.898453 
	C336.454590,155.606094 331.003601,156.868835 332.000000,162.000000 
	C327.686188,162.587250 323.506042,164.911911 318.075165,163.280838 
	C320.748627,159.825531 322.954376,156.974716 325.675964,153.457214 
	C319.641541,153.180374 314.487793,153.947037 309.500000,156.000000 
"/>
<path fill="none" opacity="1.000000" stroke="#000000" stroke-linecap="round" stroke-linejoin="round" stroke-width="2.000000"
	d="
M212.000000,314.500000 
	C211.326645,319.526672 208.765930,324.238770 209.056396,330.319794 
	C216.667252,327.668427 224.179703,326.872467 230.500000,322.500000 
"/>
<path fill="none" opacity="1.000000" stroke="#000000" stroke-linecap="round" stroke-linejoin="round" stroke-width="9.000000"
	d="
M401.500000,149.500000 
	C400.366058,148.986908 399.457581,148.234909 400.530548,147.027145 
	C401.747864,145.656891 400.084747,145.013657 399.984619,144.001389 
	C395.297333,144.433014 390.786621,145.288925 386.944489,148.432129 
	C385.982361,149.219238 384.330658,149.156326 383.000519,149.501968 
	C379.207916,150.487442 374.988770,150.131134 371.911682,153.417313 
	C371.366669,153.999374 369.666656,153.500000 368.500000,153.500000 
"/>
<path fill="none" opacity="1.000000" stroke="#000000" stroke-linecap="round" stroke-linejoin="round" stroke-width="2.000000"
	d="
M315.500000,394.000000 
	C306.065735,396.182312 297.435669,400.821930 287.707306,402.433167 
	C291.248108,415.356537 294.624054,427.678284 298.000000,440.000000 
"/>
<path fill="none" opacity="1.000000" stroke="#000000" stroke-linecap="round" stroke-linejoin="round" stroke-width="3.000000"
	d="
M489.500000,290.500000 
	C492.046143,294.651276 491.821777,299.680237 493.796997,304.090912 
	C494.555298,305.784210 492.448669,307.799042 490.018097,308.558014 
	C485.591797,309.940186 481.274933,311.672760 476.889465,313.267487 
	C473.293762,305.702576 479.124176,291.339661 489.000000,290.000000 
"/>
<path fill="none" opacity="1.000000" stroke="#000000" stroke-linecap="round" stroke-linejoin="round" stroke-width="2.000000"
	d="
M383.000000,271.000000 
	C385.663544,279.034851 388.486084,287.018494 389.518097,295.497803 
	C390.500366,303.568604 390.566223,303.560577 383.000000,306.000000 
"/>
<path fill="none" opacity="1.000000" stroke="#000000" stroke-linecap="round" stroke-linejoin="round" stroke-width="8.000000"
	d="
M199.750000,194.000000 
	C198.638428,199.139709 202.241150,203.279968 205.192551,205.204742 
	C215.765839,212.100159 223.769836,221.765945 233.424088,229.593628 
	C237.512268,232.908340 242.688629,235.242188 245.000000,240.500000 
"/>
<path fill="none" opacity="1.000000" stroke="#000000" stroke-linecap="round" stroke-linejoin="round" stroke-width="2.000000"
	d="
M567.500000,390.000000 
	C559.088745,391.432983 551.547729,395.492310 543.474426,397.914673 
	C540.633057,398.767212 537.701965,400.484222 534.500000,399.000000 
"/>
<path fill="none" opacity="1.000000" stroke="#000000" stroke-linecap="round" stroke-linejoin="round" stroke-width="3.000000"
	d="
M251.000000,301.500000 
	C252.833328,306.833344 254.729004,312.146240 256.484344,317.505127 
	C258.715698,324.317261 261.148438,331.085938 262.924316,338.019379 
	C265.430939,347.805969 268.365692,357.492096 270.044464,367.492523 
	C271.142242,374.032074 272.575500,380.521179 274.077026,386.982086 
	C274.376953,388.272705 275.666656,389.333344 276.500000,390.500000 
"/>
<path fill="none" opacity="1.000000" stroke="#000000" stroke-linecap="round" stroke-linejoin="round" stroke-width="3.000000"
	d="
M299.500000,346.000000 
	C299.940857,355.606842 302.786835,364.741150 304.996735,374.000763 
	C305.353424,375.495209 305.666687,377.000000 306.000000,378.500000 
"/>
<path fill="none" opacity="1.000000" stroke="#000000" stroke-linecap="round" stroke-linejoin="round" stroke-width="2.000000"
	d="
M128.000000,176.000000 
	C125.932777,185.468933 121.368057,194.012863 118.028900,203.223465 
	C121.205681,205.185837 122.547493,203.098785 123.482788,200.493820 
	C126.528740,192.010315 129.500000,183.500000 132.500000,175.000000 
"/>
<path fill="none" opacity="1.000000" stroke="#000000" stroke-linecap="round" stroke-linejoin="round" stroke-width="2.000000"
	d="
M319.500000,392.500000 
	C322.870239,404.812561 326.525085,417.035461 331.000000,429.000000 
"/>
<path fill="none" opacity="1.000000" stroke="#000000" stroke-linecap="round" stroke-linejoin="round" stroke-width="2.000000"
	d="
M236.500000,408.500000 
	C237.306564,413.968628 242.481445,417.793579 248.000000,417.000031 
	C253.413055,416.221649 257.939728,409.931061 257.007233,404.498749 
	C256.951630,404.174957 257.095947,403.796844 256.985168,403.505646 
	C255.847458,400.514282 255.879868,396.208252 251.977127,395.664001 
	C247.389816,395.024292 242.231812,394.770386 239.601608,400.050598 
	C239.117264,401.022949 237.950928,402.081207 238.500000,403.500000 
"/>
<path fill="none" opacity="1.000000" stroke="#000000" stroke-linecap="round" stroke-linejoin="round" stroke-width="3.000000"
	d="
M323.500000,309.000000 
	C320.049103,305.921570 321.116211,302.124634 322.040985,298.510498 
	C323.606323,292.393127 325.368774,286.580505 331.930878,283.359222 
	C336.575714,281.079102 341.325439,278.472076 344.648529,274.158325 
	C343.992432,272.189423 342.179413,272.735687 341.550507,273.089752 
	C335.300476,276.608307 329.017181,280.107025 323.037598,284.056915 
	C315.447937,289.070374 310.827179,302.937805 314.000000,310.000000 
	C318.113892,306.888794 319.505157,302.714966 318.000000,298.000000 
"/>
<path fill="none" opacity="1.000000" stroke="#000000" stroke-linecap="round" stroke-linejoin="round" stroke-width="2.000000"
	d="
M123.500000,177.000000 
	C121.537537,185.389084 117.992752,193.181122 114.586136,201.037354 
	C114.199890,201.928101 113.088928,203.354996 114.505470,204.493195 
	C115.654633,205.416534 116.544899,204.436050 117.500000,204.000000 
"/>
<path fill="none" opacity="1.000000" stroke="#000000" stroke-linecap="round" stroke-linejoin="round" stroke-width="3.000000"
	d="
M396.000000,313.500000 
	C395.812836,312.291565 396.666931,310.785645 395.257294,310.262390 
	C393.140991,308.717834 391.814545,310.920624 390.614899,311.333710 
	C384.561005,313.418274 384.695129,313.811127 383.001526,307.499573 
	C382.823486,306.835999 382.794525,306.092987 382.464630,305.520386 
	C382.123749,304.928680 381.500031,304.499969 380.763458,303.763397 
	C378.794556,305.972748 375.871704,305.287903 373.497711,305.317688 
	C365.768433,305.414673 359.179688,309.217041 352.003143,311.012573 
	C349.664185,311.597748 343.553314,309.267914 341.952240,307.544373 
	C339.730774,305.152954 341.331116,303.134766 342.608856,301.590027 
	C343.833466,300.109467 345.660400,298.719543 348.441620,299.056396 
	C349.038971,301.780090 349.671326,304.663147 350.344971,307.734680 
	C349.751190,308.634735 347.825195,308.356873 347.500000,310.000000 
"/>
<path fill="none" opacity="1.000000" stroke="#000000" stroke-linecap="round" stroke-linejoin="round" stroke-width="2.000000"
	d="
M162.750000,329.000000 
	C161.334412,335.085663 166.290710,339.478760 166.280792,345.389313 
	C171.741760,342.995056 177.418137,343.003143 181.000000,338.500000 
	C188.265457,339.818604 193.905350,334.767883 200.512268,333.567566 
	C202.282837,333.245850 203.582031,332.351257 205.000000,331.500000 
"/>
<path fill="none" opacity="1.000000" stroke="#000000" stroke-linecap="round" stroke-linejoin="round" stroke-width="2.000000"
	d="
M177.500000,247.500000 
	C175.293213,250.275192 171.935104,249.816086 168.996429,250.484314 
	C162.136246,252.044250 155.680527,255.256821 148.500000,255.500000 
"/>
<path fill="none" opacity="1.000000" stroke="#000000" stroke-linecap="round" stroke-linejoin="round" stroke-width="2.000000"
	d="
M399.000000,277.000000 
	C398.418152,284.872284 399.770782,292.670135 400.234924,300.486053 
	C400.416138,303.537781 398.700531,307.971954 402.112305,309.789185 
	C404.782623,311.211487 407.972107,308.451294 411.006561,308.049652 
	C416.149323,307.368988 421.333344,307.000000 426.500000,306.500000 
"/>
<path fill="none" opacity="1.000000" stroke="#000000" stroke-linecap="round" stroke-linejoin="round" stroke-width="2.000000"
	d="
M445.500000,137.000000 
	C446.385376,142.808334 448.167603,148.514175 447.279999,154.992493 
	C455.227478,153.112579 462.863739,151.306290 470.500000,149.500000 
"/>
<path fill="none" opacity="1.000000" stroke="#000000" stroke-linecap="round" stroke-linejoin="round" stroke-width="3.000000"
	d="
M181.500000,375.500000 
	C181.606796,372.852112 184.925110,372.773407 185.598495,370.114044 
	C182.382263,366.682556 182.796234,361.235077 179.619965,357.405334 
	C175.578918,360.594482 176.139069,363.955292 182.000000,372.500000 
"/>
<path fill="none" opacity="1.000000" stroke="#000000" stroke-linecap="round" stroke-linejoin="round" stroke-width="2.000000"
	d="
M299.500000,159.500000 
	C296.106232,160.936523 295.467072,164.760345 292.651245,166.908615 
	C299.563934,168.720001 303.625732,166.181381 309.544952,156.069016 
	C300.665649,156.630493 292.591919,158.389633 284.500000,160.000000 
"/>
<path fill="none" opacity="1.000000" stroke="#000000" stroke-linecap="round" stroke-linejoin="round" stroke-width="2.000000"
	d="
M486.500000,239.500000 
	C489.160553,249.988434 494.231079,259.738312 496.000000,270.500000 
"/>
<path fill="none" opacity="1.000000" stroke="#000000" stroke-linecap="round" stroke-linejoin="round" stroke-width="5.000000"
	d="
M321.000000,175.250000 
	C327.997955,183.414124 333.293915,192.778091 339.447632,201.536789 
	C343.423950,207.196320 347.347595,212.867981 352.000000,218.000000 
"/>
<path fill="none" opacity="1.000000" stroke="#000000" stroke-linecap="round" stroke-linejoin="round" stroke-width="2.000000"
	d="
M449.500000,439.500000 
	C443.504028,441.016113 437.399506,441.843994 431.396149,443.655914 
	C425.367157,445.475586 418.802216,446.170746 412.502472,447.511566 
	C406.490997,448.791077 400.465942,450.036469 394.523865,451.591156 
	C393.031097,451.981750 391.833344,453.500000 390.500000,454.500000 
"/>
<path fill="none" opacity="1.000000" stroke="#000000" stroke-linecap="round" stroke-linejoin="round" stroke-width="2.000000"
	d="
M119.000000,178.000000 
	C117.102295,185.308502 114.864830,192.496750 112.102303,199.540131 
	C111.417831,201.285263 109.915398,203.354065 111.500000,205.500000 
"/>
<path fill="none" opacity="1.000000" stroke="#000000" stroke-linecap="round" stroke-linejoin="round" stroke-width="3.000000"
	d="
M516.000000,317.000000 
	C517.484802,313.326843 516.984619,309.842743 514.863892,306.271851 
	C511.286957,307.334717 507.680603,308.576447 503.985626,309.438324 
	C501.879547,309.929596 500.436829,310.745300 501.056122,312.984467 
	C501.832764,315.792328 502.013763,318.685181 502.618073,321.474426 
	C503.607880,326.042816 504.920349,326.068146 509.546143,324.108917 
	C512.589294,322.820007 514.269226,320.769257 515.500000,318.000000 
"/>
<path fill="none" opacity="1.000000" stroke="#000000" stroke-linecap="round" stroke-linejoin="round" stroke-width="2.000000"
	d="
M484.000000,224.250000 
	C483.182129,224.855408 481.445007,224.899887 481.583191,225.989456 
	C482.205872,230.899857 478.311401,233.521530 475.838776,236.359512 
	C470.569519,242.407211 465.039703,248.236954 459.955017,254.463257 
	C459.458282,255.071487 458.333344,255.166672 457.500000,255.500000 
"/>
<path fill="none" opacity="1.000000" stroke="#000000" stroke-linecap="round" stroke-linejoin="round" stroke-width="4.000000"
	d="
M492.500000,241.000000 
	C494.782684,248.424622 496.997955,255.857895 498.657715,263.465576 
	C499.000397,265.036133 498.023651,266.166656 498.500000,267.500000 
"/>
<path fill="none" opacity="1.000000" stroke="#000000" stroke-linecap="round" stroke-linejoin="round" stroke-width="2.000000"
	d="
M197.500000,402.000000 
	C199.355835,401.855835 200.638474,400.088531 200.355026,399.039154 
	C199.207947,394.792358 203.475189,391.179749 201.491898,387.003845 
	C200.213974,384.313110 194.630280,382.605072 191.514328,384.031311 
	C190.096603,384.680267 188.833328,385.666656 187.500000,386.500000 
"/>
<path fill="none" opacity="1.000000" stroke="#000000" stroke-linecap="round" stroke-linejoin="round" stroke-width="2.000000"
	d="
M327.500000,431.500000 
	C325.284424,434.250336 321.828186,433.511078 318.978577,434.433899 
	C313.406494,436.238312 307.709869,437.658325 301.332245,439.442444 
	C301.769379,436.833344 300.978058,434.666656 302.000000,432.500000 
"/>
<path fill="none" opacity="1.000000" stroke="#000000" stroke-linecap="round" stroke-linejoin="round" stroke-width="2.000000"
	d="
M162.500000,230.500000 
	C155.476318,233.635376 147.805908,234.398178 140.495972,236.485870 
	C137.854355,237.240295 135.166656,237.833313 132.500000,238.499985 
"/>
<path fill="none" opacity="1.000000" stroke="#000000" stroke-linecap="round" stroke-linejoin="round" stroke-width="2.000000"
	d="
M110.500008,179.000000 
	C108.166679,187.333344 105.835648,195.667328 103.486061,203.996063 
	C103.430222,204.194000 103.130302,204.496521 103.006905,204.469025 
	C102.653961,204.390381 102.333336,204.166656 102.000000,204.000000 
"/>
<path fill="none" opacity="1.000000" stroke="#000000" stroke-linecap="round" stroke-linejoin="round" stroke-width="2.000000"
	d="
M171.500000,238.500000 
	C165.238312,242.469559 157.800842,242.726501 150.976425,244.926895 
	C144.251129,247.095306 137.333328,248.666672 130.500000,250.500000 
"/>
<path fill="none" opacity="1.000000" stroke="#000000" stroke-linecap="round" stroke-linejoin="round" stroke-width="7.000000"
	d="
M250.500000,184.000000 
	C257.919861,183.292801 258.723846,188.116440 260.214050,193.945282 
	C263.927734,208.471252 268.173492,222.866013 271.500000,237.500000 
"/>
<path fill="none" opacity="1.000000" stroke="#000000" stroke-linecap="round" stroke-linejoin="round" stroke-width="3.000000"
	d="
M367.500000,336.500000 
	C371.788513,344.640259 373.014740,353.605011 374.500000,362.500000 
"/>
<path fill="none" opacity="1.000000" stroke="#000000" stroke-linecap="round" stroke-linejoin="round" stroke-width="3.000000"
	d="
M515.000000,296.500000 
	C514.656860,292.907196 512.408508,290.931702 509.581757,288.886993 
	C505.622559,286.023254 503.628540,290.771332 500.589325,290.464661 
	C499.957733,294.482574 498.288849,298.371307 499.291321,302.481445 
	C502.424530,302.760010 502.424530,302.760010 506.500000,301.000000 
"/>
<path fill="none" opacity="1.000000" stroke="#000000" stroke-linecap="round" stroke-linejoin="round" stroke-width="2.000000"
	d="
M137.999985,174.000000 
	C134.999985,181.833328 131.982056,189.659927 129.032639,197.512268 
	C128.785767,198.169540 129.000000,199.000000 129.000000,199.724762 
	C132.553986,201.441299 134.387909,201.111862 135.686844,196.553238 
	C137.832260,189.023895 141.166672,181.833328 144.000000,174.500000 
"/>
<path fill="none" opacity="1.000000" stroke="#000000" stroke-linecap="round" stroke-linejoin="round" stroke-width="2.000000"
	d="
M496.000000,238.500000 
	C499.058441,245.914642 500.948914,253.657196 502.531372,261.493652 
	C502.748199,262.567444 502.898621,263.800690 504.000000,264.500000 
"/>
<path fill="none" opacity="1.000000" stroke="#000000" stroke-linecap="round" stroke-linejoin="round" stroke-width="2.000000"
	d="
M162.500000,196.000000 
	C158.757599,193.739212 156.795456,189.953827 154.534088,186.477829 
	C151.795135,182.267746 149.300232,177.915970 145.520126,174.477859 
	C143.719604,172.840225 142.104889,172.284470 139.472763,172.879532 
	C132.050690,174.557526 124.526237,175.855026 116.986801,176.905258 
	C114.060112,177.312958 114.616486,179.619110 114.106140,181.038177 
	C111.860245,187.283066 110.083076,193.694962 107.941803,199.980179 
	C107.403412,201.560501 107.879669,203.859070 105.500000,204.500000 
"/>
<path fill="none" opacity="1.000000" stroke="#000000" stroke-linecap="round" stroke-linejoin="round" stroke-width="3.000000"
	d="
M324.000000,294.000000 
	C326.992889,294.987427 326.727356,296.520966 326.209747,299.536011 
	C324.139099,311.598663 317.803650,322.813660 319.216766,335.963654 
	C324.946503,336.438324 330.275696,333.969788 335.425354,331.821136 
	C338.912933,330.365936 342.352722,328.912659 346.007355,328.030457 
	C348.751465,327.368042 350.574158,326.205627 350.003510,322.999359 
	C349.335449,319.245667 351.264679,315.721039 351.000000,312.000000 
"/>
<path fill="none" opacity="1.000000" stroke="#000000" stroke-linecap="round" stroke-linejoin="round" stroke-width="2.000000"
	d="
M459.500000,395.500000 
	C451.289825,398.273163 442.931946,400.518799 434.500000,402.500000 
"/>
<path fill="none" opacity="1.000000" stroke="#000000" stroke-linecap="round" stroke-linejoin="round" stroke-width="2.000000"
	d="
M226.000000,341.500000 
	C223.833344,347.666656 221.694946,353.843506 219.484039,359.994263 
	C218.752045,362.030670 217.833344,364.000000 217.000000,366.000000 
"/>
<path fill="none" opacity="1.000000" stroke="#000000" stroke-linecap="round" stroke-linejoin="round" stroke-width="2.000000"
	d="
M369.500000,155.000000 
	C361.754883,157.859451 353.587036,158.464249 345.500000,159.500000 
"/>
<path fill="none" opacity="1.000000" stroke="#000000" stroke-linecap="round" stroke-linejoin="round" stroke-width="2.000000"
	d="
M259.500000,166.000000 
	C251.376160,163.684113 244.954437,167.409882 241.623672,174.557632 
	C241.051468,175.785599 239.950150,175.616806 239.500000,176.500000 
"/>
<path fill="none" opacity="1.000000" stroke="#000000" stroke-linecap="round" stroke-linejoin="round" stroke-width="2.000000"
	d="
M154.500000,226.500000 
	C154.256927,225.344254 155.024292,224.044144 153.969559,222.914703 
	C145.243576,226.488739 136.035629,228.453568 126.745712,230.817444 
	C126.083199,230.316696 126.662529,229.334167 126.500000,228.500000 
"/>
<path fill="none" opacity="1.000000" stroke="#000000" stroke-linecap="round" stroke-linejoin="round" stroke-width="2.000000"
	d="
M104.500000,181.500000 
	C103.333336,188.333328 102.258598,195.184265 100.955803,201.991547 
	C100.417137,204.806183 97.367844,205.705948 93.500000,204.500000 
"/>
<path fill="none" opacity="1.000000" stroke="#000000" stroke-linecap="round" stroke-linejoin="round" stroke-width="3.000000"
	d="
M213.500000,429.500000 
	C214.894562,430.615570 216.503525,429.790466 218.001724,429.986877 
	C221.052917,430.386871 223.315094,433.371582 221.893372,435.941010 
	C220.365509,438.702240 218.063431,441.057098 215.925125,443.432587 
	C215.635910,443.753876 214.277664,443.832031 213.472809,443.027191 
	C212.667938,442.222321 212.762894,441.113678 213.073456,440.539764 
	C214.148132,438.553772 217.173309,437.929077 217.028305,435.089661 
	C216.169388,433.490479 214.574631,433.694977 213.527451,434.075531 
	C209.670975,435.476959 207.251862,433.369293 206.145142,430.445068 
	C204.878143,427.097321 208.995346,426.829285 210.515823,425.013245 
	C210.735168,424.751221 211.166809,424.666962 211.547546,424.476807 
	C211.454742,422.562195 209.989944,421.412994 209.009979,419.959320 
	C206.983871,419.904297 206.500458,422.567474 204.432571,422.410156 
	C200.609787,417.316254 201.100220,415.845001 207.000015,415.000061 
	C213.749695,414.033356 215.650818,415.732086 216.012833,422.999359 
	C216.054886,423.843414 215.637924,424.805756 216.464233,425.528931 
	C215.092468,426.622589 213.173691,427.297821 213.000000,429.500000 
"/>
<path fill="none" opacity="1.000000" stroke="#000000" stroke-linecap="round" stroke-linejoin="round" stroke-width="2.000000"
	d="
M371.500000,420.500000 
	C363.592346,420.447662 356.342285,424.176422 348.500000,424.500000 
"/>
<path fill="none" opacity="1.000000" stroke="#000000" stroke-linecap="round" stroke-linejoin="round" stroke-width="2.000000"
	d="
M315.000000,294.000000 
	C309.550446,296.824738 305.881531,301.156189 303.701996,306.752472 
	C306.666656,309.695221 309.333344,308.439270 312.000000,307.000000 
"/>
<path fill="none" opacity="1.000000" stroke="#000000" stroke-linecap="round" stroke-linejoin="round" stroke-width="2.000000"
	d="
M499.500000,335.500000 
	C498.166656,343.166656 496.833313,350.833344 495.500000,358.500000 
"/>
<path fill="none" opacity="1.000000" stroke="#000000" stroke-linecap="round" stroke-linejoin="round" stroke-width="2.000000"
	d="
M461.500000,382.500000 
	C453.752686,382.982025 446.875519,386.654633 439.500000,388.500000 
"/>
<path fill="none" opacity="1.000000" stroke="#000000" stroke-linecap="round" stroke-linejoin="round" stroke-width="2.000000"
	d="
M128.500000,298.500000 
	C123.679253,302.298218 118.481689,305.349976 112.507469,307.026611 
	C108.240402,308.224182 104.144745,309.891571 100.500000,312.500000 
"/>
<path fill="none" opacity="1.000000" stroke="#000000" stroke-linecap="round" stroke-linejoin="round" stroke-width="2.000000"
	d="
M479.500000,196.500015 
	C472.166656,197.833344 464.833344,199.166672 457.500000,200.500015 
"/>
<path fill="none" opacity="1.000000" stroke="#000000" stroke-linecap="round" stroke-linejoin="round" stroke-width="2.000000"
	d="
M358.500000,410.500000 
	C351.384766,413.066254 344.114227,414.873230 336.500000,415.000000 
"/>
<path fill="none" opacity="1.000000" stroke="#000000" stroke-linecap="round" stroke-linejoin="round" stroke-width="3.000000"
	d="
M528.500000,316.000000 
	C529.284790,318.613281 532.573669,320.757019 530.017517,324.195251 
	C523.082031,319.454773 514.854675,318.010803 507.500000,314.500000 
"/>
<path fill="none" opacity="1.000000" stroke="#000000" stroke-linecap="round" stroke-linejoin="round" stroke-width="2.000000"
	d="
M483.000000,175.000000 
	C475.809723,176.387222 468.863953,178.942612 461.500000,179.500000 
"/>
<path fill="none" opacity="1.000000" stroke="#000000" stroke-linecap="round" stroke-linejoin="round" stroke-width="3.000000"
	d="
M293.500000,222.500000 
	C291.442566,225.783722 293.525574,228.884796 294.112854,231.978577 
	C294.389679,233.436859 294.731384,234.666672 293.876892,236.349884 
	C288.525208,236.245544 283.331757,238.013718 277.982635,238.894653 
	C276.270630,239.176605 274.043762,239.925919 272.500000,238.000000 
"/>
<path fill="none" opacity="1.000000" stroke="#000000" stroke-linecap="round" stroke-linejoin="round" stroke-width="3.000000"
	d="
M501.500000,327.500000 
	C500.872589,327.088165 499.802795,328.376526 499.413300,326.518188 
	C498.310699,321.258087 496.799591,316.083649 495.398926,310.680817 
	C489.861938,312.654846 484.530273,313.825684 479.889801,316.676025 
	C483.420715,327.057343 489.953217,330.941559 498.500000,328.000000 
"/>
<path fill="none" opacity="1.000000" stroke="#000000" stroke-linecap="round" stroke-linejoin="round" stroke-width="2.000000"
	d="
M149.000000,179.000000 
	C143.851059,182.042023 143.653473,188.189346 140.577209,192.554413 
	C139.280426,194.394470 138.833328,196.833328 138.000000,199.000000 
"/>
<path fill="none" opacity="1.000000" stroke="#000000" stroke-linecap="round" stroke-linejoin="round" stroke-width="6.000000"
	d="
M284.000000,190.500000 
	C281.875854,181.125336 281.767975,180.642303 272.545166,182.702179 
	C267.878265,183.744507 262.388702,181.721451 258.500000,186.000000 
"/>
<path fill="none" opacity="1.000000" stroke="#000000" stroke-linecap="round" stroke-linejoin="round" stroke-width="3.000000"
	d="
M297.500000,335.500000 
	C294.719604,338.221680 294.355530,341.452057 295.582214,345.275909 
	C304.228302,345.647583 312.115173,349.531342 320.500000,351.500000 
"/>
<path fill="none" opacity="1.000000" stroke="#000000" stroke-linecap="round" stroke-linejoin="round" stroke-width="3.000000"
	d="
M512.000000,409.500000 
	C514.020325,408.610687 515.797302,407.667236 516.055359,405.005371 
	C516.334717,402.124329 514.143982,402.174347 512.497375,401.506409 
	C510.433716,400.669312 512.088623,397.802643 509.888702,396.977936 
	C508.364075,396.712769 508.018188,398.360596 507.000000,399.000000 
"/>
<path fill="none" opacity="1.000000" stroke="#000000" stroke-linecap="round" stroke-linejoin="round" stroke-width="4.000000"
	d="
M339.000000,203.500000 
	C335.326233,208.205780 332.660004,213.456635 330.466522,218.986725 
	C329.893280,220.431931 329.413544,222.029297 328.000000,223.000000 
"/>
<path fill="none" opacity="1.000000" stroke="#000000" stroke-linecap="round" stroke-linejoin="round" stroke-width="2.000000"
	d="
M474.500000,137.500000 
	C468.166656,138.500000 461.833344,139.500000 455.500000,140.500000 
"/>
<path fill="none" opacity="1.000000" stroke="#000000" stroke-linecap="round" stroke-linejoin="round" stroke-width="2.000000"
	d="
M165.000000,370.000000 
	C164.012466,371.807373 163.925323,373.814178 161.065781,374.709961 
	C157.459778,375.839600 154.334595,378.502136 150.999573,380.499298 
	C148.691605,381.881439 146.288849,382.916504 143.500000,382.500000 
"/>
<path fill="none" opacity="1.000000" stroke="#000000" stroke-linecap="round" stroke-linejoin="round" stroke-width="2.000000"
	d="
M482.500000,182.500000 
	C476.166656,184.166672 469.833344,185.833344 463.500000,187.500000 
"/>
<path fill="none" opacity="1.000000" stroke="#000000" stroke-linecap="round" stroke-linejoin="round" stroke-width="2.000000"
	d="
M423.500000,327.500000 
	C417.799408,331.503632 410.774506,331.313690 404.500000,333.500000 
"/>
<path fill="none" opacity="1.000000" stroke="#000000" stroke-linecap="round" stroke-linejoin="round" stroke-width="2.000000"
	d="
M316.500000,327.500000 
	C312.413849,330.349121 307.506104,331.200500 302.957855,332.886322 
	C301.370453,333.474701 299.917969,334.148743 298.500000,335.000000 
"/>
<path fill="none" opacity="1.000000" stroke="#000000" stroke-linecap="round" stroke-linejoin="round" stroke-width="2.000000"
	d="
M263.500000,438.500000 
	C257.999664,442.118225 251.663269,443.586517 245.500000,445.500000 
"/>
<path fill="none" opacity="1.000000" stroke="#000000" stroke-linecap="round" stroke-linejoin="round" stroke-width="2.000000"
	d="
M236.500000,449.500000 
	C232.332520,450.161560 228.296494,451.432495 224.006851,451.641022 
	C222.132736,451.732117 220.333328,452.100250 218.500000,451.500000 
"/>
<path fill="none" opacity="1.000000" stroke="#000000" stroke-linecap="round" stroke-linejoin="round" stroke-width="3.000000"
	d="
M313.000000,140.500000 
	C313.147461,136.220642 309.423920,136.074356 307.631317,137.207703 
	C304.115631,139.430450 300.464752,138.195724 296.968292,138.823364 
	C290.309387,140.018677 283.629913,141.155441 276.962219,142.274887 
	C270.437439,143.370377 264.000488,145.110550 257.481079,145.828094 
	C248.445374,146.822617 239.470825,148.084641 230.493408,149.456848 
	C223.709290,150.493805 216.835464,150.009018 210.000443,149.949463 
	C208.491287,149.936310 207.292419,150.503036 206.000000,151.000000 
"/>
<path fill="none" opacity="1.000000" stroke="#000000" stroke-linecap="round" stroke-linejoin="round" stroke-width="2.000000"
	d="
M244.500000,431.500000 
	C238.500000,433.000000 232.500000,434.500000 226.500000,436.000000 
"/>
<path fill="none" opacity="1.000000" stroke="#000000" stroke-linecap="round" stroke-linejoin="round" stroke-width="2.000000"
	d="
M320.500000,445.500000 
	C316.629303,446.942535 312.617584,447.514191 308.500000,447.510651 
	C306.546814,447.508972 304.709747,448.046906 303.000000,449.000000 
"/>
<path fill="none" opacity="1.000000" stroke="#000000" stroke-linecap="round" stroke-linejoin="round" stroke-width="2.000000"
	d="
M240.500000,464.500000 
	C235.738129,465.703827 230.831223,466.397369 226.455002,468.921997 
	C225.776825,469.313202 224.500000,468.666656 223.500000,468.500000 
"/>
<path fill="none" opacity="1.000000" stroke="#000000" stroke-linecap="round" stroke-linejoin="round" stroke-width="2.000000"
	d="
M552.000000,369.500000 
	C546.333313,371.333344 540.666687,373.166656 535.000000,375.000000 
"/>
<path fill="none" opacity="1.000000" stroke="#000000" stroke-linecap="round" stroke-linejoin="round" stroke-width="2.000000"
	d="
M151.000000,182.000000 
	C146.620972,186.703735 144.014175,192.320435 142.500000,198.500000 
"/>
<path fill="none" opacity="1.000000" stroke="#000000" stroke-linecap="round" stroke-linejoin="round" stroke-width="2.000000"
	d="
M480.000000,257.500000 
	C481.268036,263.283905 484.439392,268.508026 485.000000,274.500000 
"/>
<path fill="none" opacity="1.000000" stroke="#000000" stroke-linecap="round" stroke-linejoin="round" stroke-width="2.000000"
	d="
M264.500000,448.500000 
	C258.833344,450.166656 253.166672,451.833344 247.500000,453.500000 
"/>
<path fill="none" opacity="1.000000" stroke="#000000" stroke-linecap="round" stroke-linejoin="round" stroke-width="5.000000"
	d="
M243.500000,169.000000 
	C238.123093,167.138229 234.345444,170.169220 231.180664,173.663620 
	C230.451431,174.468811 228.504440,175.585556 229.000000,177.500000 
"/>
<path fill="none" opacity="1.000000" stroke="#000000" stroke-linecap="round" stroke-linejoin="round" stroke-width="5.000000"
	d="
M307.000000,405.500000 
	C303.421875,413.647888 303.149384,422.314270 303.000000,431.000000 
"/>
<path fill="none" opacity="1.000000" stroke="#000000" stroke-linecap="round" stroke-linejoin="round" stroke-width="2.000000"
	d="
M283.000000,161.250000 
	C277.781464,164.121735 275.392700,170.996582 268.355713,171.356140 
	C266.849762,168.378113 270.138611,167.155869 271.000000,165.000000 
"/>
<path fill="none" opacity="1.000000" stroke="#000000" stroke-linecap="round" stroke-linejoin="round" stroke-width="3.000000"
	d="
M430.500000,148.000000 
	C428.751953,146.395752 425.867188,146.180832 424.933411,143.294083 
	C425.466278,140.666229 426.773804,138.859146 430.001190,138.962830 
	C431.633545,139.015289 432.941650,139.267075 433.500732,140.999771 
	C433.662567,141.501328 434.090240,142.081604 433.961273,142.487701 
	C432.188904,148.067841 432.772888,154.593124 427.945953,158.940002 
	C425.921295,160.763290 423.029816,159.890305 420.500000,160.000000 
"/>
<path fill="none" opacity="1.000000" stroke="#000000" stroke-linecap="round" stroke-linejoin="round" stroke-width="3.000000"
	d="
M468.500000,123.500000 
	C465.168793,117.159851 460.126587,117.633514 453.962646,118.803223 
	C445.562744,120.397255 436.989258,121.303383 428.483307,122.366493 
	C417.297852,123.764511 406.160400,125.463058 394.985443,126.885590 
	C391.624481,127.313423 388.236725,127.355904 385.000000,128.500000 
"/>
<path fill="none" opacity="1.000000" stroke="#000000" stroke-linecap="round" stroke-linejoin="round" stroke-width="4.000000"
	d="
M475.000000,256.500000 
	C471.830719,260.318298 475.773285,263.785614 475.653961,267.504944 
	C475.596069,269.309692 477.166687,271.166656 478.000000,273.000000 
"/>
<path fill="none" opacity="1.000000" stroke="#000000" stroke-linecap="round" stroke-linejoin="round" stroke-width="3.000000"
	d="
M516.500000,418.500000 
	C518.284485,421.833344 515.333740,425.166656 516.119507,428.428833 
	C518.500000,429.756622 520.500000,427.864349 522.500000,428.500000 
"/>
<path fill="none" opacity="1.000000" stroke="#000000" stroke-linecap="round" stroke-linejoin="round" stroke-width="3.000000"
	d="
M306.000000,402.500000 
	C311.633667,408.703705 313.663208,416.835236 317.482361,424.009399 
	C318.453125,425.832916 319.316956,427.694794 321.000000,429.000000 
"/>
<path fill="none" opacity="1.000000" stroke="#000000" stroke-linecap="round" stroke-linejoin="round" stroke-width="2.000000"
	d="
M212.500000,273.500000 
	C215.862808,278.376312 218.342453,283.736938 221.000000,289.000000 
"/>
<path fill="none" opacity="1.000000" stroke="#000000" stroke-linecap="round" stroke-linejoin="round" stroke-width="2.000000"
	d="
M157.000000,361.000000 
	C150.887161,362.151764 146.126511,366.278320 140.500000,368.500000 
"/>
<path fill="none" opacity="1.000000" stroke="#000000" stroke-linecap="round" stroke-linejoin="round" stroke-width="2.000000"
	d="
M359.500000,149.000000 
	C355.333344,149.166672 350.552917,148.114105 347.161682,149.821198 
	C343.278259,151.776047 340.108551,155.735901 337.394531,160.225098 
	C341.699066,161.193100 344.925293,160.768967 345.910004,156.479340 
	C346.587860,153.526459 350.383209,153.124268 350.500000,150.000000 
"/>
<path fill="none" opacity="1.000000" stroke="#000000" stroke-linecap="round" stroke-linejoin="round" stroke-width="2.000000"
	d="
M172.000000,326.000000 
	C171.768158,331.377747 171.017059,336.638275 168.500000,341.500000 
"/>
<path fill="none" opacity="1.000000" stroke="#000000" stroke-linecap="round" stroke-linejoin="round" stroke-width="2.000000"
	d="
M315.000000,352.000000 
	C313.110474,357.233002 316.328552,362.301239 315.500000,367.500000 
"/>
<path fill="none" opacity="1.000000" stroke="#000000" stroke-linecap="round" stroke-linejoin="round" stroke-width="2.000000"
	d="
M322.500000,344.500000 
	C323.748627,348.514893 320.064453,351.611633 320.479523,355.502197 
	C320.905243,359.492340 321.166656,363.500000 321.499969,367.500000 
"/>
<path fill="none" opacity="1.000000" stroke="#000000" stroke-linecap="round" stroke-linejoin="round" stroke-width="2.000000"
	d="
M220.000000,309.500000 
	C221.776733,314.934998 217.742722,319.401550 217.500000,324.500000 
"/>
<path fill="none" opacity="1.000000" stroke="#000000" stroke-linecap="round" stroke-linejoin="round" stroke-width="2.000000"
	d="
M129.500000,313.000000 
	C123.809441,313.573059 119.412773,317.132050 114.500000,319.500000 
"/>
<path fill="none" opacity="1.000000" stroke="#000000" stroke-linecap="round" stroke-linejoin="round" stroke-width="3.000000"
	d="
M363.500000,457.500000 
	C357.703583,458.851288 351.962616,460.468445 346.003601,461.037537 
	C345.476562,461.087891 345.000000,461.666656 344.500000,462.000000 
"/>
<path fill="none" opacity="1.000000" stroke="#000000" stroke-linecap="round" stroke-linejoin="round" stroke-width="2.000000"
	d="
M477.000000,258.000000 
	C478.666656,263.000000 480.333344,268.000000 482.000000,273.000000 
"/>
<path fill="none" opacity="1.000000" stroke="#000000" stroke-linecap="round" stroke-linejoin="round" stroke-width="5.000000"
	d="
M171.000000,289.500000 
	C170.444702,293.481323 174.419373,294.442627 176.205338,297.025513 
	C178.963959,296.097961 178.991638,292.993713 180.500000,291.000000 
"/>
<path fill="none" opacity="1.000000" stroke="#000000" stroke-linecap="round" stroke-linejoin="round" stroke-width="2.000000"
	d="
M189.000015,392.500000 
	C189.333344,392.000000 189.552917,391.288055 190.020035,391.037292 
	C191.875946,390.040924 193.775162,387.659760 195.941422,390.053009 
	C197.791275,392.096649 196.651306,395.454010 195.372131,396.308594 
	C189.943039,399.935547 192.793549,403.647888 194.500000,407.500000 
"/>
<path fill="none" opacity="1.000000" stroke="#000000" stroke-linecap="round" stroke-linejoin="round" stroke-width="6.000000"
	d="
M85.500000,185.500000 
	C84.908928,187.808884 84.395782,189.820129 86.419624,192.072235 
	C90.546478,196.664536 92.905830,202.183563 93.000000,208.500000 
"/>
<path fill="none" opacity="1.000000" stroke="#000000" stroke-linecap="round" stroke-linejoin="round" stroke-width="3.000000"
	d="
M443.000000,166.500000 
	C442.657898,168.998825 443.836029,171.700363 442.157288,174.048615 
	C438.992218,173.095016 437.759857,169.526886 434.531372,168.908264 
	C433.376862,172.285538 433.376862,172.285538 435.500000,175.500000 
"/>
<path fill="none" opacity="1.000000" stroke="#000000" stroke-linecap="round" stroke-linejoin="round" stroke-width="2.000000"
	d="
M266.500000,455.500000 
	C262.220062,458.186920 257.272552,458.537292 252.500000,459.500000 
"/>
<path fill="none" opacity="1.000000" stroke="#000000" stroke-linecap="round" stroke-linejoin="round" stroke-width="3.000000"
	d="
M499.000000,371.500000 
	C499.474457,376.744446 500.283112,381.873627 504.000000,386.000000 
"/>
<path fill="none" opacity="1.000000" stroke="#000000" stroke-linecap="round" stroke-linejoin="round" stroke-width="3.000000"
	d="
M437.500000,132.500000 
	C450.503357,130.184982 463.506714,127.869972 477.094879,125.450844 
	C480.247162,131.399567 479.990875,137.931259 479.998962,145.000000 
	C477.844055,145.000000 476.172028,145.000000 474.500000,145.000000 
"/>
<path fill="none" opacity="1.000000" stroke="#000000" stroke-linecap="round" stroke-linejoin="round" stroke-width="3.000000"
	d="
M218.000000,174.000000 
	C214.603714,172.907684 211.340057,174.464432 208.006317,174.628387 
	C206.985382,174.678589 205.952515,175.718018 205.321854,177.434540 
	C202.988541,183.785248 198.765671,186.680511 194.000000,185.000000 
"/>
<path fill="none" opacity="1.000000" stroke="#000000" stroke-linecap="round" stroke-linejoin="round" stroke-width="2.000000"
	d="
M176.000000,326.500000 
	C174.348419,331.045441 174.989120,336.163940 172.500000,340.500000 
"/>
<path fill="none" opacity="1.000000" stroke="#000000" stroke-linecap="round" stroke-linejoin="round" stroke-width="2.000000"
	d="
M221.500000,323.500000 
	C223.400757,318.479767 225.204056,313.434387 226.325409,307.244812 
	C218.445953,308.708710 211.861771,310.983704 205.500000,314.000000 
"/>
<path fill="none" opacity="1.000000" stroke="#000000" stroke-linecap="round" stroke-linejoin="round" stroke-width="2.000000"
	d="
M446.500000,159.000000 
	C443.166656,158.207565 439.853302,158.313446 436.490143,158.947754 
	C435.149689,159.200592 433.583588,159.332306 432.500000,158.000000 
"/>
<path fill="none" opacity="1.000000" stroke="#000000" stroke-linecap="round" stroke-linejoin="round" stroke-width="2.000000"
	d="
M469.500000,192.500000 
	C464.806335,193.374039 459.991821,193.684021 455.500000,195.500000 
"/>
<path fill="none" opacity="1.000000" stroke="#000000" stroke-linecap="round" stroke-linejoin="round" stroke-width="2.000000"
	d="
M275.500000,287.500000 
	C270.769348,288.800903 266.496002,291.524597 261.500000,292.000000 
"/>
<path fill="none" opacity="1.000000" stroke="#000000" stroke-linecap="round" stroke-linejoin="round" stroke-width="2.000000"
	d="
M509.500000,291.500000 
	C508.752808,294.482117 507.032227,297.247894 506.965302,300.855499 
	C509.965820,300.627625 512.158691,300.413422 511.489777,297.002014 
	C511.192169,295.484009 512.003052,294.292419 512.500000,293.000000 
"/>
<path fill="none" opacity="1.000000" stroke="#000000" stroke-linecap="round" stroke-linejoin="round" stroke-width="3.000000"
	d="
M176.000000,325.000000 
	C180.458206,328.222809 180.820221,333.178619 181.500000,338.000000 
"/>
<path fill="none" opacity="1.000000" stroke="#000000" stroke-linecap="round" stroke-linejoin="round" stroke-width="2.000000"
	d="
M374.500000,148.000000 
	C366.819092,146.465851 360.087982,147.211121 356.500000,155.500000 
"/>
<path fill="none" opacity="1.000000" stroke="#000000" stroke-linecap="round" stroke-linejoin="round" stroke-width="2.000000"
	d="
M470.500000,420.500000 
	C466.168884,421.840576 462.037872,423.831390 457.500000,424.500000 
"/>
<path fill="none" opacity="1.000000" stroke="#000000" stroke-linecap="round" stroke-linejoin="round" stroke-width="2.000000"
	d="
M246.000000,403.000000 
	C247.879364,401.837036 249.796524,403.223694 249.319031,404.428253 
	C247.880127,408.058105 251.411072,407.886688 252.483490,409.034576 
	C252.805099,414.138428 246.675751,412.342407 246.000000,416.000000 
"/>
<path fill="none" opacity="1.000000" stroke="#000000" stroke-linecap="round" stroke-linejoin="round" stroke-width="3.000000"
	d="
M338.500000,347.500000 
	C343.461884,343.898224 349.588928,343.051392 355.014679,340.531616 
	C358.603851,338.864777 362.248932,337.201599 366.036804,336.130127 
	C367.839783,335.620087 368.290527,334.823792 367.949860,333.513031 
	C367.037384,330.001953 366.366241,326.162170 362.483459,324.539551 
	C359.230621,323.180206 355.833344,322.166656 352.500000,321.000000 
"/>
<path fill="none" opacity="1.000000" stroke="#000000" stroke-linecap="round" stroke-linejoin="round" stroke-width="5.000000"
	d="
M383.500000,327.500000 
	C382.968506,332.552551 382.373230,337.623962 387.500000,341.000000 
"/>
<path fill="none" opacity="1.000000" stroke="#000000" stroke-linecap="round" stroke-linejoin="round" stroke-width="2.000000"
	d="
M428.500000,404.500000 
	C424.500000,405.500000 420.500000,406.500000 416.500000,407.500000 
"/>
<path fill="none" opacity="1.000000" stroke="#000000" stroke-linecap="round" stroke-linejoin="round" stroke-width="2.000000"
	d="
M423.500000,344.500000 
	C419.500000,345.333344 415.500000,346.166687 411.500000,347.000000 
"/>
<path fill="none" opacity="1.000000" stroke="#000000" stroke-linecap="round" stroke-linejoin="round" stroke-width="3.000000"
	d="
M191.000000,282.500000 
	C190.527649,286.924896 188.619919,290.738983 186.247284,294.428314 
	C183.556946,292.592010 181.024353,291.019958 180.000000,288.000000 
"/>
<path fill="none" opacity="1.000000" stroke="#000000" stroke-linecap="round" stroke-linejoin="round" stroke-width="2.000000"
	d="
M288.500000,293.000000 
	C284.500000,294.500000 280.500000,296.000000 276.500000,297.500000 
"/>
<path fill="none" opacity="1.000000" stroke="#000000" stroke-linecap="round" stroke-linejoin="round" stroke-width="2.000000"
	d="
M336.500000,452.500000 
	C332.793427,454.673737 328.583954,454.835876 324.500000,455.500000 
"/>
<path fill="none" opacity="1.000000" stroke="#000000" stroke-linecap="round" stroke-linejoin="round" stroke-width="2.000000"
	d="
M95.500000,323.000000 
	C93.165535,324.550751 92.823563,327.542847 92.777954,329.506470 
	C92.708900,332.479309 91.009338,333.754669 89.500000,335.500000 
"/>
<path fill="none" opacity="1.000000" stroke="#000000" stroke-linecap="round" stroke-linejoin="round" stroke-width="2.000000"
	d="
M340.500000,318.500000 
	C337.454620,319.641083 336.447662,322.417725 334.840729,324.896759 
	C333.777191,326.537384 332.800873,328.800873 330.500000,329.500000 
"/>
<path fill="none" opacity="1.000000" stroke="#000000" stroke-linecap="round" stroke-linejoin="round" stroke-width="3.000000"
	d="
M242.000000,271.500000 
	C241.918518,277.739990 245.104874,283.138550 246.528702,288.993011 
	C247.488708,292.940460 250.218521,296.300812 250.500000,300.500000 
"/>
<path fill="none" opacity="1.000000" stroke="#000000" stroke-linecap="round" stroke-linejoin="round" stroke-width="2.000000"
	d="
M318.500000,164.000000 
	C314.798218,165.508606 310.969543,166.044250 307.000000,165.500000 
"/>
<path fill="none" opacity="1.000000" stroke="#000000" stroke-linecap="round" stroke-linejoin="round" stroke-width="3.000000"
	d="
M383.000000,202.500000 
	C381.963104,206.112930 379.701782,209.181519 378.767456,212.942230 
	C378.252258,215.015930 374.933411,215.360184 372.500000,215.500000 
"/>
<path fill="none" opacity="1.000000" stroke="#000000" stroke-linecap="round" stroke-linejoin="round" stroke-width="2.000000"
	d="
M342.500000,389.500000 
	C340.833466,393.333405 339.166931,397.166779 337.447083,401.122772 
	C333.795349,400.110870 332.319702,396.478302 329.500000,394.500000 
"/>
<path fill="none" opacity="1.000000" stroke="#000000" stroke-linecap="round" stroke-linejoin="round" stroke-width="3.000000"
	d="
M326.000000,352.000000 
	C329.060028,349.983368 332.660156,349.314728 335.983887,347.960449 
	C338.773407,346.823853 339.410248,348.063995 339.515625,350.499329 
	C339.693665,354.614502 339.383972,358.538849 336.000000,361.500000 
"/>
<path fill="none" opacity="1.000000" stroke="#000000" stroke-linecap="round" stroke-linejoin="round" stroke-width="3.000000"
	d="
M171.500000,320.000000 
	C169.757629,319.242676 168.680328,321.478149 167.000000,321.000000 
	C164.103210,320.365051 169.804291,315.431183 164.500000,316.000000 
"/>
<path fill="none" opacity="1.000000" stroke="#000000" stroke-linecap="round" stroke-linejoin="round" stroke-width="3.000000"
	d="
M199.500000,282.000000 
	C197.606171,281.936554 195.976181,282.502258 195.544556,284.509583 
	C195.158844,286.303375 195.679749,287.218994 197.961090,287.688904 
	C199.963165,288.101288 200.413635,290.452026 198.451218,291.935455 
	C197.307541,292.800018 196.380661,294.428009 194.500000,294.000000 
"/>
<path fill="none" opacity="1.000000" stroke="#000000" stroke-linecap="round" stroke-linejoin="round" stroke-width="3.000000"
	d="
M137.000000,322.000000 
	C131.948959,326.162842 125.553841,327.786896 120.000000,331.000000 
"/>
<path fill="none" opacity="1.000000" stroke="#000000" stroke-linecap="round" stroke-linejoin="round" stroke-width="2.000000"
	d="
M277.500000,162.000000 
	C268.228394,159.967270 258.853607,164.754395 254.000000,174.000000 
"/>
<path fill="none" opacity="1.000000" stroke="#000000" stroke-linecap="round" stroke-linejoin="round" stroke-width="2.000000"
	d="
M114.000000,277.000000 
	C110.651863,281.662781 105.395554,283.294891 100.500000,285.500000 
"/>
<path fill="none" opacity="1.000000" stroke="#000000" stroke-linecap="round" stroke-linejoin="round" stroke-width="4.000000"
	d="
M277.000000,211.000015 
	C273.500000,211.666687 270.000000,212.333344 266.500000,213.000015 
"/>
<path fill="none" opacity="1.000000" stroke="#000000" stroke-linecap="round" stroke-linejoin="round" stroke-width="3.000000"
	d="
M526.500000,440.500000 
	C520.318726,436.940369 514.604309,440.008545 509.040497,442.107391 
	C504.405579,443.855865 500.053192,446.038910 495.000000,444.000000 
"/>
<path fill="none" opacity="1.000000" stroke="#000000" stroke-linecap="round" stroke-linejoin="round" stroke-width="2.000000"
	d="
M314.500000,420.000000 
	C311.220306,421.823242 307.607330,421.896881 304.000000,422.000000 
"/>
<path fill="none" opacity="1.000000" stroke="#000000" stroke-linecap="round" stroke-linejoin="round" stroke-width="2.000000"
	d="
M226.500000,179.000000 
	C220.834030,180.976288 215.020035,182.089081 209.000000,182.000000 
"/>
<path fill="none" opacity="1.000000" stroke="#000000" stroke-linecap="round" stroke-linejoin="round" stroke-width="2.000000"
	d="
M207.500000,316.500000 
	C207.358902,320.006378 206.767944,323.400330 205.000000,326.500000 
"/>
<path fill="none" opacity="1.000000" stroke="#000000" stroke-linecap="round" stroke-linejoin="round" stroke-width="2.000000"
	d="
M303.000000,401.500000 
	C302.800049,404.833344 301.749939,408.166656 303.000000,411.500000 
"/>
<path fill="none" opacity="1.000000" stroke="#000000" stroke-linecap="round" stroke-linejoin="round" stroke-width="2.000000"
	d="
M466.500000,441.500000 
	C463.359436,444.391754 459.396118,446.547394 458.000000,451.000000 
"/>
<path fill="none" opacity="1.000000" stroke="#000000" stroke-linecap="round" stroke-linejoin="round" stroke-width="3.000000"
	d="
M396.500000,146.500000 
	C395.628693,147.637573 394.757355,148.775146 393.859314,149.947617 
	C396.195801,152.182831 398.056305,150.342453 400.000000,149.500000 
"/>
<path fill="none" opacity="1.000000" stroke="#000000" stroke-linecap="round" stroke-linejoin="round" stroke-width="2.000000"
	d="
M102.000000,370.500000 
	C101.363068,373.473877 98.864922,376.344360 101.500000,379.500000 
"/>
<path fill="none" opacity="1.000000" stroke="#000000" stroke-linecap="round" stroke-linejoin="round" stroke-width="2.000000"
	d="
M107.500000,377.000000 
	C106.183914,380.063232 106.523186,383.300690 106.500000,386.500000 
"/>
<path fill="none" opacity="1.000000" stroke="#000000" stroke-linecap="round" stroke-linejoin="round" stroke-width="3.000000"
	d="
M355.500000,351.000000 
	C355.618073,354.445160 358.050934,357.159363 358.500000,360.500000 
"/>
<path fill="none" opacity="1.000000" stroke="#000000" stroke-linecap="round" stroke-linejoin="round" stroke-width="4.000000"
	d="
M276.500000,197.500000 
	C275.724548,205.142303 279.000916,212.139999 280.000000,219.500000 
"/>
<path fill="none" opacity="1.000000" stroke="#000000" stroke-linecap="round" stroke-linejoin="round" stroke-width="2.000000"
	d="
M394.000000,274.500000 
	C392.334717,270.190521 388.292084,272.616882 385.500000,271.500000 
"/>
<path fill="none" opacity="1.000000" stroke="#000000" stroke-linecap="round" stroke-linejoin="round" stroke-width="3.000000"
	d="
M384.500000,348.000000 
	C384.930786,346.764130 385.798981,345.965637 387.282501,345.330719 
	C391.147064,348.634308 387.846558,352.140991 387.505920,355.411499 
	C388.791138,357.710907 391.550568,352.580505 392.500000,356.500000 
"/>
<path fill="none" opacity="1.000000" stroke="#000000" stroke-linecap="round" stroke-linejoin="round" stroke-width="2.000000"
	d="
M364.000000,389.000000 
	C365.166656,392.166656 366.333313,395.333344 367.500000,398.500000 
"/>
<path fill="none" opacity="1.000000" stroke="#000000" stroke-linecap="round" stroke-linejoin="round" stroke-width="4.000000"
	d="
M209.500000,153.500000 
	C203.695511,148.647446 196.614975,150.660294 190.555313,151.433517 
	C185.256943,152.109573 179.752686,152.756058 174.475616,153.226395 
	C160.598129,154.463318 146.647629,155.270554 133.033554,158.158157 
	C121.917160,160.515991 110.678383,160.758636 99.505516,162.047821 
	C86.437668,163.555679 73.270386,164.507523 60.500000,168.000000 
"/>
<path fill="none" opacity="1.000000" stroke="#000000" stroke-linecap="round" stroke-linejoin="round" stroke-width="2.000000"
	d="
M238.500000,177.000000 
	C235.109100,179.522308 231.191177,178.179764 227.500000,178.500000 
"/>
<path fill="none" opacity="1.000000" stroke="#000000" stroke-linecap="round" stroke-linejoin="round" stroke-width="3.000000"
	d="
M198.500000,318.500000 
	C201.437576,321.522766 203.168274,325.345917 204.879913,329.055420 
	C206.000366,331.483643 206.797699,331.541382 208.500000,330.000000 
"/>
<path fill="none" opacity="1.000000" stroke="#000000" stroke-linecap="round" stroke-linejoin="round" stroke-width="2.000000"
	d="
M226.000000,312.500000 
	C228.612976,314.931274 228.062759,318.768402 230.000000,321.500000 
"/>
<path fill="none" opacity="1.000000" stroke="#000000" stroke-linecap="round" stroke-linejoin="round" stroke-width="2.000000"
	d="
M289.500000,160.000000 
	C288.288361,164.299606 284.350067,166.552216 281.925903,169.947098 
	C281.637512,170.351013 280.333344,171.235321 279.500000,170.000000 
"/>
<path fill="none" opacity="1.000000" stroke="#000000" stroke-linecap="round" stroke-linejoin="round" stroke-width="3.000000"
	d="
M480.500000,169.500000 
	C478.212982,170.157654 475.909760,170.701736 473.492523,170.476120 
	C473.106201,168.318268 476.393799,168.181732 475.978271,165.860596 
	C474.333344,164.543518 472.666656,164.365784 471.000000,166.000000 
"/>
<path fill="none" opacity="1.000000" stroke="#000000" stroke-linecap="round" stroke-linejoin="round" stroke-width="2.000000"
	d="
M159.500000,196.000000 
	C151.457443,196.874847 143.722702,199.860458 135.500000,199.500000 
"/>
<path fill="none" opacity="1.000000" stroke="#000000" stroke-linecap="round" stroke-linejoin="round" stroke-width="2.000000"
	d="
M201.000000,399.500000 
	C205.062683,398.103973 203.972580,401.860748 205.335236,403.460602 
	C202.303925,405.399994 199.698792,407.454620 196.500000,408.500000 
"/>
<path fill="none" opacity="1.000000" stroke="#000000" stroke-linecap="round" stroke-linejoin="round" stroke-width="2.000000"
	d="
M266.500000,164.000000 
	C266.108734,167.276657 262.525421,169.051178 262.500000,172.500000 
"/>
<path fill="none" opacity="1.000000" stroke="#000000" stroke-linecap="round" stroke-linejoin="round" stroke-width="3.000000"
	d="
M161.500000,211.500000 
	C159.735779,214.729416 156.035461,213.601395 153.377106,214.703613 
	C149.097534,216.478043 144.357498,217.890549 139.500000,218.000000 
"/>
<path fill="none" opacity="1.000000" stroke="#000000" stroke-linecap="round" stroke-linejoin="round" stroke-width="2.000000"
	d="
M95.000000,254.000000 
	C94.596581,256.825073 92.429924,259.442749 94.000000,262.500000 
"/>
<path fill="none" opacity="1.000000" stroke="#000000" stroke-linecap="round" stroke-linejoin="round" stroke-width="2.000000"
	d="
M150.000000,189.000000 
	C149.231110,191.914902 146.084473,193.990601 147.000000,197.500000 
"/>
<path fill="none" opacity="1.000000" stroke="#000000" stroke-linecap="round" stroke-linejoin="round" stroke-width="4.000000"
	d="
M380.500000,128.500000 
	C369.657257,129.757004 358.933838,131.973709 348.002014,132.538773 
	C347.319946,132.574020 346.666656,133.166672 346.000000,133.500000 
"/>
<path fill="none" opacity="1.000000" stroke="#000000" stroke-linecap="round" stroke-linejoin="round" stroke-width="5.000000"
	d="
M197.500000,177.500000 
	C196.719833,178.242538 195.368118,178.256638 195.427277,180.002457 
	C195.527512,182.961227 192.964981,184.905884 192.000000,187.500000 
"/>
<path fill="none" opacity="1.000000" stroke="#000000" stroke-linecap="round" stroke-linejoin="round" stroke-width="2.000000"
	d="
M117.000000,359.000000 
	C113.950928,360.761414 114.545319,363.737335 114.500000,366.500000 
"/>
<path fill="none" opacity="1.000000" stroke="#000000" stroke-linecap="round" stroke-linejoin="round" stroke-width="2.000000"
	d="
M314.500000,157.500000 
	C312.000000,159.833344 309.383392,162.057541 307.052032,164.548691 
	C305.979370,165.694931 305.421570,167.261459 303.500000,166.000000 
"/>
<path fill="none" opacity="1.000000" stroke="#000000" stroke-linecap="round" stroke-linejoin="round" stroke-width="2.000000"
	d="
M294.500000,160.499985 
	C292.500000,162.666656 290.122253,164.601212 288.607635,167.066116 
	C287.130981,169.469193 285.241608,169.564880 283.000000,169.500000 
"/>
<path fill="none" opacity="1.000000" stroke="#000000" stroke-linecap="round" stroke-linejoin="round" stroke-width="3.000000"
	d="
M480.000000,145.500000 
	C481.956116,147.032166 480.173920,150.071060 482.476257,151.537292 
	C483.291321,152.056381 483.833344,152.252136 484.500000,151.500000 
"/>
<path fill="none" opacity="1.000000" stroke="#000000" stroke-linecap="round" stroke-linejoin="round" stroke-width="2.000000"
	d="
M167.500000,328.500000 
	C167.746277,331.306580 166.884674,333.905457 166.000000,336.500000 
"/>
<path fill="none" opacity="1.000000" stroke="#000000" stroke-linecap="round" stroke-linejoin="round" stroke-width="2.000000"
	d="
M266.500000,172.000000 
	C259.500000,173.500000 252.509354,175.047089 245.488449,176.441864 
	C244.585815,176.621201 243.353806,177.043808 242.500000,176.000000 
"/>
<path fill="none" opacity="1.000000" stroke="#000000" stroke-linecap="round" stroke-linejoin="round" stroke-width="2.000000"
	d="
M320.000000,466.000000 
	C317.574646,466.873230 315.268127,468.340576 312.500000,467.500000 
"/>
<path fill="none" opacity="1.000000" stroke="#000000" stroke-linecap="round" stroke-linejoin="round" stroke-width="2.000000"
	d="
M98.000000,330.000000 
	C96.045502,333.053040 95.364655,336.424500 95.511139,339.993713 
	C96.500000,340.492065 97.500000,338.496033 98.500000,340.000000 
"/>
<path fill="none" opacity="1.000000" stroke="#000000" stroke-linecap="round" stroke-linejoin="round" stroke-width="2.000000"
	d="
M146.000000,209.000000 
	C146.488800,211.940704 143.033096,213.566589 143.500000,216.500000 
"/>
<path fill="none" opacity="1.000000" stroke="#000000" stroke-linecap="round" stroke-linejoin="round" stroke-width="2.000000"
	d="
M133.500000,411.000000 
	C131.658951,413.500000 132.171051,416.000000 133.500000,418.500000 
"/>
<path fill="none" opacity="1.000000" stroke="#000000" stroke-linecap="round" stroke-linejoin="round" stroke-width="3.000000"
	d="
M199.000000,196.000000 
	C196.500000,194.660309 194.000000,194.660309 191.500000,196.000000 
"/>
<path fill="none" opacity="1.000000" stroke="#000000" stroke-linecap="round" stroke-linejoin="round" stroke-width="2.000000"
	d="
M100.500000,337.500000 
	C98.711052,340.608887 98.452988,344.023926 98.500000,347.500000 
"/>
<path fill="none" opacity="1.000000" stroke="#000000" stroke-linecap="round" stroke-linejoin="round" stroke-width="4.000000"
	d="
M367.500000,356.000000 
	C366.009644,356.229431 364.519318,356.458862 363.090851,356.678772 
	C361.933350,354.500000 362.695770,352.500000 363.183563,349.883270 
	C357.861298,348.689850 353.262573,349.903748 349.000000,353.000000 
"/>
<path fill="none" opacity="1.000000" stroke="#000000" stroke-linecap="round" stroke-linejoin="round" stroke-width="2.000000"
	d="
M134.500000,191.500000 
	C133.333344,193.833344 132.166672,196.166672 131.000000,198.500000 
"/>
<path fill="none" opacity="1.000000" stroke="#000000" stroke-linecap="round" stroke-linejoin="round" stroke-width="2.000000"
	d="
M439.500000,153.500000 
	C438.295471,150.415359 435.709198,150.324509 433.000000,150.500000 
"/>
<path fill="none" opacity="1.000000" stroke="#000000" stroke-linecap="round" stroke-linejoin="round" stroke-width="3.000000"
	d="
M377.500000,388.000000 
	C373.181458,387.563782 373.458435,389.680603 375.000000,392.500000 
"/>
<path fill="none" opacity="1.000000" stroke="#000000" stroke-linecap="round" stroke-linejoin="round" stroke-width="3.000000"
	d="
M195.000015,314.000000 
	C194.394577,312.639404 193.789154,311.278839 193.079651,309.684357 
	C191.952957,310.622772 191.026993,311.393982 190.132553,312.138916 
	C188.622894,311.006256 188.859756,309.781952 189.500000,308.500000 
"/>
<path fill="none" opacity="1.000000" stroke="#000000" stroke-linecap="round" stroke-linejoin="round" stroke-width="2.000000"
	d="
M230.000000,172.000000 
	C223.471710,170.672974 221.801620,175.418686 220.000000,180.000000 
"/>
<path fill="none" opacity="1.000000" stroke="#000000" stroke-linecap="round" stroke-linejoin="round" stroke-width="2.000000"
	d="
M118.000000,390.500000 
	C117.321144,392.795013 116.123344,394.978821 116.500000,397.500000 
"/>
<path fill="none" opacity="1.000000" stroke="#000000" stroke-linecap="round" stroke-linejoin="round" stroke-width="2.000000"
	d="
M253.000000,168.000000 
	C252.374008,170.737534 248.945709,171.873734 249.000000,175.000000 
"/>
<path fill="none" opacity="1.000000" stroke="#000000" stroke-linecap="round" stroke-linejoin="round" stroke-width="4.000000"
	d="
M233.500000,372.500000 
	C233.604614,375.949432 232.294296,379.845673 236.500000,382.000000 
"/>
<path fill="none" opacity="1.000000" stroke="#000000" stroke-linecap="round" stroke-linejoin="round" stroke-width="2.000000"
	d="
M205.000000,176.500000 
	C202.737885,175.425812 200.624756,176.288452 198.500000,177.000000 
"/>
<path fill="none" opacity="1.000000" stroke="#000000" stroke-linecap="round" stroke-linejoin="round" stroke-width="4.000000"
	d="
M330.500000,352.500000 
	C330.176453,355.161774 332.163940,356.753815 333.565948,358.445343 
	C335.322235,360.564270 336.575043,362.705933 336.500000,365.500000 
"/>
<path fill="none" opacity="1.000000" stroke="#000000" stroke-linecap="round" stroke-linejoin="round" stroke-width="2.000000"
	d="
M368.000000,148.500000 
	C367.589050,151.316788 364.137878,151.853409 363.500000,154.500000 
"/>
<path fill="none" opacity="1.000000" stroke="#000000" stroke-linecap="round" stroke-linejoin="round" stroke-width="2.000000"
	d="
M122.000000,395.500000 
	C122.200569,397.530609 118.849884,399.265259 121.500000,401.500000 
"/>
<path fill="none" opacity="1.000000" stroke="#000000" stroke-linecap="round" stroke-linejoin="round" stroke-width="2.000000"
	d="
M559.500000,367.000000 
	C556.816406,366.489380 555.462952,369.436951 553.000000,369.500000 
"/>
<path fill="none" opacity="1.000000" stroke="#000000" stroke-linecap="round" stroke-linejoin="round" stroke-width="2.000000"
	d="
M122.500000,370.000000 
	C121.370049,372.024109 120.429886,374.106628 120.500000,376.500000 
"/>
<path fill="none" opacity="1.000000" stroke="#000000" stroke-linecap="round" stroke-linejoin="round" stroke-width="2.000000"
	d="
M390.000000,304.500000 
	C391.409912,306.666656 389.369202,308.833344 390.000000,311.000000 
"/>
<path fill="none" opacity="1.000000" stroke="#000000" stroke-linecap="round" stroke-linejoin="round" stroke-width="2.000000"
	d="
M212.499985,175.000000 
	C211.333328,177.166656 210.273087,179.400116 208.967941,181.479889 
	C207.823090,183.304230 206.177185,184.201721 204.000000,183.000000 
"/>
<path fill="none" opacity="1.000000" stroke="#000000" stroke-linecap="round" stroke-linejoin="round" stroke-width="3.000000"
	d="
M348.500000,136.500000 
	C346.560669,136.106003 346.290375,134.042953 345.179840,133.144180 
	C337.512451,133.806778 330.190155,135.670029 322.485901,135.275330 
	C319.778381,135.136627 316.412567,135.939865 313.500000,137.000000 
"/>
<path fill="none" opacity="1.000000" stroke="#000000" stroke-linecap="round" stroke-linejoin="round" stroke-width="2.000000"
	d="
M456.500000,436.500000 
	C451.717560,436.763153 449.974884,441.368866 446.500000,443.500000 
"/>
<path fill="none" opacity="1.000000" stroke="#000000" stroke-linecap="round" stroke-linejoin="round" stroke-width="2.000000"
	d="
M328.500000,321.500000 
	C331.299011,322.600494 329.476990,326.011505 331.500000,327.500000 
"/>
<path fill="none" opacity="1.000000" stroke="#000000" stroke-linecap="round" stroke-linejoin="round" stroke-width="2.000000"
	d="
M248.500000,469.500000 
	C244.642670,471.070679 240.851974,472.907928 236.500000,472.500000 
"/>
<path fill="none" opacity="1.000000" stroke="#000000" stroke-linecap="round" stroke-linejoin="round" stroke-width="2.000000"
	d="
M271.500000,477.500000 
	C269.733215,479.115051 267.005463,479.943848 267.000000,483.000000 
"/>
<path fill="none" opacity="1.000000" stroke="#000000" stroke-linecap="round" stroke-linejoin="round" stroke-width="2.000000"
	d="
M189.500000,470.000000 
	C192.412582,470.283234 192.963959,473.714722 195.500000,474.500000 
"/>
<path fill="none" opacity="1.000000" stroke="#000000" stroke-linecap="round" stroke-linejoin="round" stroke-width="2.000000"
	d="
M453.000000,120.000000 
	C453.564941,122.598389 455.321442,124.221840 457.500000,125.500000 
"/>
<path fill="none" opacity="1.000000" stroke="#000000" stroke-linecap="round" stroke-linejoin="round" stroke-width="2.000000"
	d="
M114.000000,385.500000 
	C112.347588,387.211884 112.509438,389.377350 112.500000,391.500000 
"/>
<path fill="none" opacity="1.000000" stroke="#000000" stroke-linecap="round" stroke-linejoin="round" stroke-width="2.000000"
	d="
M331.500000,152.500000 
	C329.378174,151.204834 327.500000,152.833344 325.500000,153.000000 
"/>
<path fill="none" opacity="1.000000" stroke="#000000" stroke-linecap="round" stroke-linejoin="round" stroke-width="2.000000"
	d="
M309.999969,350.000000 
	C310.499969,352.833344 310.999969,355.666656 311.499969,358.500000 
"/>
<path fill="none" opacity="1.000000" stroke="#000000" stroke-linecap="round" stroke-linejoin="round" stroke-width="3.000000"
	d="
M126.000000,400.500000 
	C124.661095,402.332397 125.046204,404.452148 125.000000,406.500000 
"/>
<path fill="none" opacity="1.000000" stroke="#000000" stroke-linecap="round" stroke-linejoin="round" stroke-width="4.000000"
	d="
M151.500000,297.000000 
	C153.735809,299.786682 155.592743,302.732880 155.500000,306.500000 
"/>
<path fill="none" opacity="1.000000" stroke="#000000" stroke-linecap="round" stroke-linejoin="round" stroke-width="6.000000"
	d="
M164.750000,292.000000 
	C163.666672,294.333344 162.716125,296.742401 161.445953,298.969177 
	C160.775635,300.144348 159.736191,300.999664 157.948227,300.103271 
	C157.081161,299.668549 155.666672,298.757751 154.500000,300.000000 
"/>
<path fill="none" opacity="1.000000" stroke="#000000" stroke-linecap="round" stroke-linejoin="round" stroke-width="2.000000"
	d="
M152.500000,191.500000 
	C150.777084,192.928986 150.123520,194.844025 150.000000,197.000000 
"/>
<path fill="none" opacity="1.000000" stroke="#000000" stroke-linecap="round" stroke-linejoin="round" stroke-width="2.000000"
	d="
M355.000000,150.000000 
	C355.257904,153.060822 351.643494,153.540100 351.000000,156.000000 
"/>
<path fill="none" opacity="1.000000" stroke="#000000" stroke-linecap="round" stroke-linejoin="round" stroke-width="2.000000"
	d="
M344.500000,150.500000 
	C342.386871,149.309021 340.465851,150.423462 338.500000,151.000000 
"/>
<path fill="none" opacity="1.000000" stroke="#000000" stroke-linecap="round" stroke-linejoin="round" stroke-width="2.000000"
	d="
M528.000000,324.500000 
	C526.445374,326.022003 524.472107,326.008942 522.500000,326.000000 
"/>
<path fill="none" opacity="1.000000" stroke="#000000" stroke-linecap="round" stroke-linejoin="round" stroke-width="3.000000"
	d="
M502.000000,349.500000 
	C502.677856,351.367920 500.848297,353.121887 501.750000,355.000000 
"/>
<path fill="none" opacity="1.000000" stroke="#000000" stroke-linecap="round" stroke-linejoin="round" stroke-width="2.000000"
	d="
M88.500008,246.000000 
	C87.833336,247.833328 87.166672,249.666672 86.500008,251.500000 
"/>
<path fill="none" opacity="1.000000" stroke="#000000" stroke-linecap="round" stroke-linejoin="round" stroke-width="3.000000"
	d="
M488.000000,241.500000 
	C489.687378,240.885147 491.608429,240.854370 493.100342,239.538437 
	C491.537781,237.850204 489.746796,236.923721 487.500000,237.000000 
"/>
<path fill="none" opacity="1.000000" stroke="#000000" stroke-linecap="round" stroke-linejoin="round" stroke-width="2.000000"
	d="
M481.500000,442.500000 
	C480.721741,444.580505 477.955261,445.395782 478.000000,448.000000 
"/>
<path fill="none" opacity="1.000000" stroke="#000000" stroke-linecap="round" stroke-linejoin="round" stroke-width="2.000000"
	d="
M508.500000,437.500000 
	C507.632904,439.401978 505.026184,440.547607 506.000000,443.250000 
"/>
<path fill="none" opacity="1.000000" stroke="#000000" stroke-linecap="round" stroke-linejoin="round" stroke-width="3.000000"
	d="
M287.500000,177.500000 
	C289.333344,178.166672 291.166656,178.833328 293.000000,179.500000 
"/>
<path fill="none" opacity="1.000000" stroke="#000000" stroke-linecap="round" stroke-linejoin="round" stroke-width="3.000000"
	d="
M129.000000,200.500000 
	C127.402580,201.815445 125.831680,203.203796 123.500000,202.500000 
"/>
<path fill="none" opacity="1.000000" stroke="#000000" stroke-linecap="round" stroke-linejoin="round" stroke-width="3.000000"
	d="
M441.000000,200.500000 
	C441.000000,202.333328 441.000000,204.166672 441.000000,206.000000 
"/>
<path fill="none" opacity="1.000000" stroke="#000000" stroke-linecap="round" stroke-linejoin="round" stroke-width="3.000000"
	d="
M401.000000,310.500000 
	C398.658295,314.702728 394.670624,315.064758 390.500000,315.000000 
"/>
<path fill="none" opacity="1.000000" stroke="#000000" stroke-linecap="round" stroke-linejoin="round" stroke-width="3.000000"
	d="
M43.500000,172.500000 
	C41.888618,170.667480 40.322628,169.728897 37.471062,170.371597 
	C31.600302,171.694778 25.416666,170.500000 19.500000,172.000000 
"/>
<path fill="none" opacity="1.000000" stroke="#000000" stroke-linecap="round" stroke-linejoin="round" stroke-width="3.000000"
	d="
M177.500000,316.500000 
	C178.511215,316.204865 179.522430,315.909729 180.821075,315.530731 
	C179.584869,313.493896 178.711960,311.318817 176.500000,314.500000 
"/>
<path fill="none" opacity="1.000000" stroke="#000000" stroke-linecap="round" stroke-linejoin="round" stroke-width="2.000000"
	d="
M347.500000,311.500000 
	C344.441498,313.149963 345.852844,316.076996 345.500000,318.500000 
"/>
<path fill="none" opacity="1.000000" stroke="#000000" stroke-linecap="round" stroke-linejoin="round" stroke-width="3.000000"
	d="
M452.500000,140.500000 
	C450.666656,140.833328 448.833344,141.166656 447.000000,141.500000 
"/>
<path fill="none" opacity="1.000000" stroke="#000000" stroke-linecap="round" stroke-linejoin="round" stroke-width="2.000000"
	d="
M125.000000,293.500000 
	C124.263588,295.095734 123.137909,296.574707 123.500000,298.500000 
"/>
<path fill="none" opacity="1.000000" stroke="#000000" stroke-linecap="round" stroke-linejoin="round" stroke-width="2.000000"
	d="
M389.500000,452.500000 
	C386.634277,455.498352 382.241913,454.489166 379.000000,456.500000 
"/>
<path fill="none" opacity="1.000000" stroke="#000000" stroke-linecap="round" stroke-linejoin="round" stroke-width="2.000000"
	d="
M214.500000,300.000000 
	C213.134888,301.460297 213.378128,303.242279 213.500000,305.000000 
"/>
<path fill="none" opacity="1.000000" stroke="#000000" stroke-linecap="round" stroke-linejoin="round" stroke-width="3.000000"
	d="
M205.500000,303.500000 
	C205.136200,305.792725 202.079254,304.494568 201.489090,306.572601 
	C202.007523,308.036957 204.850632,308.114197 204.000000,310.500000 
"/>
<path fill="none" opacity="1.000000" stroke="#000000" stroke-linecap="round" stroke-linejoin="round" stroke-width="2.000000"
	d="
M341.500000,461.500000 
	C337.123077,465.615417 331.686584,464.432983 326.500000,464.500000 
"/>
<path fill="none" opacity="1.000000" stroke="#000000" stroke-linecap="round" stroke-linejoin="round" stroke-width="2.000000"
	d="
M110.000000,271.500000 
	C109.263588,273.095734 108.137909,274.574707 108.500000,276.500000 
"/>
<path fill="none" opacity="1.000000" stroke="#000000" stroke-linecap="round" stroke-linejoin="round" stroke-width="2.000000"
	d="
M489.500000,113.500000 
	C488.065887,114.775162 485.712189,112.985085 484.500000,115.000000 
"/>
<path fill="none" opacity="1.000000" stroke="#000000" stroke-linecap="round" stroke-linejoin="round" stroke-width="2.000000"
	d="
M130.000000,406.500000 
	C128.738770,407.981079 129.033264,409.773315 129.000000,411.500000 
"/>
<path fill="none" opacity="1.000000" stroke="#000000" stroke-linecap="round" stroke-linejoin="round" stroke-width="4.000000"
	d="
M234.500000,186.500000 
	C231.166672,186.666672 227.833328,186.833344 224.500000,187.000000 
"/>
<path fill="none" opacity="1.000000" stroke="#000000" stroke-linecap="round" stroke-linejoin="round" stroke-width="2.000000"
	d="
M393.500000,151.000000 
	C391.833344,151.878052 390.166656,152.760849 388.500000,151.000000 
"/>
<path fill="none" opacity="1.000000" stroke="#000000" stroke-linecap="round" stroke-linejoin="round" stroke-width="2.000000"
	d="
M337.500000,161.000000 
	C335.833344,161.333328 334.166656,161.666656 332.500000,162.000000 
"/>
<path fill="none" opacity="1.000000" stroke="#000000" stroke-linecap="round" stroke-linejoin="round" stroke-width="2.000000"
	d="
M152.500000,209.500000 
	C152.784958,211.402161 149.235611,212.154022 151.000000,214.500000 
"/>
<path fill="none" opacity="1.000000" stroke="#000000" stroke-linecap="round" stroke-linejoin="round" stroke-width="3.000000"
	d="
M222.500000,173.500000 
	C216.956696,171.755035 217.716217,177.363358 215.500000,179.500000 
"/>
<path fill="none" opacity="1.000000" stroke="#000000" stroke-linecap="round" stroke-linejoin="round" stroke-width="2.000000"
	d="
M388.500000,132.500000 
	C385.522156,132.062607 385.469208,126.141045 380.790009,128.614365 
	C381.896454,130.709869 383.446503,132.331482 385.500000,133.500000 
"/>
<path fill="none" opacity="1.000000" stroke="#000000" stroke-linecap="round" stroke-linejoin="round" stroke-width="5.000000"
	d="
M60.750000,169.000000 
	C56.333332,166.435013 51.878159,168.688782 47.518913,169.170990 
	C45.770386,169.364395 43.450489,168.596237 42.000000,170.500000 
"/>
<path fill="none" opacity="1.000000" stroke="#000000" stroke-linecap="round" stroke-linejoin="round" stroke-width="3.000000"
	d="
M481.500000,164.500000 
	C486.072601,162.594070 483.070251,168.263092 485.610077,168.510223 
	C483.864410,169.873184 482.182220,171.186584 480.500000,172.499985 
"/>
<path fill="none" opacity="1.000000" stroke="#000000" stroke-linecap="round" stroke-linejoin="round" stroke-width="2.000000"
	d="
M107.000000,267.500000 
	C106.617096,270.762146 104.736572,272.408936 101.499664,272.485870 
	C99.923309,272.523315 100.685562,271.240540 100.500000,270.500000 
"/>
<path fill="none" opacity="1.000000" stroke="#000000" stroke-linecap="round" stroke-linejoin="round" stroke-width="2.000000"
	d="
M310.500000,356.000000 
	C308.778076,357.191437 309.762939,358.984344 309.500000,360.500000 
"/>
<path fill="none" opacity="1.000000" stroke="#000000" stroke-linecap="round" stroke-linejoin="round" stroke-width="2.000000"
	d="
M351.000000,133.500000 
	C351.234436,135.649048 352.990662,136.466522 354.500000,137.500000 
"/>
<path fill="none" opacity="1.000000" stroke="#000000" stroke-linecap="round" stroke-linejoin="round" stroke-width="2.000000"
	d="
M506.500000,197.500000 
	C505.798584,200.500000 505.798584,203.500000 506.500000,206.500000 
"/>
<path fill="none" opacity="1.000000" stroke="#000000" stroke-linecap="round" stroke-linejoin="round" stroke-width="3.000000"
	d="
M368.500000,387.000000 
	C365.666656,388.000000 362.833344,389.000000 360.000000,390.000000 
"/>
<path fill="none" opacity="1.000000" stroke="#000000" stroke-linecap="round" stroke-linejoin="round" stroke-width="3.000000"
	d="
M445.000000,207.000000 
	C441.800812,208.573257 439.341248,205.944260 436.514801,205.420197 
	C434.783997,205.099289 435.609039,203.592941 436.000000,202.500000 
"/>
<path fill="none" opacity="1.000000" stroke="#000000" stroke-linecap="round" stroke-linejoin="round" stroke-width="3.000000"
	d="
M483.500000,115.500000 
	C477.281403,116.179726 470.967651,116.272728 465.000000,118.500000 
"/>
<path fill="none" opacity="1.000000" stroke="#000000" stroke-linecap="round" stroke-linejoin="round" stroke-width="2.000000"
	d="
M335.000000,309.500000 
	C332.926575,310.243286 333.643219,312.032867 333.500000,313.500000 
"/>
<path fill="none" opacity="1.000000" stroke="#000000" stroke-linecap="round" stroke-linejoin="round" stroke-width="2.000000"
	d="
M378.000000,129.500000 
	C378.234436,131.649048 379.990662,132.466522 381.500000,133.500000 
"/>
<path fill="none" opacity="1.000000" stroke="#000000" stroke-linecap="round" stroke-linejoin="round" stroke-width="2.000000"
	d="
M467.500000,445.500000 
	C467.037109,447.358063 464.567841,447.878571 464.500000,450.000000 
"/>
<path fill="none" opacity="1.000000" stroke="#000000" stroke-linecap="round" stroke-linejoin="round" stroke-width="2.000000"
	d="
M288.500000,168.500000 
	C289.854675,168.504120 291.245392,168.796402 292.500000,168.000000 
"/>
<path fill="none" opacity="1.000000" stroke="#000000" stroke-linecap="round" stroke-linejoin="round" stroke-width="2.000000"
	d="
M394.500000,315.500000 
	C395.814911,317.245392 393.663177,318.124115 393.500000,319.500000 
"/>
<path fill="none" opacity="1.000000" stroke="#000000" stroke-linecap="round" stroke-linejoin="round" stroke-width="3.000000"
	d="
M168.500000,297.500000 
	C168.849930,299.030914 168.273514,300.496948 166.965866,300.884918 
	C165.829056,301.222260 164.840027,299.906616 164.000000,299.000000 
"/>
<path fill="none" opacity="1.000000" stroke="#000000" stroke-linecap="round" stroke-linejoin="round" stroke-width="2.000000"
	d="
M333.500000,351.500000 
	C333.231781,352.820648 334.058014,354.278076 333.000000,355.500000 
"/>
<path fill="none" opacity="1.000000" stroke="#000000" stroke-linecap="round" stroke-linejoin="round" stroke-width="2.000000"
	d="
M328.500000,356.500000 
	C328.331482,357.808716 329.171539,359.549713 327.000000,360.000000 
"/>
<path fill="none" opacity="1.000000" stroke="#000000" stroke-linecap="round" stroke-linejoin="round" stroke-width="2.000000"
	d="
M361.000000,339.000000 
	C362.259613,339.841125 360.521881,341.966827 362.500000,342.500000 
"/>
<path fill="none" opacity="1.000000" stroke="#000000" stroke-linecap="round" stroke-linejoin="round" stroke-width="2.000000"
	d="
M326.000000,364.500000 
	C324.941986,365.721924 325.768219,367.179352 325.500000,368.500000 
"/>
<path fill="none" opacity="1.000000" stroke="#000000" stroke-linecap="round" stroke-linejoin="round" stroke-width="2.000000"
	d="
M346.500000,344.500000 
	C346.833344,345.833344 347.166656,347.166656 347.500000,348.500000 
"/>
<path fill="none" opacity="1.000000" stroke="#000000" stroke-linecap="round" stroke-linejoin="round" stroke-width="2.000000"
	d="
M88.500000,260.500000 
	C88.381241,262.065369 88.409317,263.575684 90.000000,264.500000 
"/>
<path fill="none" opacity="1.000000" stroke="#000000" stroke-linecap="round" stroke-linejoin="round" stroke-width="3.000000"
	d="
M522.500000,425.500000 
	C523.359619,427.991241 523.038574,430.876038 525.000000,433.000000 
"/>
<path fill="none" opacity="1.000000" stroke="#000000" stroke-linecap="round" stroke-linejoin="round" stroke-width="2.000000"
	d="
M91.000000,249.500000 
	C89.941986,250.721909 90.768204,252.179352 90.500000,253.500000 
"/>
<path fill="none" opacity="1.000000" stroke="#000000" stroke-linecap="round" stroke-linejoin="round" stroke-width="3.000000"
	d="
M46.000000,278.500000 
	C41.672840,279.015869 42.336006,282.739807 41.500000,285.500000 
"/>
<path fill="none" opacity="1.000000" stroke="#000000" stroke-linecap="round" stroke-linejoin="round" stroke-width="4.000000"
	d="
M211.500000,245.500000 
	C214.232346,245.692062 216.577927,242.790054 219.500000,244.500000 
"/>
<path fill="none" opacity="1.000000" stroke="#000000" stroke-linecap="round" stroke-linejoin="round" stroke-width="2.000000"
	d="
M358.000000,340.000000 
	C358.500000,341.166656 359.000000,342.333344 359.500000,343.500000 
"/>
<path fill="none" opacity="1.000000" stroke="#000000" stroke-linecap="round" stroke-linejoin="round" stroke-width="2.000000"
	d="
M344.000000,346.000000 
	C344.166656,347.166656 344.333313,348.333344 344.500000,349.500000 
"/>
<path fill="none" opacity="1.000000" stroke="#000000" stroke-linecap="round" stroke-linejoin="round" stroke-width="2.000000"
	d="
M82.500000,238.000000 
	C81.017082,238.838211 81.605652,240.268280 81.500000,241.500000 
"/>
<path fill="none" opacity="1.000000" stroke="#000000" stroke-linecap="round" stroke-linejoin="round" stroke-width="2.000000"
	d="
M194.000000,178.000000 
	C192.627792,176.727921 191.639557,178.143600 190.500000,178.500000 
"/>
<path fill="none" opacity="1.000000" stroke="#000000" stroke-linecap="round" stroke-linejoin="round" stroke-width="2.000000"
	d="
M349.000000,344.500000 
	C350.466095,345.016937 348.276001,347.362000 350.500000,347.500000 
"/>
<path fill="none" opacity="1.000000" stroke="#000000" stroke-linecap="round" stroke-linejoin="round" stroke-width="2.000000"
	d="
M98.000000,261.000000 
	C94.449890,262.171021 91.414124,264.230469 88.500000,266.500000 
"/>
<path fill="none" opacity="1.000000" stroke="#000000" stroke-linecap="round" stroke-linejoin="round" stroke-width="2.000000"
	d="
M364.000000,338.000000 
	C364.166687,339.166656 364.333344,340.333344 364.500000,341.500000 
"/>
<path fill="none" opacity="1.000000" stroke="#000000" stroke-linecap="round" stroke-linejoin="round" stroke-width="2.000000"
	d="
M390.500000,459.500000 
	C390.071838,460.639557 389.007507,461.597382 389.500000,463.000000 
"/>
<path fill="none" opacity="1.000000" stroke="#000000" stroke-linecap="round" stroke-linejoin="round" stroke-width="2.000000"
	d="
M131.500000,321.500000 
	C131.500000,322.666656 131.500000,323.833344 131.500000,325.000000 
"/>
<path fill="none" opacity="1.000000" stroke="#000000" stroke-linecap="round" stroke-linejoin="round" stroke-width="2.000000"
	d="
M428.000000,123.000000 
	C428.833313,124.166672 429.666656,125.333336 430.500000,126.500000 
"/>
<path fill="none" opacity="1.000000" stroke="#000000" stroke-linecap="round" stroke-linejoin="round" stroke-width="2.000000"
	d="
M345.500000,312.500000 
	C342.948792,313.101654 340.414246,313.452972 338.000000,312.000000 
"/>
<path fill="none" opacity="1.000000" stroke="#000000" stroke-linecap="round" stroke-linejoin="round" stroke-width="3.000000"
	d="
M449.500000,135.499985 
	C448.176392,135.868301 446.852783,136.236618 445.569824,136.593628 
	C444.420807,135.101395 445.149506,133.501907 445.000000,132.000000 
"/>
<path fill="none" opacity="1.000000" stroke="#000000" stroke-linecap="round" stroke-linejoin="round" stroke-width="2.000000"
	d="
M186.500000,384.500000 
	C187.588379,386.393738 187.312775,388.855774 189.000000,390.500000 
"/>
<path fill="none" opacity="1.000000" stroke="#000000" stroke-linecap="round" stroke-linejoin="round" stroke-width="2.000000"
	d="
M335.000000,349.000000 
	C335.166656,350.166656 335.333313,351.333344 335.500000,352.500000 
"/>
<path fill="none" opacity="1.000000" stroke="#000000" stroke-linecap="round" stroke-linejoin="round" stroke-width="2.000000"
	d="
M536.499939,434.500000 
	C536.333313,435.750000 536.166626,437.000000 535.999939,438.250000 
"/>
<path fill="none" opacity="1.000000" stroke="#000000" stroke-linecap="round" stroke-linejoin="round" stroke-width="3.000000"
	d="
M100.000000,259.000000 
	C97.788734,260.366638 98.678482,262.578979 98.500000,264.500000 
"/>
<path fill="none" opacity="1.000000" stroke="#000000" stroke-linecap="round" stroke-linejoin="round" stroke-width="1.000000"
	d="
M177.000000,298.000000 
	C177.333328,299.000000 177.666656,300.000000 178.000000,301.000000 
"/>
<path fill="none" opacity="1.000000" stroke="#000000" stroke-linecap="round" stroke-linejoin="round" stroke-width="1.000000"
	d="
M320.000000,305.999969 
	C319.333313,306.333313 318.666656,306.666656 318.000000,306.999969 
"/>
<path fill="none" opacity="1.000000" stroke="#000000" stroke-linecap="round" stroke-linejoin="round" stroke-width="2.000000"
	d="
M351.000000,391.000000 
	C350.333344,391.500000 349.599762,391.932312 349.012695,392.512848 
	C347.331543,394.175323 347.623291,396.151672 348.545685,397.976898 
	C349.192627,399.257080 350.707092,400.216400 351.943665,399.413269 
	C353.752045,398.238678 355.057861,396.505432 355.047791,393.999817 
	C355.037354,391.401337 353.678436,390.819611 351.500000,391.000000 
"/>
</svg>