<svg version="1.1" id="Layer_1" xmlns="http://www.w3.org/2000/svg" xmlns:xlink="http://www.w3.org/1999/xlink" x="0px" y="0px"
	 width="100%" viewBox="0 0 622 310" enable-background="new 0 0 622 310" xml:space="preserve">
<path fill="#FEFFFF" opacity="1.000000" stroke="none" 
	d="
M458.000000,311.000000 
	C305.333344,311.000000 153.166672,311.000000 1.000000,311.000000 
	C1.000000,207.666672 1.000000,104.333336 1.000000,1.000000 
	C208.333328,1.000000 415.666656,1.000000 623.000000,1.000000 
	C623.000000,104.333336 623.000000,207.666672 623.000000,311.000000 
	C568.166687,311.000000 513.333313,311.000000 458.000000,311.000000 
M156.290283,267.742279 
	C156.290283,267.742279 156.513367,267.843262 156.454666,268.207153 
	C156.454666,268.207153 156.745743,268.428650 156.745743,268.428650 
	C156.745743,268.428650 157.054474,268.231720 157.585495,268.597595 
	C157.776337,268.696533 157.967194,268.795441 158.390747,269.532898 
	C160.490875,271.328613 162.563065,273.583344 165.539093,269.788483 
	C166.014343,269.507812 166.489594,269.227142 167.658905,268.925629 
	C171.582397,266.215637 169.270523,264.369629 166.377655,262.264435 
	C166.377655,262.264435 165.942200,262.041840 165.698563,261.423767 
	C164.089935,260.370667 162.481308,259.317535 160.825226,258.169586 
	C160.825226,258.169586 160.721603,258.146790 160.516541,257.631165 
	C159.999481,257.538116 159.482422,257.445068 158.220612,257.128296 
	C153.857590,256.991516 149.326401,256.031189 145.164856,256.881042 
	C134.953796,258.966248 128.769302,267.107452 128.431015,277.565063 
	C128.135025,286.714844 134.189087,295.616486 142.904755,298.846558 
	C152.095993,302.252960 162.672440,299.298706 168.343216,291.545776 
	C169.051056,290.578033 169.498932,288.532623 168.961807,287.697876 
	C166.814499,284.360748 161.647858,284.073364 158.293549,286.425598 
	C156.468292,287.705566 154.294754,288.864532 152.135559,289.226440 
	C143.584686,290.659576 136.565964,281.127502 140.577057,272.671234 
	C143.942917,268.062531 148.548843,266.229462 154.622208,266.789551 
	C154.785446,266.838257 154.948669,266.886932 155.278168,267.368195 
	C155.278168,267.368195 155.653107,267.638489 155.653107,267.638489 
	C155.653107,267.638489 156.111038,267.575470 156.290283,267.742279 
M267.297028,278.666412 
	C267.599426,278.461975 267.644653,278.211090 267.689606,277.355072 
	C267.755371,277.160950 267.821106,276.966797 268.297516,276.673218 
	C268.581757,276.438873 268.589661,276.195465 268.589874,275.234985 
	C268.686157,274.484589 268.782440,273.734222 269.418121,272.590149 
	C269.220581,271.402405 269.023041,270.214691 268.800507,268.279144 
	C268.378754,266.880890 267.957001,265.482605 267.634277,263.634644 
	C267.511292,263.305786 267.274200,263.136353 266.950623,263.058746 
	C266.950623,263.058746 266.880310,263.078339 266.851501,262.394562 
	C265.544098,261.301086 264.236664,260.207642 262.581451,258.699097 
	C262.263336,258.534149 261.945251,258.369232 261.492157,257.659424 
	C260.979919,257.525940 260.467712,257.392426 259.132507,257.084381 
	C252.662628,256.829620 246.191513,256.602417 239.723434,256.308075 
	C236.650970,256.168243 236.252457,257.975830 236.265167,260.468445 
	C236.324631,272.125854 236.419083,283.786011 236.217896,295.440277 
	C236.148285,299.472809 238.359802,299.666412 241.291245,299.566315 
	C244.105820,299.470184 247.226501,300.085266 246.900406,295.499146 
	C246.679245,292.388489 246.858170,289.249390 246.858170,286.123016 
	C247.333755,285.726837 247.809326,285.330627 248.284912,284.934418 
	C250.134735,286.266754 252.263626,287.347198 253.756668,289.001556 
	C255.280609,290.690125 256.180023,292.942352 257.221313,295.498962 
	C257.541260,295.891388 257.861176,296.283844 258.485992,297.286804 
	C259.629364,297.895996 260.772736,298.505188 262.575043,299.537262 
	C264.532532,299.600677 266.531738,299.945007 268.437805,299.662048 
	C271.338287,299.231415 271.980072,297.685944 269.686218,295.241882 
	C269.686218,295.241882 269.524048,295.102386 269.578949,294.678802 
	C269.438446,294.371582 269.202454,294.251404 268.835876,294.205872 
	C268.835876,294.205872 268.732758,294.149078 268.655090,293.484924 
	C267.748810,292.018036 266.842529,290.551178 265.981354,289.020569 
	C265.981354,289.020569 265.911041,289.054504 265.868042,288.336304 
	C264.124847,285.525970 263.691559,282.718323 265.958557,279.937439 
	C265.958557,279.937439 265.921417,279.870636 266.379028,279.726959 
	C266.680023,279.523865 266.796875,279.243896 266.831818,278.831940 
	C266.831818,278.831940 266.868988,278.721893 267.297028,278.666412 
M347.457367,122.194878 
	C346.684540,122.824272 345.911713,123.453667 345.058014,124.046638 
	C345.058014,124.046638 345.069519,124.134560 344.370087,124.182777 
	C342.140869,125.727486 339.911621,127.272194 337.016937,129.009506 
	C331.929718,132.138062 326.614838,134.960358 321.839935,138.509155 
	C318.939087,140.665146 317.001923,140.434143 314.376404,138.454361 
	C304.041168,130.660904 293.599121,123.009277 283.218536,115.275650 
	C279.631744,112.603439 276.108612,109.845749 271.507233,106.324135 
	C274.014862,105.880508 274.936493,105.575607 275.858398,105.574860 
	C310.181366,105.546860 344.504456,105.578102 378.827271,105.495689 
	C382.305237,105.487328 382.998444,107.168037 382.990753,110.130150 
	C382.936676,130.957123 382.910400,151.784531 383.009338,172.611160 
	C383.025574,176.022552 381.938324,177.315186 378.399384,177.251007 
	C368.072479,177.063736 357.692596,177.792572 347.424377,176.994095 
	C338.798065,176.323303 333.002411,179.082352 328.351868,186.261261 
	C325.485352,190.686234 321.312469,194.264938 317.335449,198.654861 
	C311.530121,192.006500 306.382202,185.949158 301.017273,180.090515 
	C299.804749,178.766403 297.844543,177.320557 296.216217,177.306046 
	C275.724091,177.123245 255.228271,177.087875 234.738113,177.365479 
	C232.748077,177.392456 229.766937,179.359299 229.082962,181.133804 
	C228.280273,183.216217 228.714462,186.660309 230.051712,188.419632 
	C231.252380,189.999283 234.396225,190.721283 236.695160,190.747589 
	C253.188141,190.936386 269.686829,190.702942 286.176880,190.993500 
	C289.031067,191.043793 292.300232,192.368820 294.575592,194.137146 
	C297.396484,196.329437 299.326508,199.645569 301.739349,202.390106 
	C306.743347,208.082031 311.812042,213.717117 318.067719,220.737473 
	C319.465790,218.577423 320.298584,216.907364 321.477386,215.534348 
	C327.318176,208.731232 333.401367,202.130386 339.082123,195.198425 
	C341.658051,192.055130 344.502716,190.752792 348.505585,190.792358 
	C362.833252,190.934021 377.163239,190.860092 391.492249,190.835648 
	C393.222412,190.832687 394.952271,190.634048 396.816132,190.517746 
	C396.816132,158.684677 396.731445,127.543266 396.918701,96.403496 
	C396.943298,92.310471 395.694733,91.390350 391.848938,91.398064 
	C339.198120,91.503723 286.547058,91.464699 233.896027,91.476234 
	C232.477173,91.476547 231.058350,91.644501 228.477966,91.807785 
	C231.176559,93.946243 232.930496,95.410851 234.760345,96.773529 
	C243.811234,103.513626 252.890060,110.216187 261.944427,116.951668 
	C279.280548,129.847931 296.568298,142.810181 314.011505,155.559814 
	C315.382111,156.561646 318.360016,157.015213 319.657715,156.213333 
	C334.202423,147.226013 348.563843,137.942047 363.644653,128.714890 
	C367.831390,124.870583 368.303162,121.031708 364.995209,117.725853 
	C361.458405,114.191307 357.096008,114.681076 353.037720,119.045547 
	C353.037720,119.045547 353.062653,119.125526 352.399567,119.219421 
	C350.998108,120.182220 349.596619,121.145027 348.095551,122.073471 
	C348.095551,122.073471 348.084747,122.178284 347.457367,122.194878 
M196.041809,283.097168 
	C196.041809,274.216583 196.041809,265.335968 196.041809,256.084778 
	C192.737045,256.084778 190.250610,255.906754 187.815506,256.182373 
	C186.975174,256.277466 186.262634,257.501892 185.385956,259.111420 
	C185.438919,268.008667 185.491882,276.905884 185.254196,286.468201 
	C185.532242,287.311890 185.810287,288.155609 186.216354,289.711121 
	C186.373581,290.165161 186.530792,290.619232 186.529633,291.416931 
	C186.600082,291.680725 186.758820,291.871124 187.222382,292.632538 
	C187.622131,293.159698 188.000046,293.705200 188.424957,294.211212 
	C193.074219,299.748016 201.261490,301.789093 208.824905,299.306000 
	C215.384308,297.152466 219.586929,292.342712 219.758469,286.004303 
	C219.992569,277.353241 219.915771,268.690735 219.778519,260.036194 
	C219.758957,258.802887 218.697845,256.569641 218.038574,256.539246 
	C215.213760,256.409058 212.358948,256.930145 209.238831,258.077606 
	C209.258270,267.401947 209.277710,276.726318 209.133102,286.567902 
	C209.105484,286.746674 209.077881,286.925446 208.543457,287.350983 
	C208.072937,287.921326 207.602432,288.491669 206.545349,289.181091 
	C206.357269,289.247711 206.169205,289.314362 205.138367,289.227264 
	C200.910995,289.544067 196.969116,289.354370 196.041809,283.097168 
M504.755585,264.590881 
	C499.112000,255.497452 497.492950,254.723434 489.292725,257.186218 
	C489.292725,271.051544 489.292725,284.909576 489.292725,298.698914 
	C499.685974,300.191589 499.683472,300.191589 499.668579,290.484131 
	C499.661957,286.182404 499.667511,281.880676 499.667511,277.578949 
	C500.038635,277.557922 500.409760,277.536896 500.780853,277.515839 
	C501.701050,278.672272 502.621216,279.828674 503.501709,281.530884 
	C504.021149,281.945007 504.540588,282.359100 505.174591,283.445282 
	C505.604309,283.929108 506.034027,284.412964 506.429291,285.588257 
	C508.772278,289.560577 510.571259,294.053375 513.675171,297.297638 
	C515.366089,299.065002 519.254883,298.936707 522.189819,299.151642 
	C522.868164,299.201294 524.348206,297.165009 524.361572,296.075134 
	C524.510864,283.937805 524.529236,271.796265 524.297241,259.661285 
	C524.275452,258.521729 522.455261,256.705048 521.214172,256.450562 
	C518.734863,255.942200 516.078003,256.299805 512.945679,256.299805 
	C512.945679,263.294708 512.945679,269.456970 512.945679,276.607849 
	C510.224884,272.975830 508.191986,270.262024 506.019348,266.873871 
	C505.748260,266.506348 505.477203,266.138824 505.362183,265.562561 
	C505.298523,265.366455 505.163422,265.273285 504.755585,264.590881 
M272.464264,47.842701 
	C279.463287,44.927170 286.227112,41.063480 293.501709,39.258865 
	C326.465637,31.081497 362.189575,43.698681 378.019592,75.898781 
	C378.589050,77.057091 380.038116,78.454048 381.171509,78.543320 
	C385.236450,78.863525 389.341919,78.668877 393.599030,78.668877 
	C386.261871,52.467594 355.529175,22.647144 311.885925,22.774765 
	C270.727905,22.895119 238.553635,51.562119 231.119171,78.700485 
	C232.673019,78.700485 234.188034,78.509811 235.639450,78.732964 
	C242.514969,79.790077 246.704926,77.551247 249.934784,70.772758 
	C254.566238,61.052757 262.598755,53.869469 272.464264,47.842701 
M562.808105,285.477600 
	C564.262390,285.715515 565.716675,285.953461 567.867493,286.305359 
	C562.891174,290.275238 557.480957,290.269409 553.594116,286.970581 
	C549.178772,283.223267 547.787781,277.572906 550.181396,273.107269 
	C553.894958,266.178894 561.198181,264.381104 567.839783,269.204224 
	C572.574524,272.642548 573.533142,266.923126 576.487610,266.199432 
	C575.828430,264.306213 575.670715,261.268951 574.421753,260.721558 
	C569.516602,258.571716 564.277649,255.871216 559.144287,255.833023 
	C549.073181,255.758087 540.337830,264.388611 538.498108,274.352448 
	C536.802124,283.538055 541.931274,293.387390 550.822937,297.919983 
	C559.342896,302.263062 567.436096,300.821350 574.734192,295.329590 
	C581.173462,290.484039 583.705505,283.770233 582.324890,275.214142 
	C575.494324,275.214142 569.015381,275.037415 562.560486,275.352875 
	C561.150391,275.421783 558.722839,277.203186 558.679688,278.273132 
	C558.572144,280.942780 556.599548,285.099609 562.808105,285.477600 
M425.751831,275.222656 
	C424.319672,275.338409 422.887482,275.454193 420.994049,275.607269 
	C421.243896,278.832886 420.488068,282.435822 421.947754,284.131287 
	C423.384338,285.799896 427.067719,285.534119 430.256989,286.223389 
	C425.175812,290.455872 419.355560,290.300201 415.383148,286.389984 
	C410.951172,282.027374 410.289795,275.262787 413.889069,271.108948 
	C418.403107,265.899475 423.780212,264.961761 429.821350,268.834381 
	C434.443359,271.797272 436.439484,267.739441 439.004761,265.650299 
	C439.526276,265.225586 438.857208,262.208923 437.884888,261.264008 
	C431.757538,255.309525 418.883240,253.937775 411.863586,258.558167 
	C403.483734,264.073822 399.400177,271.888092 401.227051,281.994690 
	C402.774658,290.556183 408.172852,296.181976 416.247040,299.135742 
	C424.595490,302.189880 432.039185,299.905579 438.438202,294.309601 
	C444.079529,289.376160 446.160156,283.032196 444.323639,275.223969 
	C438.309174,275.223969 432.503998,275.223969 425.751831,275.222656 
M295.641754,270.304016 
	C295.045532,267.387939 296.440063,266.373871 299.181732,266.433685 
	C302.177032,266.499023 305.175629,266.392609 308.172668,266.402313 
	C312.252228,266.415527 311.844818,263.477875 311.912903,260.814362 
	C311.979462,258.210327 311.541901,256.238647 308.177795,256.300262 
	C301.352661,256.425323 294.517059,256.193695 287.702942,256.495941 
	C286.576538,256.545898 284.619873,258.542267 284.598663,259.668335 
	C284.369659,271.820190 284.393280,283.978577 284.548615,296.132660 
	C284.562531,297.220520 285.956360,299.206268 286.751038,299.227722 
	C295.178375,299.455017 303.614166,299.368652 312.099609,299.368652 
	C312.291199,297.513397 312.456940,296.537109 312.482697,295.557129 
	C312.646820,289.304657 312.636658,289.304413 306.188171,289.304413 
	C302.754211,289.304413 299.320282,289.304382 296.147064,289.304382 
	C294.603882,284.284424 295.730011,282.085052 300.542755,282.554199 
	C302.683624,282.762970 304.868317,282.562073 307.031433,282.494324 
	C311.143524,282.365692 310.457336,279.347839 310.528290,276.719788 
	C310.599670,274.075439 310.157104,272.264648 306.793488,272.226898 
	C303.227844,272.186859 299.669037,271.539551 295.641754,270.304016 
M356.252563,281.598602 
	C354.203674,287.154388 352.154816,292.710175 350.090302,298.308411 
	C358.303070,300.335236 359.082123,299.972443 363.282623,293.926208 
	C364.008087,292.881989 365.650024,292.056244 366.952637,291.917389 
	C369.750305,291.619141 372.638702,291.571533 375.417542,291.951233 
	C376.798248,292.139923 378.530151,293.198792 379.224243,294.380341 
	C382.346100,299.694550 385.393433,300.772430 392.197357,298.011017 
	C387.321625,284.681946 382.688995,271.216949 377.214447,258.103455 
	C376.558441,256.532074 371.331696,256.519043 368.217377,256.492188 
	C366.932770,256.481079 364.979736,258.077454 364.447357,259.394196 
	C361.588562,266.464813 359.081512,273.677673 356.252563,281.598602 
M105.630081,289.289703 
	C104.963554,289.290314 104.291359,289.234711 103.631493,289.301331 
	C100.869293,289.580231 99.107872,288.786407 99.119835,285.594666 
	C99.132492,282.218231 101.511841,282.565979 103.661263,282.549774 
	C106.159851,282.530914 108.665459,282.719299 111.156563,282.592529 
	C115.385628,282.377411 114.059151,278.936127 114.367233,276.584595 
	C114.665970,274.304321 114.500771,272.138763 111.212852,272.255280 
	C108.383904,272.355530 105.489609,272.610992 102.741623,272.128754 
	C101.424858,271.897675 100.379684,270.118835 99.211510,269.040985 
	C100.358070,268.173462 101.430847,266.710205 102.665909,266.557220 
	C105.619606,266.191376 108.671318,266.216187 111.643768,266.499542 
	C115.750603,266.891022 115.771149,264.440430 115.761444,261.514557 
	C115.752045,258.679474 115.965637,256.165161 111.827766,256.290009 
	C105.335205,256.485901 98.829544,256.445831 92.334831,256.286102 
	C89.259926,256.210510 88.274773,257.397247 88.303520,260.394714 
	C88.415382,272.057709 88.434273,283.723785 88.274902,295.385773 
	C88.231895,298.532257 89.496742,299.509094 92.376793,299.463043 
	C97.540985,299.380402 102.707436,299.436920 107.872948,299.439423 
	C116.496292,299.443573 116.504051,299.444214 115.691353,290.915955 
	C115.648666,290.468140 115.288269,290.050629 114.913376,289.289093 
	C112.186485,289.289093 109.377274,289.289093 105.630081,289.289703 
M56.068623,300.368530 
	C59.311516,299.871857 62.606071,299.590881 65.785492,298.829254 
	C70.878799,297.609161 73.676605,293.891968 74.512589,288.993195 
	C75.434906,283.588501 73.496468,279.030334 68.543808,276.370331 
	C64.927933,274.428253 60.958126,273.153381 57.283161,271.308105 
	C56.165810,270.747070 55.504719,269.277344 54.634655,268.223816 
	C55.993504,267.523041 57.370251,266.237671 58.706383,266.278564 
	C60.173122,266.323456 61.568848,267.670319 63.059402,268.298187 
	C64.124168,268.746674 65.551491,269.515259 66.368637,269.146729 
	C68.709557,268.091064 70.822136,266.529053 72.967545,265.201355 
	C71.217850,259.439911 67.008591,256.996643 62.285778,255.805298 
	C56.094711,254.243561 50.381439,255.574646 46.141041,260.834015 
	C42.878555,264.880432 42.639679,269.354370 44.766037,273.941437 
	C47.395237,279.613251 53.440495,280.130341 58.159939,282.693634 
	C60.191296,283.796936 61.767254,285.738739 63.550102,287.299591 
	C60.991455,287.935547 58.453487,288.898224 55.864952,289.062073 
	C54.669083,289.137787 53.456856,287.422546 52.102188,286.940155 
	C50.659752,286.426483 48.856487,285.863922 47.541229,286.305969 
	C45.602116,286.957703 43.955498,288.479645 42.124512,289.669830 
	C44.361298,296.374878 49.358658,298.852875 56.068623,300.368530 
M460.303711,282.496826 
	C460.304443,285.322540 460.306763,288.148224 460.305603,290.973938 
	C460.301819,300.035675 460.301788,300.043060 469.295074,299.443298 
	C469.736145,299.413879 470.155579,299.060303 470.820709,298.746582 
	C470.999817,297.007263 471.355530,295.207520 471.342255,293.410522 
	C471.261841,282.502106 470.868347,271.589783 471.086823,260.688904 
	C471.161926,256.942230 470.006012,255.961578 466.645325,256.287476 
	C463.710510,256.572083 460.028900,255.161469 460.238434,260.556946 
	C460.509125,267.527588 460.304230,274.516724 460.303711,282.496826 
z"/>
<path fill="#45B09E" opacity="1.000000" stroke="none" 
	d="
M362.974579,128.737915 
	C348.563843,137.942047 334.202423,147.226013 319.657715,156.213333 
	C318.360016,157.015213 315.382111,156.561646 314.011505,155.559814 
	C296.568298,142.810181 279.280548,129.847931 261.944427,116.951668 
	C252.890060,110.216187 243.811234,103.513626 234.760345,96.773529 
	C232.930496,95.410851 231.176559,93.946243 228.477966,91.807785 
	C231.058350,91.644501 232.477173,91.476547 233.896027,91.476234 
	C286.547058,91.464699 339.198120,91.503723 391.848938,91.398064 
	C395.694733,91.390350 396.943298,92.310471 396.918701,96.403496 
	C396.731445,127.543266 396.816132,158.684677 396.816132,190.517746 
	C394.952271,190.634048 393.222412,190.832687 391.492249,190.835648 
	C377.163239,190.860092 362.833252,190.934021 348.505585,190.792358 
	C344.502716,190.752792 341.658051,192.055130 339.082123,195.198425 
	C333.401367,202.130386 327.318176,208.731232 321.477386,215.534348 
	C320.298584,216.907364 319.465790,218.577423 318.067719,220.737473 
	C311.812042,213.717117 306.743347,208.082031 301.739349,202.390106 
	C299.326508,199.645569 297.396484,196.329437 294.575592,194.137146 
	C292.300232,192.368820 289.031067,191.043793 286.176880,190.993500 
	C269.686829,190.702942 253.188141,190.936386 236.695160,190.747589 
	C234.396225,190.721283 231.252380,189.999283 230.051712,188.419632 
	C228.714462,186.660309 228.280273,183.216217 229.082962,181.133804 
	C229.766937,179.359299 232.748077,177.392456 234.738113,177.365479 
	C255.228271,177.087875 275.724091,177.123245 296.216217,177.306046 
	C297.844543,177.320557 299.804749,178.766403 301.017273,180.090515 
	C306.382202,185.949158 311.530121,192.006500 317.335449,198.654861 
	C321.312469,194.264938 325.485352,190.686234 328.351868,186.261261 
	C333.002411,179.082352 338.798065,176.323303 347.424377,176.994095 
	C357.692596,177.792572 368.072479,177.063736 378.399384,177.251007 
	C381.938324,177.315186 383.025574,176.022552 383.009338,172.611160 
	C382.910400,151.784531 382.936676,130.957123 382.990753,110.130150 
	C382.998444,107.168037 382.305237,105.487328 378.827271,105.495689 
	C344.504456,105.578102 310.181366,105.546860 275.858398,105.574860 
	C274.936493,105.575607 274.014862,105.880508 271.507233,106.324135 
	C276.108612,109.845749 279.631744,112.603439 283.218536,115.275650 
	C293.599121,123.009277 304.041168,130.660904 314.376404,138.454361 
	C317.001923,140.434143 318.939087,140.665146 321.839935,138.509155 
	C326.614838,134.960358 331.929718,132.138062 337.735870,128.974823 
	C340.659698,127.338280 342.864624,125.736420 345.069519,124.134567 
	C345.069519,124.134560 345.058014,124.046638 345.432739,124.055649 
	C346.566528,123.435867 347.325653,122.807076 348.084747,122.178284 
	C348.084747,122.178284 348.095551,122.073471 348.495178,122.073288 
	C350.284088,121.090584 351.673370,120.108063 353.062653,119.125534 
	C353.062653,119.125526 353.037720,119.045547 353.447144,118.998627 
	C354.941895,118.577248 356.040283,117.860619 357.109863,117.901237 
	C359.187683,117.980156 361.943298,117.800110 363.126740,119.000473 
	C364.364075,120.255463 364.326874,123.002327 364.371185,125.107071 
	C364.396423,126.307022 363.471588,127.526970 362.974579,128.737915 
z"/>
<path fill="#48B19F" opacity="1.000000" stroke="none" 
	d="
M272.160400,48.046463 
	C262.598755,53.869469 254.566238,61.052757 249.934784,70.772758 
	C246.704926,77.551247 242.514969,79.790077 235.639450,78.732964 
	C234.188034,78.509811 232.673019,78.700485 231.119171,78.700485 
	C238.553635,51.562119 270.727905,22.895119 311.885925,22.774765 
	C355.529175,22.647144 386.261871,52.467594 393.599030,78.668877 
	C389.341919,78.668877 385.236450,78.863525 381.171509,78.543320 
	C380.038116,78.454048 378.589050,77.057091 378.019592,75.898781 
	C362.189575,43.698681 326.465637,31.081497 293.501709,39.258865 
	C286.227112,41.063480 279.463287,44.927170 272.160400,48.046463 
z"/>
<path fill="#4BB2A0" opacity="1.000000" stroke="none" 
	d="
M562.384277,285.467346 
	C556.599548,285.099609 558.572144,280.942780 558.679688,278.273132 
	C558.722839,277.203186 561.150391,275.421783 562.560486,275.352875 
	C569.015381,275.037415 575.494324,275.214142 582.324890,275.214142 
	C583.705505,283.770233 581.173462,290.484039 574.734192,295.329590 
	C567.436096,300.821350 559.342896,302.263062 550.822937,297.919983 
	C541.931274,293.387390 536.802124,283.538055 538.498108,274.352448 
	C540.337830,264.388611 549.073181,255.758087 559.144287,255.833023 
	C564.277649,255.871216 569.516602,258.571716 574.421753,260.721558 
	C575.670715,261.268951 575.828430,264.306213 576.487610,266.199432 
	C573.533142,266.923126 572.574524,272.642548 567.839783,269.204224 
	C561.198181,264.381104 553.894958,266.178894 550.181396,273.107269 
	C547.787781,277.572906 549.178772,283.223267 553.594116,286.970581 
	C557.480957,290.269409 562.891174,290.275238 567.867493,286.305359 
	C565.716675,285.953461 564.262390,285.715515 562.384277,285.467346 
z"/>
<path fill="#4CB2A1" opacity="1.000000" stroke="none" 
	d="
M426.225342,275.223328 
	C432.503998,275.223969 438.309174,275.223969 444.323639,275.223969 
	C446.160156,283.032196 444.079529,289.376160 438.438202,294.309601 
	C432.039185,299.905579 424.595490,302.189880 416.247040,299.135742 
	C408.172852,296.181976 402.774658,290.556183 401.227051,281.994690 
	C399.400177,271.888092 403.483734,264.073822 411.863586,258.558167 
	C418.883240,253.937775 431.757538,255.309525 437.884888,261.264008 
	C438.857208,262.208923 439.526276,265.225586 439.004761,265.650299 
	C436.439484,267.739441 434.443359,271.797272 429.821350,268.834381 
	C423.780212,264.961761 418.403107,265.899475 413.889069,271.108948 
	C410.289795,275.262787 410.951172,282.027374 415.383148,286.389984 
	C419.355560,290.300201 425.175812,290.455872 430.256989,286.223389 
	C427.067719,285.534119 423.384338,285.799896 421.947754,284.131287 
	C420.488068,282.435822 421.243896,278.832886 420.994049,275.607269 
	C422.887482,275.454193 424.319672,275.338409 426.225342,275.223328 
z"/>
<path fill="#4AB1A0" opacity="1.000000" stroke="none" 
	d="
M261.627136,258.204285 
	C261.945251,258.369232 262.263336,258.534149 262.804779,259.235260 
	C264.312195,260.873718 265.596252,261.976013 266.880310,263.078339 
	C266.880310,263.078339 266.950623,263.058746 266.980988,263.285278 
	C267.113007,263.769440 267.287628,263.960297 267.535248,264.084351 
	C267.957001,265.482605 268.378754,266.880890 268.585480,268.875793 
	C268.539856,270.642914 268.709259,271.813385 268.878693,272.983826 
	C268.782440,273.734222 268.686157,274.484589 268.342224,275.700958 
	C267.959717,276.346283 267.890472,276.548187 267.886871,276.772644 
	C267.821106,276.966797 267.755371,277.160950 267.425568,277.734619 
	C267.000366,278.286072 266.902863,278.488647 266.868988,278.721893 
	C266.868988,278.721893 266.831818,278.831940 266.584869,278.965576 
	C266.097565,279.301514 265.958740,279.558655 265.921417,279.870636 
	C265.921417,279.870636 265.958557,279.937439 265.559570,280.008636 
	C261.832458,283.500549 262.023560,285.786133 265.911041,289.054504 
	C265.911041,289.054504 265.981354,289.020569 265.958893,289.416046 
	C266.868530,291.257385 267.800629,292.703217 268.732758,294.149078 
	C268.732758,294.149078 268.835876,294.205872 268.913757,294.428345 
	C269.114868,294.865295 269.292328,295.015808 269.524048,295.102386 
	C269.524048,295.102386 269.686218,295.241882 269.736938,295.699280 
	C267.163788,297.142578 264.539948,298.128448 261.916107,299.114319 
	C260.772736,298.505188 259.629364,297.895996 258.316620,296.731262 
	C257.882446,295.766388 257.617645,295.357117 257.352844,294.947815 
	C256.180023,292.942352 255.280609,290.690125 253.756668,289.001556 
	C252.263626,287.347198 250.134735,286.266754 248.284912,284.934418 
	C247.809326,285.330627 247.333755,285.726837 246.858170,286.123016 
	C246.858170,289.249390 246.679245,292.388489 246.900406,295.499146 
	C247.226501,300.085266 244.105820,299.470184 241.291245,299.566315 
	C238.359802,299.666412 236.148285,299.472809 236.217896,295.440277 
	C236.419083,283.786011 236.324631,272.125854 236.265167,260.468445 
	C236.252457,257.975830 236.650970,256.168243 239.723434,256.308075 
	C246.191513,256.602417 252.662628,256.829620 259.689728,257.377594 
	C260.707001,257.848633 261.167084,258.026459 261.627136,258.204285 
M246.770584,271.438354 
	C246.102020,276.644226 249.806488,275.863892 252.843582,275.768524 
	C255.971344,275.670319 258.982147,274.974945 259.131653,271.057129 
	C259.265411,267.552338 257.052094,265.971191 253.759384,266.148163 
	C250.720215,266.311493 246.173798,264.427856 246.770584,271.438354 
z"/>
<path fill="#49B19E" opacity="1.000000" stroke="none" 
	d="
M295.874512,270.730713 
	C299.669037,271.539551 303.227844,272.186859 306.793488,272.226898 
	C310.157104,272.264648 310.599670,274.075439 310.528290,276.719788 
	C310.457336,279.347839 311.143524,282.365692 307.031433,282.494324 
	C304.868317,282.562073 302.683624,282.762970 300.542755,282.554199 
	C295.730011,282.085052 294.603882,284.284424 296.147064,289.304382 
	C299.320282,289.304382 302.754211,289.304413 306.188171,289.304413 
	C312.636658,289.304413 312.646820,289.304657 312.482697,295.557129 
	C312.456940,296.537109 312.291199,297.513397 312.099609,299.368652 
	C303.614166,299.368652 295.178375,299.455017 286.751038,299.227722 
	C285.956360,299.206268 284.562531,297.220520 284.548615,296.132660 
	C284.393280,283.978577 284.369659,271.820190 284.598663,259.668335 
	C284.619873,258.542267 286.576538,256.545898 287.702942,256.495941 
	C294.517059,256.193695 301.352661,256.425323 308.177795,256.300262 
	C311.541901,256.238647 311.979462,258.210327 311.912903,260.814362 
	C311.844818,263.477875 312.252228,266.415527 308.172668,266.402313 
	C305.175629,266.392609 302.177032,266.499023 299.181732,266.433685 
	C296.440063,266.373871 295.045532,267.387939 295.874512,270.730713 
z"/>
<path fill="#49B1A0" opacity="1.000000" stroke="none" 
	d="
M356.352783,281.220001 
	C359.081512,273.677673 361.588562,266.464813 364.447357,259.394196 
	C364.979736,258.077454 366.932770,256.481079 368.217377,256.492188 
	C371.331696,256.519043 376.558441,256.532074 377.214447,258.103455 
	C382.688995,271.216949 387.321625,284.681946 392.197357,298.011017 
	C385.393433,300.772430 382.346100,299.694550 379.224243,294.380341 
	C378.530151,293.198792 376.798248,292.139923 375.417542,291.951233 
	C372.638702,291.571533 369.750305,291.619141 366.952637,291.917389 
	C365.650024,292.056244 364.008087,292.881989 363.282623,293.926208 
	C359.082123,299.972443 358.303070,300.335236 350.090302,298.308411 
	C352.154816,292.710175 354.203674,287.154388 356.352783,281.220001 
M372.676300,274.922119 
	C371.737976,274.874207 370.130585,274.501953 369.970856,274.831451 
	C368.996490,276.841461 368.350983,279.010895 367.422699,281.612366 
	C370.061890,281.612366 372.093079,281.612366 374.727509,281.612366 
	C373.999054,279.294830 373.423004,277.462067 372.676300,274.922119 
z"/>
<path fill="#49B19F" opacity="1.000000" stroke="none" 
	d="
M106.099075,289.289398 
	C109.377274,289.289093 112.186485,289.289093 114.913376,289.289093 
	C115.288269,290.050629 115.648666,290.468140 115.691353,290.915955 
	C116.504051,299.444214 116.496292,299.443573 107.872948,299.439423 
	C102.707436,299.436920 97.540985,299.380402 92.376793,299.463043 
	C89.496742,299.509094 88.231895,298.532257 88.274902,295.385773 
	C88.434273,283.723785 88.415382,272.057709 88.303520,260.394714 
	C88.274773,257.397247 89.259926,256.210510 92.334831,256.286102 
	C98.829544,256.445831 105.335205,256.485901 111.827766,256.290009 
	C115.965637,256.165161 115.752045,258.679474 115.761444,261.514557 
	C115.771149,264.440430 115.750603,266.891022 111.643768,266.499542 
	C108.671318,266.216187 105.619606,266.191376 102.665909,266.557220 
	C101.430847,266.710205 100.358070,268.173462 99.211517,269.040985 
	C100.379684,270.118835 101.424858,271.897675 102.741623,272.128754 
	C105.489609,272.610992 108.383904,272.355530 111.212852,272.255280 
	C114.500771,272.138763 114.665970,274.304321 114.367233,276.584595 
	C114.059151,278.936127 115.385628,282.377411 111.156563,282.592529 
	C108.665459,282.719299 106.159851,282.530914 103.661263,282.549774 
	C101.511841,282.565979 99.132492,282.218231 99.119835,285.594666 
	C99.107872,288.786407 100.869293,289.580231 103.631493,289.301331 
	C104.291359,289.234711 104.963554,289.290314 106.099075,289.289398 
z"/>
<path fill="#4BB2A0" opacity="1.000000" stroke="none" 
	d="
M55.680202,300.256531 
	C49.358658,298.852875 44.361298,296.374878 42.124512,289.669830 
	C43.955498,288.479645 45.602116,286.957703 47.541229,286.305969 
	C48.856487,285.863922 50.659752,286.426483 52.102188,286.940155 
	C53.456856,287.422546 54.669083,289.137787 55.864952,289.062073 
	C58.453487,288.898224 60.991455,287.935547 63.550102,287.299591 
	C61.767254,285.738739 60.191296,283.796936 58.159939,282.693634 
	C53.440495,280.130341 47.395237,279.613251 44.766037,273.941437 
	C42.639679,269.354370 42.878555,264.880432 46.141041,260.834015 
	C50.381439,255.574646 56.094711,254.243561 62.285778,255.805298 
	C67.008591,256.996643 71.217850,259.439911 72.967545,265.201355 
	C70.822136,266.529053 68.709557,268.091064 66.368637,269.146729 
	C65.551491,269.515259 64.124168,268.746674 63.059402,268.298187 
	C61.568848,267.670319 60.173122,266.323456 58.706383,266.278564 
	C57.370251,266.237671 55.993504,267.523041 54.634651,268.223816 
	C55.504719,269.277344 56.165810,270.747070 57.283161,271.308105 
	C60.958126,273.153381 64.927933,274.428253 68.543808,276.370331 
	C73.496468,279.030334 75.434906,283.588501 74.512589,288.993195 
	C73.676605,293.891968 70.878799,297.609161 65.785492,298.829254 
	C62.606071,299.590881 59.311516,299.871857 55.680202,300.256531 
z"/>
<path fill="#4AB1A0" opacity="1.000000" stroke="none" 
	d="
M155.111877,266.935577 
	C154.948669,266.886932 154.785446,266.838257 154.224182,266.383179 
	C147.241653,264.026489 141.526184,266.908997 139.971024,272.964447 
	C136.565964,281.127502 143.584686,290.659576 152.135559,289.226440 
	C154.294754,288.864532 156.468292,287.705566 158.293549,286.425598 
	C161.647858,284.073364 166.814499,284.360748 168.961807,287.697876 
	C169.498932,288.532623 169.051056,290.578033 168.343216,291.545776 
	C162.672440,299.298706 152.095993,302.252960 142.904755,298.846558 
	C134.189087,295.616486 128.135025,286.714844 128.431015,277.565063 
	C128.769302,267.107452 134.953796,258.966248 145.164856,256.881042 
	C149.326401,256.031189 153.857590,256.991516 158.749710,257.439453 
	C159.759735,257.882660 160.240677,258.014740 160.721603,258.146790 
	C160.721603,258.146790 160.825226,258.169586 160.892090,258.560486 
	C162.620041,259.981537 164.281113,261.011688 165.942200,262.041840 
	C165.942200,262.041840 166.377655,262.264435 166.627213,262.729889 
	C166.906128,265.112366 166.935486,267.029419 166.964844,268.946442 
	C166.489594,269.227142 166.014343,269.507812 165.047546,269.642731 
	C162.423355,269.296082 160.290695,269.095184 158.158035,268.894318 
	C157.967194,268.795441 157.776337,268.696533 157.248718,268.329163 
	C156.911957,268.060760 156.513367,267.843262 156.513367,267.843262 
	C156.513367,267.843262 156.290283,267.742279 156.079193,267.492554 
	C155.653976,267.047028 155.401901,266.944611 155.111877,266.935577 
z"/>
<path fill="#3DAF9C" opacity="1.000000" stroke="none" 
	d="
M185.544861,285.803131 
	C185.491882,276.905884 185.438919,268.008667 185.612686,258.633118 
	C185.839417,258.154785 186.168106,258.024261 186.338654,257.916504 
	C186.722763,257.637634 186.889008,257.428802 187.455414,257.143005 
	C190.132339,257.103699 192.361786,257.103699 195.120422,257.103699 
	C195.120422,266.521240 195.120422,275.213898 195.078461,284.319550 
	C195.454300,290.755646 200.354340,292.836823 205.981155,289.380981 
	C206.169205,289.314362 206.357269,289.247711 207.151718,289.088867 
	C208.188812,288.365814 208.619553,287.735016 209.050293,287.104187 
	C209.077881,286.925446 209.105484,286.746674 209.581909,286.178772 
	C210.316376,280.500824 210.602005,275.211975 210.910370,269.463379 
	C210.933090,265.227539 210.933090,261.451477 210.933090,257.505310 
	C213.605423,257.505310 215.624008,257.505310 217.498169,257.505310 
	C217.747360,258.242249 217.942017,258.551666 217.943848,258.862183 
	C217.992203,267.006805 217.768448,275.162201 218.111649,283.293793 
	C218.623276,295.416138 204.605042,300.268524 197.516830,297.060242 
	C193.614319,295.293854 190.520126,291.741699 187.014587,288.674500 
	C186.493393,287.503937 186.019135,286.653534 185.544861,285.803131 
z"/>
<path fill="#49B19E" opacity="1.000000" stroke="none" 
	d="
M505.206116,265.771301 
	C505.477203,266.138824 505.748260,266.506348 506.062775,267.611023 
	C506.623718,269.697784 507.375031,271.007935 507.611084,272.405121 
	C508.134460,275.502563 508.616425,278.641602 508.646667,281.768219 
	C508.656677,282.803955 507.232300,283.853577 506.463715,284.896820 
	C506.034027,284.412964 505.604309,283.929108 505.073547,282.853271 
	C504.495422,281.835876 504.018402,281.410492 503.541382,280.985107 
	C502.621216,279.828674 501.701050,278.672272 500.780853,277.515839 
	C500.409760,277.536896 500.038635,277.557922 499.667511,277.578949 
	C499.667511,281.880676 499.661957,286.182404 499.668579,290.484131 
	C499.683472,300.191589 499.685974,300.191589 489.292725,298.698914 
	C489.292725,284.909576 489.292725,271.051544 489.292725,257.186218 
	C497.492950,254.723434 499.112000,255.497452 504.895386,265.020264 
	C505.035217,265.449646 505.206116,265.771301 505.206116,265.771301 
z"/>
<path fill="#50B3A2" opacity="1.000000" stroke="none" 
	d="
M460.303894,281.997375 
	C460.304230,274.516724 460.509125,267.527588 460.238434,260.556946 
	C460.028900,255.161469 463.710510,256.572083 466.645325,256.287476 
	C470.006012,255.961578 471.161926,256.942230 471.086823,260.688904 
	C470.868347,271.589783 471.261841,282.502106 471.342255,293.410522 
	C471.355530,295.207520 470.999817,297.007263 470.820709,298.746582 
	C470.155579,299.060303 469.736145,299.413879 469.295074,299.443298 
	C460.301788,300.043060 460.301819,300.035675 460.305603,290.973938 
	C460.306763,288.148224 460.304443,285.322540 460.303894,281.997375 
z"/>
<path fill="#4EB5A4" opacity="1.000000" stroke="none" 
	d="
M506.446503,285.242554 
	C507.232300,283.853577 508.656677,282.803955 508.646667,281.768219 
	C508.616425,278.641602 508.134460,275.502563 507.611084,272.405121 
	C507.375031,271.007935 506.623718,269.697784 506.132629,267.948181 
	C508.191986,270.262024 510.224884,272.975830 512.945679,276.607849 
	C512.945679,269.456970 512.945679,263.294708 512.945679,256.299805 
	C516.078003,256.299805 518.734863,255.942200 521.214172,256.450562 
	C522.455261,256.705048 524.275452,258.521729 524.297241,259.661285 
	C524.529236,271.796265 524.510864,283.937805 524.361572,296.075134 
	C524.348206,297.165009 522.868164,299.201294 522.189819,299.151642 
	C519.254883,298.936707 515.366089,299.065002 513.675171,297.297638 
	C510.571259,294.053375 508.772278,289.560577 506.446503,285.242554 
M522.002014,261.737518 
	C521.255798,260.220398 520.509583,258.703247 519.763367,257.186127 
	C519.171631,258.692474 518.541809,260.185638 518.011780,261.713409 
	C517.857300,262.158691 517.969116,262.703674 517.990601,263.201538 
	C518.317017,270.747009 518.765259,278.290314 518.888367,285.838989 
	C518.915405,287.497437 517.791199,289.174622 517.197144,290.843201 
	C516.468933,289.305176 515.522278,287.827362 515.077026,286.211395 
	C514.672485,284.743378 514.813416,283.125092 514.686401,281.145905 
	C510.111877,285.023285 510.814575,288.948334 513.021729,292.933044 
	C513.778076,294.298431 514.896301,295.463348 516.099731,297.050232 
	C516.849182,295.224091 517.379578,293.931549 517.890381,292.686890 
	C519.316467,292.987701 520.466003,293.230164 522.002075,293.554138 
	C522.002075,282.945923 522.002075,272.816742 522.002014,261.737518 
M520.515625,297.402985 
	C520.515625,297.402985 520.585938,297.517944 520.515625,297.402985 
z"/>
<path fill="#69B7AA" opacity="1.000000" stroke="none" 
	d="
M187.061508,288.994629 
	C190.520126,291.741699 193.614319,295.293854 197.516830,297.060242 
	C204.605042,300.268524 218.623276,295.416138 218.111649,283.293793 
	C217.768448,275.162201 217.992203,267.006805 217.943848,258.862183 
	C217.942017,258.551666 217.747360,258.242249 217.498169,257.505310 
	C215.624008,257.505310 213.605423,257.505310 210.933090,257.505310 
	C210.933090,261.451477 210.933090,265.227539 210.639893,269.173096 
	C210.069489,265.299622 209.792282,261.256714 209.515076,257.213776 
	C212.358948,256.930145 215.213760,256.409058 218.038574,256.539246 
	C218.697845,256.569641 219.758957,258.802887 219.778519,260.036194 
	C219.915771,268.690735 219.992569,277.353241 219.758469,286.004303 
	C219.586929,292.342712 215.384308,297.152466 208.824905,299.306000 
	C201.261490,301.789093 193.074219,299.748016 188.424957,294.211212 
	C188.000046,293.705200 187.622131,293.159698 187.104340,292.143799 
	C186.935501,291.436188 186.836075,291.242249 186.688004,291.073273 
	C186.530792,290.619232 186.373581,290.165161 186.395569,289.358521 
	C186.574799,289.005890 187.061508,288.994629 187.061508,288.994629 
z"/>
<path fill="#69B7AA" opacity="1.000000" stroke="none" 
	d="
M363.309631,128.726410 
	C363.471588,127.526970 364.396423,126.307022 364.371185,125.107071 
	C364.326874,123.002327 364.364075,120.255463 363.126740,119.000473 
	C361.943298,117.800110 359.187683,117.980156 357.109863,117.901237 
	C356.040283,117.860619 354.941895,118.577248 353.488464,119.005371 
	C357.096008,114.681076 361.458405,114.191307 364.995209,117.725853 
	C368.303162,121.031708 367.831390,124.870583 363.309631,128.726410 
z"/>
<path fill="#61BBAD" opacity="1.000000" stroke="none" 
	d="
M209.376953,257.645691 
	C209.792282,261.256714 210.069489,265.299622 210.617172,269.632874 
	C210.602005,275.211975 210.316376,280.500824 209.663940,285.920166 
	C209.277710,276.726318 209.258270,267.401947 209.376953,257.645691 
z"/>
<path fill="#8BC8BD" opacity="1.000000" stroke="none" 
	d="
M195.120422,283.906586 
	C195.120422,275.213898 195.120422,266.521240 195.120422,257.103699 
	C192.361786,257.103699 190.132339,257.103699 187.238312,257.190430 
	C186.284485,257.442474 186.149277,257.691498 186.168106,258.024261 
	C186.168106,258.024261 185.839417,258.154785 185.665558,258.182617 
	C186.262634,257.501892 186.975174,256.277466 187.815506,256.182373 
	C190.250610,255.906754 192.737045,256.084778 196.041809,256.084778 
	C196.041809,265.335968 196.041809,274.216583 195.781677,283.529419 
	C195.521545,283.961700 195.120422,283.906586 195.120422,283.906586 
z"/>
<path fill="#8BC8BD" opacity="1.000000" stroke="none" 
	d="
M140.274048,272.817841 
	C141.526184,266.908997 147.241653,264.026489 153.984955,266.293457 
	C148.548843,266.229462 143.942917,268.062531 140.274048,272.817841 
z"/>
<path fill="#61BBAD" opacity="1.000000" stroke="none" 
	d="
M195.078461,284.319550 
	C195.120422,283.906586 195.521545,283.961700 195.720871,283.996735 
	C196.969116,289.354370 200.910995,289.544067 205.559753,289.304138 
	C200.354340,292.836823 195.454300,290.755646 195.078461,284.319550 
z"/>
<path fill="#8BC8BD" opacity="1.000000" stroke="none" 
	d="
M262.245575,299.325806 
	C264.539948,298.128448 267.163788,297.142578 269.782898,295.795837 
	C271.980072,297.685944 271.338287,299.231415 268.437805,299.662048 
	C266.531738,299.945007 264.532532,299.600677 262.245575,299.325806 
z"/>
<path fill="#69B7AA" opacity="1.000000" stroke="none" 
	d="
M344.719788,124.158676 
	C342.864624,125.736420 340.659698,127.338280 338.068604,128.878510 
	C339.911621,127.272194 342.140869,125.727486 344.719788,124.158676 
z"/>
<path fill="#8BC8BD" opacity="1.000000" stroke="none" 
	d="
M265.889526,288.695404 
	C262.023560,285.786133 261.832458,283.500549 265.522888,279.997925 
	C263.691559,282.718323 264.124847,285.525970 265.889526,288.695404 
z"/>
<path fill="#8BC8BD" opacity="1.000000" stroke="none" 
	d="
M158.274384,269.213623 
	C160.290695,269.095184 162.423355,269.296082 164.775360,269.716003 
	C162.563065,273.583344 160.490875,271.328613 158.274384,269.213623 
z"/>
<path fill="#8BC8BD" opacity="1.000000" stroke="none" 
	d="
M167.311874,268.936035 
	C166.935486,267.029419 166.906128,265.112366 166.826080,262.872162 
	C169.270523,264.369629 171.582397,266.215637 167.311874,268.936035 
z"/>
<path fill="#8BC8BD" opacity="1.000000" stroke="none" 
	d="
M165.820374,261.732788 
	C164.281113,261.011688 162.620041,259.981537 160.915833,258.607910 
	C162.481308,259.317535 164.089935,260.370667 165.820374,261.732788 
z"/>
<path fill="#8BC8BD" opacity="1.000000" stroke="none" 
	d="
M266.865906,262.736450 
	C265.596252,261.976013 264.312195,260.873718 262.978699,259.442810 
	C264.236664,260.207642 265.544098,261.301086 266.865906,262.736450 
z"/>
<path fill="#69B7AA" opacity="1.000000" stroke="none" 
	d="
M352.731110,119.172478 
	C351.673370,120.108063 350.284088,121.090584 348.544983,122.090469 
	C349.596619,121.145027 350.998108,120.182220 352.731110,119.172478 
z"/>
<path fill="#8BC8BD" opacity="1.000000" stroke="none" 
	d="
M269.148407,272.786987 
	C268.709259,271.813385 268.539856,270.642914 268.597961,269.249695 
	C269.023041,270.214691 269.220581,271.402405 269.148407,272.786987 
z"/>
<path fill="#8BC8BD" opacity="1.000000" stroke="none" 
	d="
M268.693909,293.817017 
	C267.800629,292.703217 266.868530,291.257385 265.936340,289.447906 
	C266.842529,290.551178 267.748810,292.018036 268.693909,293.817017 
z"/>
<path fill="#8BC8BD" opacity="1.000000" stroke="none" 
	d="
M187.014587,288.674500 
	C187.061508,288.994629 186.574799,289.005890 186.331573,289.002594 
	C185.810287,288.155609 185.532242,287.311890 185.399536,286.135681 
	C186.019135,286.653534 186.493393,287.503937 187.014587,288.674500 
z"/>
<path fill="#69B7AA" opacity="1.000000" stroke="none" 
	d="
M347.771057,122.186584 
	C347.325653,122.807076 346.566528,123.435867 345.473145,124.073860 
	C345.911713,123.453667 346.684540,122.824272 347.771057,122.186584 
z"/>
<path fill="#4EB5A4" opacity="1.000000" stroke="none" 
	d="
M503.521545,281.257996 
	C504.018402,281.410492 504.495422,281.835876 505.016235,282.517212 
	C504.540588,282.359100 504.021149,281.945007 503.521545,281.257996 
z"/>
<path fill="#61BBAD" opacity="1.000000" stroke="none" 
	d="
M208.796875,287.227600 
	C208.619553,287.735016 208.188812,288.365814 207.445007,289.029327 
	C207.602432,288.491669 208.072937,287.921326 208.796875,287.227600 
z"/>
<path fill="#8BC8BD" opacity="1.000000" stroke="none" 
	d="
M257.287079,295.223389 
	C257.617645,295.357117 257.882446,295.766388 258.164185,296.425964 
	C257.861176,296.283844 257.541260,295.891388 257.287079,295.223389 
z"/>
<path fill="#8BC8BD" opacity="1.000000" stroke="none" 
	d="
M261.559631,257.931854 
	C261.167084,258.026459 260.707001,257.848633 260.101196,257.464874 
	C260.467712,257.392426 260.979919,257.525940 261.559631,257.931854 
z"/>
<path fill="#8BC8BD" opacity="1.000000" stroke="none" 
	d="
M160.619080,257.888977 
	C160.240677,258.014740 159.759735,257.882660 159.122086,257.551300 
	C159.482422,257.445068 159.999481,257.538116 160.619080,257.888977 
z"/>
<path fill="#8BC8BD" opacity="1.000000" stroke="none" 
	d="
M186.608826,291.245117 
	C186.836075,291.242249 186.935501,291.436188 186.996063,291.821594 
	C186.758820,291.871124 186.600082,291.680725 186.608826,291.245117 
z"/>
<path fill="#8BC8BD" opacity="1.000000" stroke="none" 
	d="
M269.551514,294.890594 
	C269.292328,295.015808 269.114868,294.865295 268.931305,294.484497 
	C269.202454,294.251404 269.438446,294.371582 269.551514,294.890594 
z"/>
<path fill="#8BC8BD" opacity="1.000000" stroke="none" 
	d="
M266.150208,279.798798 
	C265.958740,279.558655 266.097565,279.301514 266.533752,278.993103 
	C266.796875,279.243896 266.680023,279.523865 266.150208,279.798798 
z"/>
<path fill="#8BC8BD" opacity="1.000000" stroke="none" 
	d="
M267.083008,278.694153 
	C266.902863,278.488647 267.000366,278.286072 267.297089,278.013977 
	C267.644653,278.211090 267.599426,278.461975 267.083008,278.694153 
z"/>
<path fill="#8BC8BD" opacity="1.000000" stroke="none" 
	d="
M268.092194,276.722931 
	C267.890472,276.548187 267.959717,276.346283 268.207916,276.054962 
	C268.589661,276.195465 268.581757,276.438873 268.092194,276.722931 
z"/>
<path fill="#8BC8BD" opacity="1.000000" stroke="none" 
	d="
M156.484009,268.025208 
	C156.513367,267.843262 156.911957,268.060760 156.983215,268.146240 
	C157.054474,268.231720 156.745743,268.428650 156.745743,268.428650 
	C156.745743,268.428650 156.454666,268.207153 156.484009,268.025208 
z"/>
<path fill="#8BC8BD" opacity="1.000000" stroke="none" 
	d="
M155.195023,267.151886 
	C155.401901,266.944611 155.653976,267.047028 155.989563,267.409149 
	C156.111038,267.575470 155.653107,267.638489 155.653107,267.638489 
	C155.653107,267.638489 155.278168,267.368195 155.195023,267.151886 
z"/>
<path fill="#4EB5A4" opacity="1.000000" stroke="none" 
	d="
M505.284149,265.666931 
	C505.206116,265.771301 505.035217,265.449646 504.996033,265.366333 
	C505.163422,265.273285 505.298523,265.366455 505.284149,265.666931 
z"/>
<path fill="#8BC8BD" opacity="1.000000" stroke="none" 
	d="
M267.584778,263.859497 
	C267.287628,263.960297 267.113007,263.769440 266.967224,263.319092 
	C267.274200,263.136353 267.511292,263.305786 267.584778,263.859497 
z"/>
<path fill="#ECF9F7" opacity="1.000000" stroke="none" 
	d="
M246.771988,270.982086 
	C246.173798,264.427856 250.720215,266.311493 253.759384,266.148163 
	C257.052094,265.971191 259.265411,267.552338 259.131653,271.057129 
	C258.982147,274.974945 255.971344,275.670319 252.843582,275.768524 
	C249.806488,275.863892 246.102020,276.644226 246.771988,270.982086 
z"/>
<path fill="#ECF9F7" opacity="1.000000" stroke="none" 
	d="
M372.761597,275.275696 
	C373.423004,277.462067 373.999054,279.294830 374.727509,281.612366 
	C372.093079,281.612366 370.061890,281.612366 367.422699,281.612366 
	C368.350983,279.010895 368.996490,276.841461 369.970856,274.831451 
	C370.130585,274.501953 371.737976,274.874207 372.761597,275.275696 
z"/>
<path fill="#50B3A2" opacity="1.000000" stroke="none" 
	d="
M186.338654,257.916504 
	C186.149277,257.691498 186.284485,257.442474 186.790817,257.229736 
	C186.889008,257.428802 186.722763,257.637634 186.338654,257.916504 
z"/>
<path fill="#3DAF9C" opacity="1.000000" stroke="none" 
	d="
M522.002075,262.212555 
	C522.002075,272.816742 522.002075,282.945923 522.002075,293.554138 
	C520.466003,293.230164 519.316467,292.987701 517.890381,292.686890 
	C517.379578,293.931549 516.849182,295.224091 516.099731,297.050232 
	C514.896301,295.463348 513.778076,294.298431 513.021729,292.933044 
	C510.814575,288.948334 510.111877,285.023285 514.686401,281.145905 
	C514.813416,283.125092 514.672485,284.743378 515.077026,286.211395 
	C515.522278,287.827362 516.468933,289.305176 517.197144,290.843201 
	C517.791199,289.174622 518.915405,287.497437 518.888367,285.838989 
	C518.765259,278.290314 518.317017,270.747009 517.990601,263.201538 
	C517.969116,262.703674 517.857300,262.158691 518.011780,261.713409 
	C518.541809,260.185638 519.171631,258.692474 519.763367,257.186127 
	C520.509583,258.703247 521.255798,260.220398 522.002075,262.212555 
z"/>
<path fill="#3DAF9C" opacity="1.000000" stroke="none" 
	d="
M520.550781,297.460449 
	C520.585938,297.517944 520.515625,297.402985 520.550781,297.460449 
z"/>
</svg>